<mxfile host="app.diagrams.net" agent="Mozilla/5.0 (Windows NT 10.0; Win64; x64) AppleWebKit/537.36 (KHTML, like Gecko) Chrome/137.0.0.0 Safari/537.36" version="27.1.5">
  <diagram id="d1ab7348-05c3-a1e3-ca4d-12c340fd6b49" name="Page-1">
    <mxGraphModel dx="1310" dy="772" grid="1" gridSize="10" guides="1" tooltips="1" connect="0" arrows="0" fold="1" page="1" pageScale="1" pageWidth="1169" pageHeight="827" background="none" math="0" shadow="0">
      <root>
        <mxCell id="0" />
        <mxCell id="1" parent="0" />
        <mxCell id="2" value="" style="fillColor=#F6F6F6;strokeColor=none;shadow=0;gradientColor=none;fontSize=14;align=left;spacing=10;fontColor=#717171;9E9E9E;verticalAlign=top;spacingTop=-4;fontStyle=0;spacingLeft=40;html=1;container=0;" parent="1" vertex="1">
          <mxGeometry x="480" y="120" width="660" height="520" as="geometry" />
        </mxCell>
        <mxCell id="156" style="edgeStyle=orthogonalEdgeStyle;rounded=0;html=1;labelBackgroundColor=none;startFill=1;startSize=4;endArrow=blockThin;endFill=1;endSize=4;jettySize=auto;orthogonalLoop=1;strokeColor=#4284F3;strokeWidth=2;fontSize=12;fontColor=#000000;align=center;dashed=0;exitX=1.002;exitY=0.51;exitDx=0;exitDy=0;exitPerimeter=0;entryX=-0.011;entryY=0.436;entryDx=0;entryDy=0;entryPerimeter=0;" parent="1" source="127" target="cDf-g9UQeOTYhBCLNVcn-189" edge="1">
          <mxGeometry relative="1" as="geometry">
            <mxPoint x="456" y="275" as="sourcePoint" />
            <Array as="points">
              <mxPoint x="400" y="250" />
              <mxPoint x="450" y="250" />
              <mxPoint x="450" y="368" />
            </Array>
          </mxGeometry>
        </mxCell>
        <mxCell id="127" value="&lt;b&gt;&lt;font style=&quot;font-size: 16px; color: rgb(0, 0, 0);&quot;&gt;Students&lt;/font&gt;&lt;/b&gt;" style="rounded=1;absoluteArcSize=1;arcSize=2;html=1;strokeColor=none;gradientColor=none;shadow=0;dashed=0;fontSize=12;fontColor=#9E9E9E;align=left;verticalAlign=top;spacing=10;spacingTop=-4;fillColor=#E1F5FE;" parent="1" vertex="1">
          <mxGeometry x="119" y="139" width="280" height="210" as="geometry" />
        </mxCell>
        <mxCell id="157" style="edgeStyle=orthogonalEdgeStyle;rounded=0;html=1;labelBackgroundColor=none;startFill=1;startSize=4;endArrow=blockThin;endFill=1;endSize=4;jettySize=auto;orthogonalLoop=1;strokeColor=#4284F3;strokeWidth=2;fontSize=12;fontColor=#000000;align=center;dashed=0;exitX=0.999;exitY=0.484;exitDx=0;exitDy=0;exitPerimeter=0;" parent="1" source="128" target="cDf-g9UQeOTYhBCLNVcn-189" edge="1">
          <mxGeometry relative="1" as="geometry">
            <Array as="points">
              <mxPoint x="450" y="519" />
              <mxPoint x="450" y="390" />
            </Array>
            <mxPoint x="458.52" y="520.0099999999998" as="sourcePoint" />
          </mxGeometry>
        </mxCell>
        <mxCell id="128" value="&lt;font style=&quot;font-size: 16px; color: rgb(0, 0, 0);&quot;&gt;&lt;b&gt;Teacher&lt;/b&gt;&lt;/font&gt;" style="rounded=1;absoluteArcSize=1;arcSize=2;html=1;strokeColor=none;gradientColor=none;shadow=0;dashed=0;fontSize=12;fontColor=#9E9E9E;align=left;verticalAlign=top;spacing=10;spacingTop=-4;fillColor=#FFF8E1;" parent="1" vertex="1">
          <mxGeometry x="119" y="389" width="280" height="230" as="geometry" />
        </mxCell>
        <mxCell id="159" style="edgeStyle=orthogonalEdgeStyle;rounded=0;html=1;labelBackgroundColor=none;startFill=1;startSize=4;endArrow=blockThin;endFill=1;endSize=4;jettySize=auto;orthogonalLoop=1;strokeColor=#4284F3;strokeWidth=2;fontSize=12;fontColor=#000000;align=center;dashed=0;exitX=0.686;exitY=0.021;exitDx=0;exitDy=0;exitPerimeter=0;entryX=0.929;entryY=0.871;entryDx=0;entryDy=0;entryPerimeter=0;" parent="1" source="cDf-g9UQeOTYhBCLNVcn-172" target="cDf-g9UQeOTYhBCLNVcn-171" edge="1">
          <mxGeometry relative="1" as="geometry">
            <mxPoint x="1240" y="188.78260869565224" as="sourcePoint" />
            <mxPoint x="1300" y="250" as="targetPoint" />
            <Array as="points">
              <mxPoint x="1050" y="279" />
            </Array>
          </mxGeometry>
        </mxCell>
        <mxCell id="rMcf9g8HV1eWvbZJhlMh-199" value="" style="strokeColor=#dddddd;shadow=1;strokeWidth=1;rounded=1;absoluteArcSize=1;arcSize=2;" parent="1" vertex="1">
          <mxGeometry x="567" y="160" width="230" height="460" as="geometry" />
        </mxCell>
        <mxCell id="cDf-g9UQeOTYhBCLNVcn-169" value="Vue,js" style="shape=image;imageAspect=0;aspect=fixed;verticalLabelPosition=bottom;verticalAlign=top;image=https://en.vetores.org/d/vue-js.svg;" parent="rMcf9g8HV1eWvbZJhlMh-199" vertex="1">
          <mxGeometry x="97.49888888888889" y="5.258064516129036" width="35" height="30.17" as="geometry" />
        </mxCell>
        <mxCell id="cDf-g9UQeOTYhBCLNVcn-195" value="" style="shape=image;imageAspect=0;aspect=fixed;verticalLabelPosition=bottom;verticalAlign=top;clipPath=inset(14.66% 11.33% 24.3% 11%);image=https://apexcharts.com/wp-content/themes/apexcharts/img/dashboard-dark-min.png;" parent="rMcf9g8HV1eWvbZJhlMh-199" vertex="1">
          <mxGeometry x="59.239999999999995" y="278" width="111.5" height="72.74" as="geometry" />
        </mxCell>
        <mxCell id="cDf-g9UQeOTYhBCLNVcn-196" value="" style="shape=image;verticalLabelPosition=bottom;labelBackgroundColor=default;verticalAlign=top;aspect=fixed;imageAspect=0;image=https://blogger.googleusercontent.com/img/b/R29vZ2xl/AVvXsEjFABPzXI3zabuOD-DLy2EbEhiYoQO34H44vS3FY5I0-2fEH934dB1GakKuWUqiHq1W18keCdf3tblo8sOe-NlHic4Y6jpDSzokoXmLq1xGvVbFfmuHXMAuZmqWiPre6qpx6yus1gkQ5pej/s400/computer_message_app.png;" parent="rMcf9g8HV1eWvbZJhlMh-199" vertex="1">
          <mxGeometry x="94.62" y="61" width="72.75" height="95.41" as="geometry" />
        </mxCell>
        <mxCell id="cDf-g9UQeOTYhBCLNVcn-200" value="&lt;font face=&quot;Comic Sans MS&quot; style=&quot;font-size: 12px;&quot;&gt;Student dashboard&lt;/font&gt;" style="text;strokeColor=none;fillColor=none;html=1;fontSize=24;fontStyle=1;verticalAlign=middle;align=center;" parent="rMcf9g8HV1eWvbZJhlMh-199" vertex="1">
          <mxGeometry x="65" y="343" width="100" height="40" as="geometry" />
        </mxCell>
        <mxCell id="cDf-g9UQeOTYhBCLNVcn-201" value="&lt;font face=&quot;Comic Sans MS&quot;&gt;&lt;span style=&quot;font-size: 12px;&quot;&gt;Learning by chatting&amp;nbsp;&lt;/span&gt;&lt;/font&gt;&lt;span style=&quot;font-size: 12px; font-family: &amp;quot;Comic Sans MS&amp;quot;; background-color: transparent; color: light-dark(rgb(0, 0, 0), rgb(255, 255, 255));&quot;&gt;with AI&lt;/span&gt;" style="text;strokeColor=none;fillColor=none;html=1;fontSize=24;fontStyle=1;verticalAlign=middle;align=center;" parent="rMcf9g8HV1eWvbZJhlMh-199" vertex="1">
          <mxGeometry x="65" y="145" width="100" height="40" as="geometry" />
        </mxCell>
        <mxCell id="cDf-g9UQeOTYhBCLNVcn-202" value="&lt;font face=&quot;Comic Sans MS&quot;&gt;&lt;span style=&quot;font-size: 12px;&quot;&gt;... and other fundamental features&lt;/span&gt;&lt;/font&gt;" style="text;strokeColor=none;fillColor=none;html=1;fontSize=24;fontStyle=1;verticalAlign=middle;align=center;" parent="rMcf9g8HV1eWvbZJhlMh-199" vertex="1">
          <mxGeometry x="67.74000000000001" y="420" width="100" height="40" as="geometry" />
        </mxCell>
        <mxCell id="cDf-g9UQeOTYhBCLNVcn-204" value="" style="shape=image;imageAspect=0;aspect=fixed;verticalLabelPosition=bottom;verticalAlign=top;clipPath=inset(12% 11.33% 12.67% 10% round 50%);image=https://webzz-production.s3-ap-northeast-1.amazonaws.com/users/avatars/F42B1Z9EV4WEFLY7GGYY.png;" parent="rMcf9g8HV1eWvbZJhlMh-199" vertex="1">
          <mxGeometry x="59" y="89.55000000000001" width="40" height="38.31" as="geometry" />
        </mxCell>
        <mxCell id="cDf-g9UQeOTYhBCLNVcn-189" value="" style="shape=image;imageAspect=0;aspect=fixed;verticalLabelPosition=bottom;verticalAlign=top;clipPath=inset(3.8% 25% 8.86% 4%);image=https://aruljohn.com/s/nginx.jpg;" parent="1" vertex="1">
          <mxGeometry x="515" y="336.73" width="110" height="71.27" as="geometry" />
        </mxCell>
        <mxCell id="cDf-g9UQeOTYhBCLNVcn-164" value="" style="shape=image;verticalLabelPosition=bottom;labelBackgroundColor=default;verticalAlign=top;aspect=fixed;imageAspect=0;image=https://blogger.googleusercontent.com/img/b/R29vZ2xl/AVvXsEi9zxwokHjuDPaMZjxac6Dti7A4PCashyphenhyphenVDBtBrU8BdTHd9Y1cA6ZktQZeHiiAY9RzOp6kkXewhabyS9KcE6n32YVruO24I3FrIziYjpA1lizHFK2Vcq9ZlABR5HPz9_NGfVEpD6Yx-qAT6/s450/school_jugyou_tablet.png;" parent="1" vertex="1">
          <mxGeometry x="159" y="167.77999999999997" width="200" height="172.44" as="geometry" />
        </mxCell>
        <mxCell id="cDf-g9UQeOTYhBCLNVcn-165" value="" style="shape=image;verticalLabelPosition=bottom;labelBackgroundColor=default;verticalAlign=top;aspect=fixed;imageAspect=0;image=https://blogger.googleusercontent.com/img/b/R29vZ2xl/AVvXsEggKTsWrPkDnh-W3d0SOHPpxXRA1Y_GHTjNi_TFftl3gOkHa0tQmuUT1KP5pQCzUHx-r-1Gw7Gn1ux772ZwiBthzBj5uEGF6xsWXk_8U3nTlukFJuicVd8x71URZgCX6q1Yxs4e-05SlimH/s450/school_teacher_tablet_man.png;" parent="1" vertex="1">
          <mxGeometry x="187" y="399" width="144" height="206.37" as="geometry" />
        </mxCell>
        <mxCell id="cDf-g9UQeOTYhBCLNVcn-167" value="" style="shape=image;html=1;verticalAlign=top;verticalLabelPosition=bottom;labelBackgroundColor=#ffffff;imageAspect=0;aspect=fixed;image=https://cdn3.iconfinder.com/data/icons/colorstroked/Ubuntu.png" parent="1" vertex="1">
          <mxGeometry x="728" y="118" width="38" height="38" as="geometry" />
        </mxCell>
        <mxCell id="cDf-g9UQeOTYhBCLNVcn-170" value="" style="outlineConnect=0;dashed=0;verticalLabelPosition=bottom;verticalAlign=top;align=center;html=1;shape=mxgraph.aws3.mysql_db_instance;fillColor=#2E73B8;gradientColor=none;" parent="1" vertex="1">
          <mxGeometry x="1010" y="559.87" width="60" height="64.5" as="geometry" />
        </mxCell>
        <mxCell id="cDf-g9UQeOTYhBCLNVcn-171" value="" style="shape=image;imageAspect=0;aspect=fixed;verticalLabelPosition=bottom;verticalAlign=top;image=data:image/png,iVBORw0KGgoAAAANSUhEUgAAC7gAAALjCAYAAACCxEieAAAAGXRFWHRTb2Z0d2FyZQBBZG9iZSBJbWFnZVJlYWR5ccllPAAAAyZpVFh0WE1MOmNvbS5hZG9iZS54bXAAAAAAADw/eHBhY2tldCBiZWdpbj0i77u/IiBpZD0iVzVNME1wQ2VoaUh6cmVTek5UY3prYzlkIj8+IDx4OnhtcG1ldGEgeG1sbnM6eD0iYWRvYmU6bnM6bWV0YS8iIHg6eG1wdGs9IkFkb2JlIFhNUCBDb3JlIDkuMC1jMDAwIDc5LmRhNGE3ZTVlZiwgMjAyMi8xMS8yMi0xMzo1MDowNyAgICAgICAgIj4gPHJkZjpSREYgeG1sbnM6cmRmPSJodHRwOi8vd3d3LnczLm9yZy8xOTk5LzAyLzIyLXJkZi1zeW50YXgtbnMjIj4gPHJkZjpEZXNjcmlwdGlvbiByZGY6YWJvdXQ9IiIgeG1sbnM6eG1wPSJodHRwOi8vbnMuYWRvYmUuY29tL3hhcC8xLjAvIiB4bWxuczp4bXBNTT0iaHR0cDovL25zLmFkb2JlLmNvbS94YXAvMS4wL21tLyIgeG1sbnM6c3RSZWY9Imh0dHA6Ly9ucy5hZG9iZS5jb20veGFwLzEuMC9zVHlwZS9SZXNvdXJjZVJlZiMiIHhtcDpDcmVhdG9yVG9vbD0iQWRvYmUgUGhvdG9zaG9wIDI0LjEgKFdpbmRvd3MpIiB4bXBNTTpJbnN0YW5jZUlEPSJ4bXAuaWlkOjJEQTg4RjUzQTY1QTExRURBNjU4OUU3OUQ3M0M3MThCIiB4bXBNTTpEb2N1bWVudElEPSJ4bXAuZGlkOjJEQTg4RjU0QTY1QTExRURBNjU4OUU3OUQ3M0M3MThCIj4gPHhtcE1NOkRlcml2ZWRGcm9tIHN0UmVmOmluc3RhbmNlSUQ9InhtcC5paWQ6MkRBODhGNTFBNjVBMTFFREE2NTg5RTc5RDczQzcxOEIiIHN0UmVmOmRvY3VtZW50SUQ9InhtcC5kaWQ6MkRBODhGNTJBNjVBMTFFREE2NTg5RTc5RDczQzcxOEIiLz4gPC9yZGY6RGVzY3JpcHRpb24+IDwvcmRmOlJERj4gPC94OnhtcG1ldGE+IDw/eHBhY2tldCBlbmQ9InIiPz7qqMaIAAD5NUlEQVR42uzd/VXcWLY34NO95n/OGwHVEcBEQDkC0xFQjsB0BC5H0HQELiIwjsBFBMYRuIjgHiLwu48lxvizMdSHPp5nrb3EzNw709rSkargp63fPn78mAD6LOc8vf0x6vA7P9/+64M1/0+/jyp3/vXVnX99+3MJV44SAAAAAAAAAAAAwL/7TcAd6Lqccw2q14D6NH0Orm8isL5pl+12eWcrAA8AAAAAAAAAAADQEnAHOqOdxD5p6/bn/ZHsfp0Gv0rN5PdaK8F3AAAAAAAAAAAAYGwE3IGdaMPsh3fqQFe+q059vw29Xwm9AwAAAAAAAAAAAEMm4A5sXM55kpqJ7IftVpj9cWrofZma0PuyBC0BAAAAAAAAAAAAhkDAHVi7O4H229rXlY16n5rA+6cSeAcAAAAAAAAAAAD6SsAdeLQcUhNkP04C7V1wG3i/KKUstQMAAAAAAAAAAADoCwF34EFyzofpc6j9SEc66ya1YffUBN5NdwcAAAAAAAAAAAA6S8AduLc21D5LTajdlPZ+qtPdF6kJu6+0AwAAAAAAAAAAAOgSAXfgp9pQ+2lqprULtQ+LsDsAAAAAAAAAAADQKQLuwDdMah+l27D7ogTtAAAAAAAAAAAAAHZBwB34JOc8SU2gvU5rF2oftzepmeq+0AoAAAAAAAAAAABgmwTcYeRyzrPUBNuf6gZfuUmfp7pfaQcAAAAAAAAAAACwaQLuMELttPY6qX0Wtacj3MP7qDNT3QEAAAAAAAAAAIBNEnCHEck510nts2RaOw93O9W9ht1X2gEAAAAAAAAAAACsk4A7DFwOsanB9nnUvo6wRm9SE3RfagUAAAAAAAAAAACwDgLuMFA550lqprWfRu3pCBv0PjVB94VWAAAAAAAAAAAAAI8h4A4D0wbb51EnusGWXddzT9AdAAAAAAAAAAAAeCgBdxgIwXY65CbqLDVT3Yt2AAAAAAAAAAAAAPcl4A49l3OepibYfqQbdIygOwAAAAAAAAAAAPBLBNyhp9qJ7TU8/FQ36LhPQfdSylwrAAAAAAAAAAAAgJ8RcIeeaYPt86gT3aBnruu5W0pZaAUAAAAAAAAAAADwPQLu0BM5pGZiu2A7fVeD7qellAutAAAAAAAAAAAAAO4ScIeOa4Ptp23t6QgDcpmaie5LrQAAAAAAAAAAAAAqAXfosJzzLDbzqH3dYMDOUxN0X2kFAAAAAAAAAAAAjJuAO3RQzvkwNmdRR7rBSNzUc76UMtcKAAAAAAAAAAAAGC8Bd+iQHFIzsf25bjBS11GzUspSKwAAAAAAAAAAAGB8BNyhI3LOs9RMbd/TDUhvUhN0L1oBAAAAAAAAAAAA4yHgDjuWc57EZhF1pBvwhZuoeSnlTCsAAAAAAAAAAABgHATcYYdyzvPYvNAJ+KnL1ExzX2kFAAAAAAAAAAAADJuAO+xAzvkwNVPbD3QD7u1lKWWuDQAAAAAAAAAAADBcAu6wZaa2w6O8T8009yutAAAAAAAAAAAAgOERcIctMbUd1uYmal5KOdMKAAAAAAAAAAAAGBYBd9gCU9thIy5TM819pRUAAAAAAAAAAAAwDALusEE550lqprYf6QZsRJ3mXkPuF1oBAAAAAAAAAAAA/SfgDhuScz5OTbh9Tzdg4/6JmpegFQAAAAAAAAAAANBfAu6wZjnEZh71XDdgq96nZpr7lVYAAAAAAAAAAABAPwm4wxrlnA9TM7X9QDdgJ26iTkspC60AAAAAAAAAAACA/hFwhzXJOR+nJty+pxuwc+ellJk2AAAAAAAAAAAAQL8IuMMa5JzPYvNcJ6BT3kcdl1JWWgEAAAAAAAAAAAD9IOAOj5BDbC6ijnQDOukmNSH3pVYAAAAAAAAAAABA9/2uBfAwOefD2KyScDt02V7U21ivM60AAAAAAAAAAACA7hNwhwdow7LL1IRnge57Fet2oQ0AAAAAAAAAAADQbb99/PhRF+AX5JzPYvNcJ6CXLqOOS9AKAAAAAAAAAAAA6B4Bd7inHGJTw+0nugG99j5qVkq50goAAAAAAAAAAADoFgF3uIc23L6MOtANGISbqKmQOwAAAAAAAAAAAHTL71oAP5dzPkzC7TA0e3Vdx/qeaQUAAAAAAAAAAAB0hwnu8BN3wu17ugGD9ayUstAGAAAAAAAAAAAA2D0Bd/iBnPNxbBZJuL2v3keV9uflnX9/1daPTNq6739+pNWD8LKUMtcGAAAAAAAAAAAA2C0Bd/iOnPMsNq90otNuoq7S58B6/bkG2q9K2ME5k2Nz2P7Laf232n89idp3uHrhPE6dmTYAAAAAAAAAAADA7gi4w1eE2zupTmO/DbMv045C7I88r27D7od3SvC9e4TcAQAAAAAAAAAAYIcE3OEO4fZOqJPZl6kJtC9LKcsBn2+3U96nd7Z7ToGdE3IHAAAAAAAAAACAHRFwh1bOeRGbE53YuttA+6cqpVyN/Dy8ne4+jTpOAu+7IuQOAAAAAAAAAAAAOyDgDkm4fQfeR12kgU9oX9O5eTfsfqQjWyXkDgAAAAAAAAAAAFsm4M7oCbdvzZvUTGm/KKWstONB52pOn8Puprtvh5A7AAAAAAAAAAAAbJGAO6Mm3L5xNdReJ7XXUHvRjrWfv7dBd2H3zRJyBwAAAAAAAAAAgC0RcGe0hNs35n1U7a1J7ds9n4XdN0vIHQAAAAAAAAAAALZAwJ1RyjmfxuZvnVibm9RMaj8rpVxpx07P7ZyakPss6khH1mqnIfc4tNPv/dtRh/f8r6hr85s3KcQ+LR1aAAAAAAAAAAAAukLAndHJOc9i80on1qJOa6+h9oVWdPJcn8SmPsxRz3lT3ddjbSH39mGE23D6tN1O2krtf7bt41YfVrl9SGXVVrVst1ex/8VpAAAAAAAAAAAAwKYIuDMqwu1rcx61MPm5N+f97VT3edS+jjzayzj35/fs/SQ1gfUaVq/HYdpuD3reg/pwSw261zD86nYbfVk5PQAAAAAAAAAAAHgMAXdGQ7j90epk57PUBNtX2tHbdTBNTdD9SDce5dnXby5oe3vY1mTEPb5Mn0Pvn8rUdwAAAAAAAAAAAO5LwJ1RyDnXwOkyak83ftltsP1MSHVQa2KSmqD7iW482D/p83R2k/F/7jp9Drwvvf0BAAAAAAAAAACAHxFwZ/CE2x9MsH0c62OSBN3ZjffttflTuc4AAAAAAAAAAABQCbgzaDnEZpWE23+FYPs418okCbqzWwLvAAAAAAAAAAAACLgzXG24fRl1oBv3ItiOoDtdUgPvF7XiknSlHQAAAAAAAAAAAOMg4M5g5ZxrMPKpTtzLedSpYDt31s9hah54ONINOqA+gFOv6cvUBN5dqwAAAAAAAAAAAAZKwJ1ByjkvkgnU93GZmmC76cj8aC1NY1PX075u0CFv0ufp7sLuAAAAAAAAAAAAAyLgzuDknGexeaUTP3WdmmD7hVZwz3V1Gpt51J5u0DHC7gAAAAAAAAAAAAMi4M6gtNOm3+rET72MOhME5QHrK9dzJ3k7At31Kewel7eFVgAAAAAAAAAAAPSTgDuDkXOexOYqmTD9I5epmdp+pRU8cq1NY7OI2tcNOuomNVPdF3HNW2oHAAAAAAAAAABAfwi4MwjtZOll1IFufKMGPeellDOtYM3rbh6bFzpBx12n5s0DC2+uAAAAAAAAAAAA6D4BdwYh57yIzYlOfKNObZ+VUlZawYbW3mFqprl7uIQ+OE+mugMAAAAAAAAAAHSagDu9l3OexeaVTnzB1Ha2vQ7nyTR3+qNOda/n7IWp7gAAAAAAAAAAAN0i4E6vtdOj3+nEF96nZmr7lVawg/V4EbWvG/REfRhoEXXmTRcAAAAAAAAAAADdIOBOb+UQmxriFqb97J9Syqk2sON1Wd8ccKIb9Mx5aoLuHg4CAAAAAAAAAADYIQF3eivnXCdFP9WJT+oU4jq1/UIr6Mj6nKUm6L6nG/TMZdQ8rqdLrQAAAAAAAAAAANg+AXd6Kedcp5T/rROfvI86LqWstIKOrdPD2CyiDnSDHhJ0BwAAAAAAAAAA2AEBd3qnDc0uk8nQ1XkpZaYNdHi95tRMcj/RDXpK0B0AAAAAAAAAAGCLBNzpnZzzVTIRunpWSlloAz1Zt7PYvNIJekzQHQAAAAAAAAAAYAsE3OmVnHOdBP185G24iZqWUq6cEfRs/Xr7AkMg6A4AAAAAAAAAALBBv2sBfZFznibh9vdRE+F2eqpEOXfpu6Oot3FPWkRNtAMAAAAAAAAAAGC9THCnF3JITTB2f8RtOI86LcEZQQ/X72lbprczNC+jzlybAQAAAAAAAAAA1kPAnV7IOZ+lcU9vPy+lzJwJ9HDt1vN2nsb9cArDd5OaB5AWWgEAAAAAAAAAAPA4Au50Xs55Gpu3I27BM6FJerpu64MpB7rBiLxPTdB9qRUAAAAAAAAAAAAPI+BOp+UQm6s03unPwu30bc1OUhNsf6objNh5aoLuRSsAAAAAAAAAAAB+ze9aQMfN0zjD7TdJuJ0eyY26Xj8k4XY4iVrFmjjVCgAAAAAAAAAAgF9jgjudlXOexubtCHe9htunpZQrZwE9WauzNN6HUeDfXKZmmrtrOgAAAAAAAAAAwD0IuNNZOedVGl9gVridPq3RaWqC7Ue6Af/qZVzb59oAAAAAAAAAAADwcwLudFLOeR6bFyPbbeF2+rI+J6kJtp/oBvyS91Ez13kAAAAAAAAAAIAfE3Cnc9rwbA3/7Y1ot4Xb6cPazLE5bWtPR+DBTHMHAAAAAAAAAAD4AQF3OifnvIzN0Yh2WbidPqzL49icRe3rBqyFae4AAAAAAAAAAADfIeBOp+Scp7F5O7LdflJKWTr6dHRNHqYm2H6kG7ARprkDAAAAAAAAAADcIeBOp+ScV2lcE6KflVIWjjwdXIs5NcH2E92AjbtMzTT3lVYAAAAAAAAAAABj97sW0BU553kSboeurMVVEm6HbalvSLiKtXesFQAAAAAAAAAAwNiZ4E4ntNOiV1F7I9nll6WUuSNPx9bhNDaLNK4HTaBr/on7w6k2AAAAAAAAAAAAYyXgTifknBdpPNOiz0spM0edDq2/SWqC7Ue6AZ3wPuo47hUrrQAAAAAAAAAAAMZGwJ2da8O1H0ayu5ellKmjTkfWXn1zwjzquW5A59xEzeKecaEVAAAAAAAAAADAmPyuBXTAYiT7+Wkir8NNF+ScT2OzSsLt0FV7Ua9jrc61AgAAAAAAAAAAGBMT3NmpnPM0Nm9HsKt1Eu9hKWXlqNOBNXcWdaAb0BuXUcdxDylaAQAAAAAAAAAADJ0J7uzafCT7eSzczi7lnCdRF6l5oES4HfrlKGoZa/hQKwAAAAAAAAAAgKETcGdn2knSRyPY1b9KKUtHnB2ts2oeP36Ieqoj0Fv1wZQacj/WCgAAAAAAAAAAYMgE3Nml+Qj28byUcuZQsws551lsVlEvdAMGYS/qdaztU60AAAAAAAAAAACG6rePHz/qAlvXTm9/O/DdfB81LcERZwfrqz5YcaAbMFj1AaqZNgAAAAAAAAAAAEMj4M5O5JyXsTka8C7epCbcfuVos8V1NUnNmxFOdANG4TLq2INUAAAAAAAAAADAkAi4s3Ujmd7+rJSycLTZ0prKsTlta09HYFS8LQQAAAAAAAAAABiU37WAHZgPfP/eCLezLTnnWWzqmwJeJOF2GKODeg2Ia8GhVgAAAAAAAAAAAENggjtbNYLp7ddRhybpsoW1VMOsZ1FHujFYl+121dbXP99axSVndY9r79fu/nv1fMptHWh9L92kZpL7lVYAAAAAAAAAAAB9JuDOVuWcl2nYgdwnpZSlI80G11ANINdg+4lu9F4NJF+1VR+KqdeO0pWAchuKr+dbDb9P2qo/e1NAt88pIXcAAAAAAAAAAKDXBNzZmnbi9LsB7+LLUsrckWaDa6ieX6dJwLiP3qfPYfZP1dc3PcR5OElN2H2amsB7rX2HuFOexem10AYAAAAAAAAAAKCPBNzZmpzzIg136vT7Usqho8yG1s5xaqa2CxH3Q52ivUxNkH05hrc6tG8WqNfAaVtHToOdE3IHAAAAAAAAAAB6ScCdrWgn/n4Y8C7+t5Ry5UizgXWzSMLCXXcbaP9UrgX/O3+nSeB914TcAQAAAAAAAACA3vmPFrAlpwPet5cCraxTOw17HvVcNzrrfWoC7RdjmND+EG1flnfO6WnUcbv1NoLteFVbL+QOAAAAAAAAAAD0iQnubFwbbFxF7Q1w966jDktwpFnTeqkPg8wHul76robaF6kJta+041Hn+WFqwu61DnRk40xyBwAAAAAAAAAAekPAnY3LOc9i82qgu/fE9GbWtE6mqQlPm2zdLULtmz/3J6kJup86/zdKyB0AAAAAAAAAAOgFAXc2Lue8SsMMLb4ppRw7wjxyfUxicxb1VDc6o76ZYVFLqH3r66FOdp+15S0G6yfkDgAAAAAAAAAAdJ6AOxvVTqV+O8Bdu4malOAo88C1kVMzsfqFbnTGeWpC7Uut6MQaqQ8QzZKHP9ZNyB0AAAAAAAAAAOg0AXc2Kue8iM3JAHftZSll7gjzwHUxS83UdhOqd++6PRYLD6x0dr1M0uep7vs6shZPPMgBAAAAAAAAAAB0lYA7G9NOqP6/Ae7adSll4gjzgDUxTU2Y+kA3du6yHotYyxda0as1NEtN0P1INx6lvoVkGuf/lVYAAAAAAAAAAABd87sWsEEz+wXNBOqoGqR+m4Tbd+086o9SylS4vX/imNVJ+9P48Ul7LHmY+vaIZVyXDrUCAAAAAAAAAADoGhPc2Zic8yo2+wPbrcs2XAn3WQP1LQanbe3pyM7UadU1zD6P9bvSjkGtsUk9rlEnuvHgtTGJdVG0AgAAAAAAAAAA6AoBdzainQr7boC79qSUsnSEuccamKUmeLuvGztTw7tntQR4B7/eJknQ/aHeR02tEQAAAAAAAAAAoCt+1wI25HSA+3Qu3M6/yTlPo+p58ioJt+/SP6mZTD0X3B2+Opk/ahY//lGv1TrySw5S84YDAAAAAAAAAACATjDBnY3IOddA6d7AduuPGqJ0dPnBOZ9TMy3cBOndquHmubU6+vU4SSa6//LaaR8SAAAAAAAAAAAA2CkT3Fm7nPNxGl64/Vxglp+c8/PY1PNDmHZ3LqP+WwO61ip3Jro/ac8N/t1JXMtOtQEAAAAAAAAAANg1E9xZu5zzRWyeDmy3TG/ne+d6fZijTm3f142duY6qofalVmCtrsWzWE8LbQAAAAAAAAAAAHZFwJ21yiE2/zew3TpvJwHD7Xl+mJqw7JFu7MxNPQaxNudawS/cn+qE8he68a9raxpr60orAAAAAAAAAACAXRBwZ61yzrPYvBrYbpnezu35XQOy86jnurFT51GnsS6LVvCAdTyJzSJ5QOVn6psRDq0xAAAAAAAAAABgF37XAtbseGD7cy7cTpVzrpOf67kg3L47l1H/rW9UELzloeo1PWoaP/6ZmmnlfGs/6kIbAAAAAAAAAACAXTDBnbVoJ1sfRr0d2K6Z3u7cnqZm2vO+buxMnSZdJ7YL3LKJe9dZ1IlufNc/se5OtQEAAAAAAAAAANgmAXceJOdcw+zT1ITa63aI4d/Ldsov4zzHJ6kJth/pxs7U6do1fHxmYjsbXu/T5EGWH3kWy2+hDQAAAAAAAAAAwLYIuHMvdwLtt7U3gt1+UkpZOvqjO9frROd51HPd2Knzehy8QYEtr/1F1FPd+EJ90GQaa/FKKwAAAAAAAAAAgG0QcOe72qDfcWrC7HW7N7IWXJdSJs6E0Z33s9RMDN/TjZ15H3Xq4RJ2eB2o97yF68A363LqTQoAAAAAAAAAAMA2CLjzP+2U9uO2DkbejmellIWzYjTn/jQ1wfYD3diZOiX61LqjI9eESWpC7ke68T/nsT5n2gAAAAAAAAAAAGyagPvItZNqp6kJte/ryCc1aDsxqXYU5/8kNcH2p7qxUy/rcbDm6OA1Yh6bFzrxPx7+AgAAAAAAAAAANk7AfYTaUPtt7enIN/4ppZxqw6DXQI5NPcaCq7t1GTWL9bbSCjp8vZjG5sL98pP6ANihNQsAAAAAAAAAAGySgPtI5JwPYzNLJrXfxx/Ce4NeC3UdzK2DnbpOTbB9qRX05LoxSU3I/UA30vtYu4faAAAAAAAAAAAAbIqA+4C1gbwaaK+TqoV570dwb7jrYZqaYPuRbuxMnf48jzV2phX09DqyiM2JTqSXsY7n2gAAAAAAAAAAAGyCgPsA5ZxrqH0W9VQ3ftmzUspCGwa1HiapCbYLpe7WP6kJtxetoOfXlHp/faUT6Ym3MAAAAAAAAAAAAJsg4D4QbYh31pZp7Q/3/wRwB7Uu5ql5g8GebuzMZT0GsayutIIBXVumsbkY+bXlOurQPRMAAAAAAAAAAFg3Afeea0N2NcBrWvvjnZdSZtowiHVR32JwljzssUs1/FqD7RdawUCvM4epCbmP+TrzT6zxU2cDAAAAAAAAAACwTgLuPZVznsVmngR41+lPYdzer4saOK3B9iPd2JmbegxiLc21ghFcc3JsllEHI27Dk1jvS2cDAAAAAAAAAACwLgLuPdIG6U7b2tORtboppWRt6PXaqMH2E93YqfOoeayllVYwsuvPIo33TSr1bQ2Hse6LswEAAAAAAAAAAFiH37Wg+3LOk6ga3l1FvUjC7Ztgcnt/18dpuzaE23fnMjVTnGfC7YxNaRyn5gGPMapvkpk7EwAAAAAAAAAAgHUxwb3DarA9NaExwd3N+7OUIuTer/UxTc3U5H3d2JmbqNNYOwutgE/XpcWI79n1IZelswAAAAAAAAAAAHgsAfcOEmzfuptSStaGXq2PRdSRbuzUy6izOrpaK+CLa9RipPfv93E5OHQGAAAAAAAAAAAAj/W7FnRHDe62wbgPSbh9m0xu78f6qM7a9SHcvjtvov4opcyF2+FbsSxmsXk2wl0/iGv03BkAAAAAAAAAAAA8lgnuHVBTu7E5jXqhGzvxZylFyL3ba6Suj3nUnm7szHXULNbKUivgXtetWWxejWy3b6IO4zqxcgYAAAAAAAAAAAAPJeC+Y+200xreFdzdnf9nEnVn18c0NnVq+4Fu7EwNrNZp7WdaAb98DZul8YXc38T14tjRBwAAAAAAAAAAHkrAfUfa0Ns8al83duqylDLVhs6tj0lqgu1PdWOn/klNuN0DIPDw61m9lj0f2W4/8bYHAAAAAAAAAADgof6jBdvVTqSeRx3pRidcaEGn1kdOzRsNXujGTl1GzUopK62Ax4l1dNpe205GtNuLqImjDwAAAAAAAAAAPMTvWrAdubGIH98m4fYuWWpBZ9bILDarJNy+S9dRf9a3Ggi3w/rEeqrXt/MR7fJ+XNPnjjwAAAAAAAAAAPAQv338+FEXNiznXCdSz6P2dKNTbkopWRt2vj6myVsNdr4Wos5iPcy1AjZ6vVuk8Uxyr9eVSVxXiiMPAAAAAAAAAAD8iv9owebknA9js4g60I1OWmrBTtfHJDXB9hPd2Kk6VfpUCBW2oj7wdjiSzwX1ob6zqJnDDgAAAAAAAAAA/IrftWD9cqOGut4l4fYuW2rBztbHPH68SsLtu3QZ9aSUMhNuh+1o19o06v1IdvmkfdgPAAAAAAAAAADg3gTc1yznPE1NcPe5bnTeUgu2vj6O2/XxIjXTfdm+66hnpZRplDUAW9aG3GdRNyPZ5TNHHQAAAAAAAAAA+BW/ffz4URfWoI6kjs0i6qlu9MJNKSVrw9bWR53gW0OOR7qxUy/rcTCxHTpzXXw3kt194oEaAAAAAAAAAADgvkxwX4N2KvUqCbf3yZUWbGVtVIvUhDiF23fnTdQfpZS5cDt0QyzFeh96NpLdXTjiAAAAAAAAAADAfQm4P0Ib3q1TqV9H7elIryy1YOPrY56aBz9OdGNn3qdmcvJx1Eo7oFtiXS5icz6CXd2Pe8LMEQcAAAAAAAAAAO7jt48fP+rCA+ScD2NzEbWvG71UQ79LbdjI2qhvNDizNnbqJuq0Dc8C3b9u1vvR0N9ycR3XpImjDQAAAAAAAAAA/BsT3B+gnUz9Lgnw9tmVFqx9XUzakOZra2On/omaCLdDr9QHg24Gvo+muAMAAAAAAAAAAPdigvsvqAHe2CzS8KesDp0psutdFzk286jnurFTl1GzOLdXWgG9vJbWN8O8G/hu1hB/fQCnOOIAAAAAAAAAAMCPmOB+TznnOl21Tv0Wbu+/lRasbV2ctv0Ubt+d66gnpZSpcDv0V6zf+hnjr4Hv5l7UqaMNAAAAAAAAAAD8jID7PeScz2LzOjXBLPpvqQWPXhPTqFX8+Ld1sTN1EvLL+jaCKOc0DECs5fp543LguyngDgAAAAAAAAAA/JSA+0/kxjKZTj00V1rw4DUxibqIH99G7evIzpxH1WD7XCtgcOobY24GvH97cR+ZOcwAAAAAAAAAAMCPCLj/QM75MDarqCPdGJyiBb+8Hqp5/Pgh6qmO7Eyd7PzfUsosynkMQ7xBNWv7eOC7OXekAQAAAAAAAACAHxFw/452sui7qD3dGJ5SylIXfnk9rKJe6MbOXEc9i3N3GuUNBDCO+9Q/A97FfVPcAQAAAAAAAACAH/nt48ePunBHznkRmxOdGKzrUspEG+61FqaxOYs60I2duWmPwZmJ7TC6a3COTX2gZd/9GAAAAAAAAAAAGBMT3Fu5UYNkwu3DttKCf10Lk/ZBj7dJuH2X3kQdllLmwu0wPu26nw14F+sU92NHGgAAAAAAAAAA+JqAe/oU6D1MzZRUYd7hW2nBT9fCrF0LHvTYnfdRT0opx1HOVxixuAYsY/PPgHfx1FEGAAAAAAAAAAC+NvqAe855Gptl1L7TYRRWWvDddZDbqe2vovZ0ZCduop6VUg7bUCtANY+6Hui+HbUPGQIAAAAAAAAAAPzPqAPu7bTqt0mgd0xWWvDNOsipecjD1PbdeRk1KaUstAK4K64LJTazAe+iKe4AAAAAAAAAAMAXRhtwzznPUzOtmnFZacEX6+A23H6gGztxGfVHKWXehlgBvtG+1eF8oLt3EreiiaMMAAAAAAAAAADcGmXAPee8iM0Lh3+UhIi/tEzC7btwHfWklDKNWmkHcA910vnNQPdt5vACAAAAAAAAAAC3Rhdwb8PtJw79OJVSrnThf2vhLAm3b1sNp/4V5+GkncgMcN/7V31Aaz7Q3Zs5wgAAAAAAAAAAwK3fPn78OIodzSE2F1FHDvt4lVJ+04VP6+E4Nq91YqvOo07bkCrAQ6/f9UGtIT6c9CwujwtHGBjptf2wbr76t6f3+X+NOvzJf75q69987//uyudWAAAAAAAAAHZlFAH3Nty+TKZVj911nZw99ia062EVteeU2IrL1ATbvT0AWMc1fBqbt0O8VsZ1cuoIAwO5VtfvHLffO26vbXfD6PU/2+/hZ9pby3a7ait5OxEAAAAAAAAA6zT4gLtwO3cIzzVrYh6bF06HjbtOTbD9QiuANV/H63Xl6QB37Y+4Zq4cYaAn3zFrWH3S1u0E9vrz/sjb8z6qTn6/arf1u7gAPAAAAAAAAAC/ZNABd+F2vjL6gHs7TfKDU2GjbqLOasX5VrRjdGusXmNq3YbefnT/qVNQb0NfSxP+cS3/5GWshbkjDHToent7Pz9Mn0PsRzrzYPUB0FVqwu+32yufmQEAAAAAAAD42mAD7sLtfIeAu+ntm3YeNTeBeHTrql5XZlHHUXsP/K+pga86lXsh7M49z7tFbE4GtlvXcf5PHF1gh/fz2yB7vRYJsm9PfUD0qv3+fht693kaAAAAAAAAYMQGGXAXbucH/imlnI65AbE06nTEPafC2tVp3DXYvtSKUa2nGmifb+Be43zivp91VgO8pv8Z5/6FIwxs+BpaQ+zT9DnQ7ntj93wdel+a9A4AAAAAAAAwHv8Z2g4Jt/MTow5EtGFc4fb1qsGb01LKQitGtZZqEO4sbW6ya/3vfRv/O2/a82ul63xzQwtxjtTzcGhv5aj3KgF3YN337mlqAu3TZDJ7X+y1x+roznG8br/r17ry1hsAAAAAAACA4RrUBHfh9o2qYYL9nu/Dy1LKfKwHMJbHIjYnTuX1nU9RZyZJjmoN1XvM2Q7WkXONn52TqzSsh5fqg0MT5zvwyOvjNAm0j8FN+hx4v/BQIAAAAAAAAMBwDCbgLty+MedRi1LKMlrc95Nl7AH3Ver/QwpdYKr2ONdPvXacpt0Fib0tgJ+dm0Ob4v7MuQ784rWwvl1l2tZTHRmt2wnv9U0gSw9LAQAAAAAAAPTXkALu9fXkwu3rUYMBdUrx4m4oQMC91+ujPgDyf07tR6+LWX3YQytGtXam9VqYuvNwyGXU3HnIV9f3VRrWFPc3cY4fO7rAv1z/6nWi3qePk4c4+fHnphp2N90dAAAAAOBfDPTvjrty3fbyZ65KKadaBV9ch+ZpeAP+gEf4z0Aubosk3L4OgpPDdagFD3bTroszrRjVh+ZJaoLtRx37R6v/PG/jn++8PS9Xjta41QfR4nw4G9iXvKf1F2gm7wJf3ZvrL9aP25omv2Dnfp+bav0dp0/9Y0INu9eHuK+0BgAAAADgG/X37373vh776d+H8xzVMK+/iQLAj/3e9x1ow+0nDuWj1KDkH/GZaSrcPlgC7g/zT9REuH08cqMe7w+pe+H2u+p976p9ehUWA9wnE9yB2/vyLKoGk+vbiF5FPU1+wc6vq39IeB71Ls6nVf28F+U7EgAAAADAZ/4+p+cA0Cm9Dri3wT7h9oepU6lreLcG22emAA9e1oJfUt9m8N/6OihPy45okeRcX/9Vr4XPe/KPXMN9L9qQli++I9bew88HtlvOaRj3Pfn4O6F2WBdhdwAAAACAO9q3qPpd/PadagEA/FhvA+51kl9sXjiEv6wG21+mZir1qWA7fOE66s/2bQZX2jGaL+vTqHq8/079nAhbQ1qvYx+WwlmjNh/Y/jxtf5EGjOd+fFjfzhVVHy58nfwine19jroNu9e345y6/wAAAAAAIzTTgp04yDlPtAEAvq+XAfcaRkzNJD/u726wfW4qNXy7PmJZ1PVxoR3jUL8ottNh39YvjgPYpaPUhLPOBLPGp31g7c3AdssUdxj+vTi3geJ6DXuXmrdz7ekMO1I/D9YHHv+vfkb0hhwAAAAAYERmWrAzfhcNAD/Qu4B7O51WAPXXnEcdCrbDz9eHVoxDG6arx/tDGuZ02DqFdFUDg4726JwNbH/8MgeGey+ub09ZxI//l5pA8b6u0DH1M2J9Q079TDU3QQcAAAAAGKr2958HOrEz/q4PAD/Qq4B7O5G2httN9bufy6g/SimzdrIr8OX6eGJ9jO7L+Sw29Xi/GPiu1vvk320oa+rIj0Ncy5axuR7QLjl3YVj34LvT2uvbU050hR7Ybz83fqgPZfhcBQAAAAAM0EwLdmq/HfYKAHylbxPcl8l0v/uo4bYa3J0K7sJ318ezdn0stWMc2kmx9Xi/SuN6SKreM9/WfTd5dDTmA9qXvThvTXGH/t+DJ1H1DRP1e4lp7fTZSfu56qp9aBIAAAAAYAhmWuAYAEAX9Sbg3r7C3itxfu4m6q9SykRwF77rZdRhrI+FVoxDG6qrx7tOij0acSvqvtfJo/P2bSgM10X7eWAopg4p9PYePG3vwR+inidv4WI46u8lXsX5XXy2AgAAAAD6rJ0cbjDN7hn6BQDf0YuAe32VffIK+3/zJqoG28+0Ar67Pv6I9TGPKtoxmi/j89hcuX984UXUytTR4WqvcRcD2iW/zIH+3X9v35ry1j2Ygdu789nqzNtyAAAAAIAemmlBJ+x7szUAfKvzAfcakEjNq+z5vuuoJ6WUY8Fd+Mb7O+tjpR3jUL/4RdXjXQNHpsV+q/akTh29au+xDM+QHnbbFxiE3tx/Z3eC7Uc6wsg+W9W3FNS35SzctwAAAACAHplpQWcIuAPAVzodcG//MHzhMP3QP1GHpZSlVsAXbqL+irVhfYxIfX1aG6x7nbxG7T4Oot4KYg1PXPfqmwuuB7RLfpkD3b7/3j5Y9ioJtkN9a4GgOwAAAADQee3EcAPjusPfRAHgK12f4H7hw9R31dDaf0spp6a2wzfqgx+TWBpnWjGaL97VIn58lwTrHqIGseo093ltpHYMxpCugVOHEzp5/516sAx++vnqNuju8xUAAAAA0EUC1d2yV9+Wqw0A8FlnA+5x067BrAOH6Bu3U9uvtAK+cBn1hwc/xiXuFaexWaUmRMQjvixHvUhN0N0vMoZhSG/AmTqc0Kl7722w/W3yYBn8m/oZdeVBQgAAAACgS9rfV/q7cPc4JgBwRycD7m247rnD84WbqCfCu/CN+kaDP2NZTKNW2jGaL9w1XFeP99/Jmz7WqU7gfV2Di1GH2tFf7fXwciC7s+d8hE7ceyftG1ME2+EX72OpeZBw1T6cCQAAAACwazWX5e/s3fPUsBQA+KxzAfcanIjNwqH5wpuoSSllqRXwP/Whj5exLurauNCOcWjDdfVaWMN1+zqyMTW4+K4GGX2B7rUhfZ6aOpyws3tvNY8fPyRvTIHHqH8s+rs+pOmNOQAAAADAjvkdZXfNtAAAGl2c4F6Dqp4S/OyvUsqxqe3whfPUPPQx14px+CpcZ2rs9tQg46rtPf0zpId/pg4n7OT+O6v3gdRMnwbW4+4bcybaAQAAAABsU/t7yac60VkzLQCARqcC7vEh6iw2Bw7LJ9dR/y2lnGkF/M9luy5mHvoY1Rfs+gVulYTrdqU+dPainTY61Y7+aK+TbwayO8492O699zDqKn58lTx8DJtSH9r8UB8k9MYcAAAAAGCLTG/vtgPDUQCg0ZmAexuae+6QfFJDvIellCutgE/qAx/PYk1MrYvxqPcF4bpOqdNG35o22jtDmeK+VwO3Dids/N6b24eO3yUPHsO21Ic4r2Lt+aMSAAAAALANMy1wjACgDzoRcG+nlV04HJ+8bEO8plNDSjd1TaTmgY+FdoxDDU9H1XvC2yRc10W300bPTBvtheWA9mXqcMJG7781XLtKHjqGXagPEr6un4E9SAgAAAAAbEr7+0d/g+++mRYAQHcmuC+S6bw1yFsnVM+dlvDJm9QE2+ce+BjNl+mqXgPr1PanOtJ5NQC5imPmy3WHxeVzFZv3A9kdE9xhc/ff+mDZa9/JYOfqZ+A6zf1UKwAAAACADfC7x37Y93ZrAOhAwL2dFDj2IGMNt09NqIZPahDzSayH4zaYyQi0IekabH+RhOv6pB6rV3H8ahBrqh2dNZS35PglDqz//lt/kb3yfQw69/nq71ifS9PcAQAAAIA1O9aC3phpAQBjt9OAex0VmJrp7WNWw7yTUsqV05GRu32LQZ3avtSOcaih6BreiR9fRe3rSG/V19i9rROABbE6aSgB94P2syOwhu9h7dT2v5MHy6CrjpJp7gAAAADAmrQTwf1Nvj9mWgDA2O16gvsijTtQ8SY1k9uLUxHSlbcYjOrLc1WP99vUhHcYhjoBuAax5oLI3dE+RHczkN0xxR0efw+u01lWydR26IO709x9tgIAAAAAHsMwjX7Za/+mAwCjtbOAe3sTHnOo4ryUcizcDoxNDT+nJlh3ohvD/KId9SI1QfeZdnTGUKa4Tx1KePD99/bhstfJ1Hbom/pA6MofMwAAAACAR/D7RccMAHplJwH3dvLYYsR9r+H2mdMPGJMayIlapSb8LFg3fPX1dq/aiaOmbu/eciD7MXEo4UH34Hodrm9z8HAZ9Ff9/Pw61vOZae4AAAAAwK9oh2f4G33/HPt9MABjtqsJ7mcj/uD0TLgdGNmX5UkNOadmYuy+joxOnTj6rk4N9uV7p5YD2Q8PS8Cv34frK0ffuQfDYDyv93UPEAIAAAAAv8Ak8H7ac+wAGLOtB9xzztM03smBNdy+cNoBY5Ab9YGmD6kJOTNu9d6/inNirhXbF58/VrG5HsCuHDia8Ev34Yv48W/dgMGp98Macp9pBQAAAADwM+0QMm947S8BdwBGaxcT3Bcj7bVwOzCmL8l1WuwqNRMm4VZ9wvxFnB+r9jV4bNdyINcXE2vhfuukrvmnugGD/lz1qn2gFAAAAADgR/xdtt+e5pwn2gDAGG014N5Obd0fYZ+F24FRqG/pqOHl1EyL3dMRfqB+Fngd58rSl/GtWg5kPwTc4ef34lm73r3xAMbheaz7q3YKEwAAAADA1wTcHUMA6KWtBdzbANvpCHss3A4MXr3GR13Ej2/TOB9k4mGOoj7UyaNCWVtxNZD9mDiU8MP7cZ3k/Cp5yAzGpj7QsvKWEwAAAADgrjar5W2v/TfTAgDGaJsT3GvYYmxBC+F2YOhfiHP7do4PvhjzCM9TE8o61YrNic8kNeB+M4BdEd6D79+PL9rrKTBO9fct79q3OAAAAAAAVCZ/D8OBN6MDMEZbCbjHTXaaxhd8FG4HBq0Nz6yiXugGa1BDWX/HeXXVfm5gM4YwxX3iMMIX9+O6JpbJg2ZA41X7NgcAAAAAgJkWDIZhcQCMzrYmuC9G1teXwu3AUNXwcdQyfnyVxvdmDjbvIOptnUTsKfSNWA7kHAGae3J9o8GVdQF85XlcHxb11Q5aAQAAAADj1P6t1d8PhsM0fgBGZ+MB9/jAVJ8g2x9RT89LKXOnFjDEL8A1KBM/vo060hE2rE4i/hDn3Fw4a62GMME9efgB/vcmlWXysBnwfSf1GuFzFAAAAACMlonfw7LfDj4CgNHYaMC9/UPqfET9rOH2mdMKGJLcqNfyGow90RG27EU999ogJ493NZD9mDiUjPzeXK+J3qQC/Js6nWnpwTAAAAAAGCUTv4fHQwsAjMqmJ7jP03hCF+99kACGJudcv/TWQOyLJETH7tQ3wbyK87EGtKba8XCllNVAdmXiaDLie3P9jvVKJ4B7qiH3K5N9AAAAAGA82r+p7uvE4HhoAYBR2VjAvZ0Q9nwkfbyOmpbglAIG8oX3sIaJ48fXvvjSIUdRb+PcXLRvieFhLgewDxOHkZHenxepeegM4FfUB1WXQu4AAAAAMBozLRikvXZIIQCMwiYnuM9H0sObqGPhdmAIcmMRP75LTZgYuugkatVOMebXrQawDxOHkRHeoxft9Q/gIYTcAQAAAGA8hKAdWwDovY0E3NtX3YwlfFHD7VdOJaDv4tp9mprgq/AcfVBDWi/ivF15Sv2XrQawDxOHkZHdoxfuz8CaPj/VkPtMKwAAAABgmNq/ne7pxGCdeNs5AGOxqQnu85H0769SytJpBPT8C+60hoTjx7990aWH9qNexzlsIun9DeGzi1/aMKb79CIJtwPrUz/vvxJyBwAAAIDBmmnB4BkAB8AorD3g3k5vPxpB785LKWdOIaCv4no9qaHg+PFtakLCPNzLqD/a7Y127ET97PEuzukzT6z/qzKAfThwGBnJvXqRhNuBzRByBwAAAICBaf9O+lQnBm+mBQCMwSYmuM9H0Lf3UadOH6CvX2prCDh+/JDG8UDSJl1G/VFKmUet6jb+dZ0ifq41O/M8ahXnuPv0D8R5eqUL0Iv79SIJtwObJeQOAAAAAMNisvc4HNWBhtoAwNCtNeA+kuntdTLvrASnD9A3bYBllZoQMA93HfUkbgXTGmy/+x+0Qffa5yepCcCzfXtRf8f5vmo/m/D9zzN9v54dOowM+H69SMLtwHa88nkJAAAAAAZjpgWj4WEGAAZv3RPc52P4MGjyKdA3NbQSVa9dr1IT/uVhaij4r7gPTKKWP/s/rP95DcDHj89SE4hn+/aj3sa5f+EJ9m8M4bNMdhgZ6D17kYTbge268OAYAAAAAPRb+/dQb3Afj5kWADB0awu4j2R6+z+llAunDdCnL7E13Bs/vo060JHH3QOiarD97Ff+n+L/fhGbGhh6qYU78zTqQ6yFeZRQNNDl+3a9Zwi3A9tWH4BdCrkDAAAAQK+Z6D0uB36nC8DQrXOC+3zgvXqfxjGhHhiA3KjXrA+pCffycJdR/y2lnEaVh/wXlEY9Hn9EvdHSnXkRtYq1MdOKtBzAPviFDUO7d58m4XZgd4TcAQAAAKDfZlrgmAPAkKwl4D6S6e2zhwYbAbapDe9epSbMy8NdR/0Zl/5p1NU6/gvjv2cVVZ+cf5KaB6fYvhreehXrZNl+fqHHlzstYGD37r91AujA56SFN94AAAAAQL+0gyu80X18TO0HYNDWNcH9dOB9+mtd4UaADX5pndbQbvz4KmpfRx7sJuplXPcnUReb+B+I/95lVP0lw7P2f4/tqw/mvY01U0NckxHu/8opAJ25fx+3926ALqh/BFsKuQMAAABAr8y0YJT2DXUDYMgeHXBvQ2FPB9yjy1LKmVMF6KrcWMSPb9Pw36axaedRNdg+38b/WPzv1ONW76P/aP3OnERdxRqaj2y/Vw49dOIeXh92WugE0DEHrk0AAAAA0CsmeY/XTAsAGKp1THCfD7g/Nz4IAF3WhnJXqQnp8nCXUU9KKbOoss3/4dKob0L5o/3nYPv2ol7Eelq1k5Tph4kW0PN7eJ2OvGyvQQBd87R9iBYAAAAA6LB2grc3vI+Xv28DMFiPCri3oYwhhyrnpZSV0wTo4JfU4xrGjR9fJMG4x7iOehbX+mnUcpf/IPV+U/854scn7T8X21d/8fM61taynao8ZGUA+zBxytLj+7hwO9AHJ3G5mmkDAAAAAHTaTAtGbc8QNwCG6rET3E8H3JvLUsqZUwTokhq6reHb+PF18hT2Y9Q3dLyMOoxr/aJL/2A1aB81iR//av852b6jqHd1amkbQh2cOMeuHGbYqfo940AbgB541U6AAgAAAAC6SbiZmRYAMEQC7m7+QA/kRg3DvUtN+JaHe5OaYHt9S0dnp1i3D1lNos4dsp2pb6lZxdo71Qpgjff0eRr2W7CA4bkYwdttAAAAAKB32snd3hbL06EObgNg3P7ziA9JswF/SHpZSlk5PYCOfCmt4dq5L6aP9j7qtE5I78s/cBvAn7UPN9TycMP21XX3d7sOZ306f4BO3tPrL5pf6AT3/Nxy+yDe3XvPqq2HmN49HaNuA8uT5M1A/Pvnofpmm2mXHxAFAAAA+P/s3f1120b2MGCszv4v/ioQXYGcCkRXIKcC0RVYrsB0BZErMF1B5ApMVxCpAtMVvHQF+84NRxvZK0v8AAhg8DznzIr5WEe8AAYzwJ07MEBTISCLd1BzYQCgJP/e4/9bajXTb1HV16kBtC0SSPIERMLRfr5X68T23k7m0u9+k35McmLklXOiFRHzz+kYfKnWie5LIQG2vK8/rzxY5N68s1onqi/yXy/yPX/R4H9z8cQ5epf0fvdznJsFdoTTPA6dCgUAAAAAtC8/0z0XCbLI45sLAwAl2SnBPSdnnBYak6nTAmh5Ijqu1skjJqP7exexLKXSZPoa1+nHdTpHZnmCqqr/4UWS39d0DIo6t4DG7+3xkHmu3x6sWBx1k9uyq7uB5Hva3e92/cD4NNqkWie/R7Pgbngu0rlwk06VK6EAAAAAgNa9FALuOY1n+Qq1AVCSXSu4l1q9/VNXkw2A8uXkt+hf34rG3oqush07jaTTJRKLol043K2I6/QyHYc+7w5wW5W7YBG65sr1NhhRmT3mlJHMvsi7sJQw9ogx1bK6VwX+XsX3SW4qvQ/DH+nQF3NuAwAAAECPXQoBP7nbER4AirB1gnt+iV3qKkCDP6AVqWud5omGyq77iaSy6RAWK+Uqq9N07szTz1klqawNcb1+iCT3GEP08LxTfR4Od4+3GKlc36t10ndUPF8MqTLKvYrvi3vn+6RaJ7vHMwOLOsoVOwo9t5MNAAAAALQj77rpGSw/i/fWEtwBKMYuFdzjRXWJCZjvbNMCtDDxnFSqutYhkstmqR8f3GQtJ1VPcgLlLLUTp8PBxfX7OR2Dj/k8NJ4A7u7zzysPEksUO2DE/XeuivWD45Jos3uL4ycFP0cYqhhvzitbIAMAAABAWzyb4yEnuTiJdxf01by6V1iJxn0Wgp18zOcqB7BLgnuJVc4jMVLiCXAweUX1rFLRtQ7vq3VS8aArSKavP0/n1XW+T0eTRHZ4cT2/TMchxhRXqpoCeWKrPy7DbT6e1xYybTw2WeWYzfP4N1643DXXRf+dxy42Q1xgCgAAAAAdcCkE/MLU+UFf5XdwS5E4jHWtKnawzEW/OICjLU/qcVVmleGZJDTgQIODMEsfY8Ws5Pb9fEntt9R9X+rD/zvYD3F+RcXgTyLSikjYexvXeE7kA4Z7z7dDS/99q9YL6WK8ERVPriS37zVOicUB09TiadkrY5UizPJOFQAAAADAgeRncnb15le8owagGEdb/vslrvD6puIYcKCJZkwkIrE9kl9Vrdyj307t99R3T2yt9bBIvkstzrcX1briLIcXD5X+TNf9QuIXDPKeP0k/XotEb33KY41xXkhnvFH/WGWexyrPUnuTx3f0T8xp5sIAAAAAAAc1FQIecaIQGwCl2DbBvcQb4MxpADQpklsjyTV9/LOyknof31N7l5PNroXjabElTlScrdZVUr+LSCvOUvsr9QHzUff2d7LfFDRz349ry32qn+OMqNb+LBKvjTUONlZZ5sr44/SXv1frHXrol9O8QxUAAAAAcBiSl3GOADAIGye459VdpSVmRvX2udMAaMJoLfqYv6p1kiu7+5ja89Rnz4Rie/leN07tnWi05iK1ZccSwE4dFmhE9Ll2aunRnLBaLwS7q9a+FJLWxivXsUNPta7q/lFEeuVt3rkCAAAAAGhQoblb1E+COwBF2KaCu+rtAJtPLKN/WVbrpFZ2F1U8X6xWq6mEs/2s1uK8fFapjtqWSHiNBLClJDAo9v4fc6ZzkeiFvxPb884w87hJCklnxixR1X1aSXTvmy7uVgMAAAAApZG4zCaOR6PRVBgA6LshJ7ir3g7ULpJWI3k1fXxbqd66Vx9drZPOJqkthKM+OWlskj6+yHHm8KKqwufUVyxSGwsHFDMGiMRO84v+jDHG5oO9GLNMK4nufRrfzIQBAAAAABolwR3nCgCDsVGCe65EWFqi5szhB+oSSaqRrJo+fq5sCbavd6k9l3TWrFg4EMl96eOb1L6LSCvOUvua+o4rFU+hCFeVxW1dFvc6ie39HLNIdO+P12lI81wYAAAAAKB+uSK39xBs6tw7aAD6btMK7qq3Azw8iQyR0Pa1WiersrtPqT1L/fMstZVwHEYKdZy/49Tei0ZrXqe2tE0c9Ho8MEk/LkSis2LxnMT2/o9Z7hLdYxeaLyLSWa4zAAAAAGiGitxsayoEAPTZUBPcZw49sK/RaHSZfiyrdXIqu7tN7cVqtXoZiUvCcXirtTifozKqhLF2RLWFD6lfucmJsk33XyVUV9Vf0JXxQFS/mItEJ8U9zeK58sYtsQtN3CtfVXah6aLT1C3OhAEAAAAA6pPfRZyLBFuaCgEAffZkgnsaI0Vye0lb3HxXuQ/Yc/I4iSTU9PGPyhZge/XHqb1KffLzSFQSjvblyqiT9PH31L6JSCtOU/uc+pjr1MZNdmUFxGrpdKEjYoHQiTB0bozxe9zTLJ4retwS8/q4V9qFpoP9YsPjGAAAAAAYGtXb2cWpZ7UA9NkmFdxLGyRdOezALmLgH0mn6ePnap2Eyu4iEWlswVE3peNynVpMdN9VKqO2JSowRDX3Wa7IAHR0bJB+vBWJTo4xroViEGOWu11oXlQW53VJLAL27AUAAAAA6nMpBOxoKgQA9JUEd4AnjNZm6ePXyrZf+/qS2rNIRIpsJOHotnSI4rwfp/ZRNFoRyWGROBuJ7tOa/+yx8EIt5kLQGXdV240xhjlmWaQfzyvV3LvkPHa+EgYAAAAA2E8utqMAH7uaCgEAfXX0xCApXhAfF/R9P0p2ALacLMZg/6ZSnXVfUVHzReqCJ6kthaM/cmXUuA5+q9YLFDi8k9Q+pP5okcdmdRgXEBd9CW2PEWIh8JlIdMKnStV2Y5Yfq7nbgaYb5kIAAAAAAHt7KQSP+iQEjzqp8R0zABzUUxXcp4V9X9XbgY1EtcFIJk0fP1Tr5FJ2E8lFb1ar1ThX1qSn0vG7iQUK6eOrar1ggcOLRNq/Ut80j20lhEOCO+YW/C3GGS8tZObemCXGnOPKwrwuOMk7YQEAAAAAu7sUgkfNU7sVhkdNhQCAPnoqwX1S0He9jeQ8hxx4TGzvFcmj6ePnSlXWfX2s1tVUJQAWJB3PuD5ihfe7SnXUtlykttwzYWwijLDXeCGuPwvg2hWLrX4zzuAX45VVXpj3TjRad2lhHgAAAADsJlfe9j7i177n3V3nQvGoqRAA0EdHjwySxunHaUHfVeID8NTkcJZ+xEKYC9HYS1TLjISzqWqqZcpJY3G9xAOVjyLSiuPU3qZ+KxLdh7ot4dJpQEvjhUjUVC2l/bHGcwuY2WDMEuOV3yuL8toes3geAwAAAAC7mQrBo65/+snDjgf8ThmAHnusgvukoO/53WAG+JUYyEeSaPr4tlonYLC7qKY6k3A2DOk4L2MhQ/r4orLtW1uiYsOfqQ9b5MWJm3pewvnn8NOSK+OFVn2MytwW0bHF/SKeBUyMVVp1seU4BQAAAABYk5T8uL9zwfJ7Q8+AnUsAFOZoIDe2awkQwM9iO69ICk0f/6xs61WXiOPnFNdrSSzDkW6xi9QiYfpVpUJqW85S+5quu6tcXfopknNht7FD3Nvs9NKeV3lhFWw7VonFl5PKC442zYUAAAAAADaXK27LY3jc4t5nhU8fd7Hhe2QA6IyhVHCfO9TAvYlgiOqrf1XrpFDqd16tk21nJknDsVqt4n47Tu2daLTmdWrLdNldPtIHPi/ge35xqGnJTAhaEYunXuX7DOw6TlnlBXkfRaMVZ2kMMhEGAAAAANiYituP+/RTsVMJ7s4pAArzYIJ7TnwqpbLnt6gs61ADuX+LpM9ltU4CpXlvq3Wy7VQohiEnj83Sx2epfRKRVsQY7o903d38IpFsLESw0xgirifV2w8vktsnktupcawS41JJ7u2YCQEAAAAAPC0XkZOM/LgfEtrzTp7fhOVRzikAeuVXFdwnpQ5ogMFOACepLdPHP6pyFvD0RcT7Q4r/QtXG4VitVsvUYoL8IrVbEWnFaWqf03V3ndr43t8voYL7jcNLC2ZCcHB3ye2ueeoep0wrSe5tUMUdAAAAADYT71nlNTzuesO/xz/Of3pvDACdNoQE9yuHGYYrBueRWJ0+fk7tRERadVatk23nJk3DEbuopBYJ1W+qdaIih3ee2td03V3lag8lXH8rh5UDjycm+T7G4Uhup+kxyjT9eCUSBzcTAgAAAAB4kkrbj/sU24o/8PfnQuPcAqAcpSe430YFWYcZhme0Nksfv1YS0rrmIrWbfHwYiHQ/jgVn49Tei0ZrXqe2LGScJ+GVQ3PPOizJ7RxqfDKvJLkfmiruAAAAAPCIXLDqXCQetXjob+b3Ct+E51FTIQCgL44eGChFldVStrmZO8QwyAlfDMiXqb0Vjc6K+8zbdKyWqVkhPBCrtcv08VlqX0SktWuvhN0sVHDnkOOKSWWx3CFJbufQ45N4bvBRJA5qJgQAAAAA8EtTIXjS9SP/bCE8jzodjUZjYQCgDx6q4D4p6PsZtMCARAJaapEM9aEqZ6FO6SLR9s903BZ5gRUDELurpBbjjReVFfTsRuIrhzQTgoOR3E5bY5NpJcn9kFRxBwAAAIBfmwrBo27jffMj//xaiJ50KQQA9MFDCe6lJBh+kxgBwxCrS1Obp4+fUzsVkV6Kyrh/xXHMW64xAOk+vUhtnD6+q9ZJjbDpuaOCO4caYzyvVG8/JMnttHlvmVaS3A9pJgQAAAAA8KNcWVvOw+Pmj/3D1WoVCe7ePT/upRAA0AclV3C3Ig/Kn9yFWbWu5HshIkWI47hMx9WK4QFZrVZxHY8rSWVs5osQcEDuR4fzSnI7HRiTTNOPW5E4CFXcAQAAAOB/TYXgSdc1/TtDdpKLPAFAp/2Q4J6r5p4MaEAD9FTqrmJiF0lQb1M7FpGixPH8Ix3jpaSX4VitxXX9WyWBmccthYADjTXGlQV0h/Iu3QPmwkBHxPhTkvthWEQEAAAAAD+aCsGjbler1XKDf0/O2NM8nwWg836u4F7K6qzvaUCzcHihPLGKNLW4vj9U5SzI4WFxfD/H8c5JhgxAVO9NbZI+/p7aNxHhAUsh4EBmQnAQH/NOHtCVsciqWr9EsoVt886N8wEAAABgLVfUlgPxuE0T1xdC9aSXQgBA1/2c4D4p5HsZqEB5k7kwTx//Su1MRAYljvfXdPxneacRBmC1WsXDiXiI866SYMaPboSAQ4w7Kg/2DiGqZKsQQhfHITf6gIOZCQEAAAAA/G0qBE/aKME9FzL5JFyPOh6NRp6DA9BppVZwt9UMFCQSm6t1xd4L0Ri0t3EepPPBxH4gVmuzPD75KCJkSyHgACLp+lgYGhWLl17mh8zQxXHIIv14IxKNu7CIFQAAAAD+NhWCR33LxUk2JXfMOQdAz5Wa4L5waKH/YrVoastqndgsyYwqnwcf0nlxk9pEOIZhtVotU4vJ9YvUvojI4M8HFdw5hKkQNC6S25fCQMfvOVeVKj+HYCcHAAAAAAYtV9KWE/G464b//SE6V4AEgC47ujdYihvWSQHf6ZtECej95G2c2iJ9/LOQfon6nab2OZ0n13G+CMcwRCXV1Cbp46u434vIIFngwCHGIVPjj8a9y9WxoQ+mxh0HiTEAAAAADNlLIXjSfJt/Oe8gq4CJcw+AHrtfwV31dqBVo7Wokvg1tTMRYQPnqUU195mVxcOxWq3medzyTjQGR/V2DmEqBI26Tf34TBjo0bhjpV9o3EleXAQAAAAAg5Pfc0syfty3HXd5Xgjdk6ZCAEBXSXAHuiL6oGVqr4WCLcVWbW+rdaK7yddArNZm6eOzysr7IVkKAU3Ku4JYZNec75WH9PRz3LGoLKxrmnE8AAAAAEMVz82PheFRix3/f9dC96Sz/H4MADrnfoJ7KTerhcMKvXRs0saeTlL7kCZfi9SeC8cwrFarZWrx0OdFarciUjwV3GnapRA0ahb9tjDQ0zHHzFijUV6iAAAAADBUCsM8badE9fxOwnNd5yAAPVVaBffvEiYABi8q7/41Go3meTs3BiAqq6YWY5lX1bpCMIUeZ1GgYVMhaMyXdA1fCQP6CB5hkREAAAAAg5LfZ5+LxKMiF2yfSuxzIXzSVAgA6KLSEtwXDikA2UVqy9FoNBOK4VitVvNqvSvNe9EozhchoEnpfjGt7CbTlFh4NBUGChhnxE4i70SiMfoJAAAAAIZmKgRPum75/z8Ep6PR6LkwANA19xPcS0jmuHFIAfjp3vY2TcYi0d22WgOxWosKoM8qSdElMc6jaVMhaMzMTlsUNM6YVba0bWzsbswOAAAAwMBMheBJeyWo5/cT34TRuQhA//yd4D4ajSaFfJ+FQwrAA05S+zPd7xapjYVjGOJhRWoxxnlReWhRAgnuNCbfG85EohG3qS++EgYKcykEjZkKAQAAAABDkN9NnIrEo76vVqs6KrCr4v40xUcA6Jy7Cu6jQr6PxCegVO9y+y4Ue4nkxa+j0egqtZFwDMNqtVqkNk4f37iGem0hBDRoKgSNkQhMkWOL9OOjSDTi3DgdAAAAgIHw/Pxpi5r+nLlQPumkoAK5ABTiLsH9eQHfJVbtrRxSoDCfUnuWurdZtPR5XEmmqcPr1JZpguahwYDkCsKuoX76lrcPhKZMhaARH3MiMJQoxpEWzumTAQAAAGBXKmY/rZbK66vVKgqm2vH7aVMhAKBL/p1/jgv4Lqq3AyW5Te3y56SwvJBnGhXI089oZ0K1s+PU/kixnD4Ua8rkGuot1yeNSf1BLPY9EYnaReKvhWQUPabI44m3olG7aR6nAd0dP8VOC/cLpkx+9a9WDxdWWeb21Dj/RkEToKNzyPs7zoyrx9+x3f/n0ac99i4r/uzze3Oqx/7du770v31m/vP//mcKBQDs1Kf//Ne/6qsf+nce6+N//mfGuYB3E5u7rvnPei2kj7LoAoBOKSnBfeFwAgWIFxezXGn6l/IK40lOzp6Z/O7lNLXPKZZRLf/Sy59huHcNxST9yjVknMegTYWgEVde1DGA8cQsj8eNI2oen6e4jo3LoT33En0m1Y9J6nUtEL77c95u8Lvc/8svD8wR7hI6JXMCdfV9dz/H1T/vzuLvHdf0nzrf8N87fqLfPduw//zyU395sx7KKvYBFN2n3+/P78aykwb69F37eP00EBSIedqnmt8zRN8qwf2JeUg8805hnwsFAF1QUoL70uEEeu59tU5u33iSFhOLNMG4zhPgaMfCuLN48Hie4vmukpQ3GOkwx/VznY77zDXUaQshoEFTIahdbPOp+jJDEWOID8LQSN88EwZoViwmqdYJPvdblxftnP3i8933iR+xI94qzyHuEoRUyATu93vRJtU/CexNJjp2qe88e6DPvKsSH22pzwR62K/fJbD3uV9/rJ/+Vv2z89Ey99F2tYdyqJT9tDqrt//9Xjj1r98r74M3OTfnwgBAF/zrP//5T0yQ/lPAd3lhJXPjDwn6fp68iwp7Az128b3fOos7K6ozTPetNJZf0EQy2bmQ7i0mtpdWJg+ur4xrKPrLC9HolG/pWhwLAw1d9/GQ7k+RqN0r91AG1pfEOF4Vd/d/6HpfdT/5Z1KVn9D5P/1K9U9yUCQFLSRwQvH93l1fFy3GFWeios8EjGcL8eWuf9ZHQ2/7NO8mNvN/dfdxKfbzyrvgVmIPdPJ+9B9R2Mlgc1Db8O/RT/u89pjVykDfxIuCy1xBem85Qf5lfnkTie6nQryzeCj6IbbfqtZV9RdCUr58DU3zg40YjHrx2Q2uP5qkQkoD4xvJ7QxQjBk/C0OtTtKY7LnKdLCf/MJ8ktvQnxGc5HZ2Lz7xXOZ+YpA+B/rb390lsk/yT89Fm+kzF9U/Ce/6TKDpvn10byxrPPujs9xe51jd3o1pKwnv0BfeTTzttqH+LHIzJLhvdo7OhQGAtv27Wj/s6z0TNaBHojr4VVOruXIy9vOcnB2J7rbY2l08IPycYvmxWie6L4WkfPkamtwtcKhUZG3bQghokIfI9ZsJAUMcO6Rxw5fK4rgm+miJU7CFvCvVy9z0SU+7S+A8z/H7Xv2TGHTtGQB0ur+7X8E3muefh+kzL3LTZwJN9e+TPJaNnxLaN3ea213CezyjiAROC5Kgm33dqJJgvYl5E39oFB/MY1lziMddVhLcAeiAfx0fH8cEse+Vxr6kQcjE4Wx8oN33bSkGuz1EOnbxvd86izshEqUvD7UoJ0+Q4/i/Fvq9/b0woVovTrCoajj95yhP4KN50NEOW+DR1PVdwjyoa6J6+1gYGGifYlvh+kWVpufCAE/2P3GdTKt1IpDFuTWPbap/EoOuhQNa7etinjHJLfo7z2j0mUBZ8+mX+vfG++e5ZHfoTL8Xc/gPIvGkZ00tokzHIPrFcyFu7xgAnbkn/UcUdjLYHNQ2RAX3cQHfQ9IT0HVRLWGWK0MfrnNcJ4VepkFJJGbPKxXc9hEPVmOhyDTF89KLmmHI19AsHfO4fuI68rDjsG4lt9Mg1dvrZyLPkMcMUfknXhpLLq3PaSSzeYnysLwQ0wKAzS1LOpdyouc0N/1OcyK2UTDgda7uFs8Brj0PgIP1dc+rfxIeVfHtV58Zf/3pXr/p2Q7wcx8vqb2d/jmeW1xVdt6Atnk38bTbhvspCe6bn6tXwgBAm0pJcLfaGOiqeFgUie3zNn+JPAGc5Gq18bt4Ab67iN2feYvHSxUvhiFfQy/zNRQTeS9WD0PiCE3yELle39se70AHzCrVl5roq71EeVgk/dmJZHPvqp4vxMqLGuKauDQfaUUkXsUW8heS3aHRvs6uFOU4z+1DOq6S3dnk+o+xmp2IN/fi0AWVajjG4zyW1ce3J+L+R7S7vtnzPGilL5RY/bSm+6YYm3qO+7S4b3s2C0CrjoQAoDHxAv15lx4OxQPP1Mb5d/vuEO0lquH/FZW9c6IBA5CvoXjZ+so1dBCSRWhETprwIq1eHnJinLAe938TiVpZjIRxSxq35B2lltX65avk9vbdJbvH4vdl7JqXkxSA3fu5uI6in/urWleZNV8ry3m+h/2/dJyvc+VmYDj9fOyKu0gfv+rju9c35/HszHgWDsY4aDONvh/Miy4/CfOTTvL7NABoTSS4lzBZWTiUQIfEZOhZmhfNulqRJn633P9/dLj2Fi+14wHgpVAMR05gi2vonWg05psdEmjQRAhqJ8Ed1uZCUKszi0kZqnuJQH/leeexqHRSJGhFotbXOF5x3IQENurjxvEsTVL7IEVCZSwQWlkgBEX386OcNB39fCxwOROVTo9n3+bx7Fy/DI0zZ3zat7yzdtMU2XLOAtADpSS4A3RislWtt4V8eaBJ115WazEheZHaF4dvL5Fo8EeudDERjmHI19AsfXzmGmrEQgho0FQIavXRNvPwXxZ71E9lKwYlJ7YvK4lAfRTH60NO2lQFEx7u415GBe9qXcX3j0pS+5DF81QLhKC8fv7vxPZqvfvQW/1871zc65cnwgG195ExR7Qr29MOlXi+EOqNeDYLQKuOCvkekimANn1P7c1qtRqn1ruJUPzOqU3Sx1fVOkmf3cXD2s/54d9YOIYhFrTka+iFa6hWKifQiFwJ2EPkeknohX/GBfF8wi5J9ZoIAUMYn+SE6OhDPlQSgfoukjbvV8G0nTf6uH+q+P5ZrSt4w30WCEEhfX31T2K73Yf63y9/lugOtbMb+Gbmh/iP5IKFt8L9pJNYqCwMALSliAT3NPC4cSiBlrxPLRLbe5/Ylb5DTBbjpes7h3Vv8fDva95mdyQcw5AXi4zTxzfVeuELu/ueYinBnaZ4EFevW/Mx+B8Wfei3YWMSgYoXVTD/khzEQPu3cSzySB//X6WKL5v5eYHQWEig8329xPay3SW665OhHp5xPe3bgd83zIXcuQtAt0WCu8kIwPa+pPZbmmBd5iqNRVitzdLHZ6l9cpj3FtvsLm2xOyx5wUuMr96Lxs4kt9OkiRDUSiIv/O9YIF7CqP5Tn2PVjylRzBNzNWOJQMOgCiZD6t8mca6nj1+r9SIP2EWcO1/1m9Dt8WwlsX1ofbKiTrB7nxnPtiz4fNp14f+9vnqp/wegLUcGUQBb+Zba76vValJytdLYkiu1WIn7opKcs694sBtb7N54GTMcebFIbDX4W7VeEMN2JLHRJH1xfWK3Cg+A4WEWf+i74UE58TOeJ3yoPJcdIonulN6/LeIcz+c66DehzP7+ee7vYzwrsX1YFHWC3V0KwUbmh/yPRU5EJRdiE3G/V8UdgFYcFfAdDDaAQ4gErndpkjNObTCJXOm7LlKLRNM3OQbs7rRav4y5tpXjcMRCmFgQkz7+Xq0XyLDh9ZK3MYda5f5XIll9rkvayQbqvj6EoFZeoFDEOCTmg9U68fNURAbvLmFz7hkBBfRvEts5ZL8p0R3a6+9DLOb+S38/aHdFnRZ2W4OteLb1tO8tFRhcCL1zGIDuKiHBXUIF0LSPqT1PE6rZUAOQvns8tByn9t7psLfz1KKa+8xWXoO6hiIJNK6hd5XFIpu6kOROAzyAq5drFH59749nFZ9EojaSJ+i1mP/FPDDPB+GHeU9qXz0joKd9m8R22hoXKiICLfT5eTz7WjS41x//lec6wON9aLyXsOPF09oqGDIX+o2ce24BQBuOhADgl76k9mK1Wk3z9lSDtlqL7dOe5diwu3iI8bZaJ7pPhWNQ19GsWi8W+SgaG7lwjVCziRDU5lvs9CIM8Ki5ENRHpU56et4+T+0mz/+8zOYxcY4szX/oUd8WcwGJ7bQpFo3FAqEriTbQeL9/lft8uyLy4Dg25jyqucOjFN7ZTCsJ7rlqvF24NzMVAgAOTYI7wP+K6sqv0mRmInHrwUneMmKTPv5usre3eCD8wda6g7uGQjwA+K2yWGQTH3J1C6iDvrY+10IAT97zrys7t+jDGaxcyfCv1E5Fgw0d33tGMBYOOtivjfJOa9G3SWynK6KadCwQuhQKqL3fv1usqWo7T4k5z1/6Ynh4DF2td+7icd/zs9S2eN+xmakQAHBoEtwBfvQutXGaQM2F4nExyUxtnGMmcWc/d1vrzlUcGtQ1dJMXi7yqLBZ5ylwFGPaVzyGVU2u8LoUANuLlSH0mQkBfxhz3qrbDrs8IvuZFEtCVvi3Ox2UlOYduirn+H7mCsDEj1NPvT9OPRWWxJtv5Iy/W9J4L/qGA02bafoY6dwg2cmpBPgCHJsEdYO1Tas9Wq9UsSisLx+YiZulHTGQ+isbe4iXh0kvswV1D8/QjEm/ficYvxYvKaw/G2ZNFEvX5lrftBJ4mwb0+KsXSebli4aKSCEQ93uZkTeNY2uzXJqktq/WiHQuG6bq4/yoiAvv3/Vfpxwf9PnvM3ZfGsPBfUyHYSKvPUPP7DgX9nNMAdJAEd2DoomryizRpeZnaUjh2nvSFmMy8SO2LiOwlHhrHS+x4AGhV/7CuoVn6+Jtr6JdOKkmC7GciBLVxLcLm9/i4XrwcqYkX5HT43Axxvf9RSQSiXpGs+ZeF8LTUr83Tx895Pg59cldExLNV2L7vX6SPr0WDPR3nMexUKBh4vzquFGzY1KIDv4P3HpvRtwNwUBLcgaGKJJM3q9VqnNpCOOoRsUxtkj6+qtaLB9hdvDz8M2/nOBaOwVxDN/kaelNJhnvIWX7BDruYCEFtXIewHS9H9OUULC+8WKR2Lho06K6au+cDHKJfi6TgZbVOEoa+iuTKeLZqR0DYrO8f5zGtREzq9MHzfAbOYrvNfIoqYB34PTzD3cyJIiQAHJIEd2CI3qcWie1XQtGMFNt5+hETm3eisbd4oPw1tgX1MmZQ19BVvoZUc/9fFyq/sK3cf6o6WI/vebtOYHMLIajNRAjo2Bhjmq/xU9HgAOI8uzEfosl5U96N4s/KbhSUIxagqeYOj/f/8Rz6xpiWhlzkhZrebzFE5m6b6URiuZ04ndsAdJMEd2BIIlH0tzQ5uezIKuCirdZm6eOz1D6JyN5iW9B4GXMpFIO5hpaquf/SleoAbGkiBLVRxQRcN21y/6cz0ng05rsfKkmgHFacb39XwpQkRM192l3VdrtRUGrf+ae+Ex7s/+92IzKmpUmxeMJuxQyxf7VwaDPXfpfemQoBAIciwR0Ygm+p/R6JoiqOHl5O0o2XZC9SuxWRvcRD5j9Go1Ekuk+EYzDX0F01d9fPj9eCLabZhoTI+iyEALa+l6/cx2tz4v5PF0SCXPrxViRo0UUlSYh6+rMQzx1UbWcofeeNognw33uA5HYO6VQfzMBMhWAjnzpWmHDhkGzk2A5JAByKBHegZFHx+F2aE43zllK0KB2DRWrx4Eo16v2dpPY5to32Mnsw188yXz/vROOH62AuDGxoIgS1MaYC144+ncHKiaCxcP5CNOiAuyQhL5XZtU+7S2x8LRoMSDxP+ssumbgHSG6nFXG+LSS5MxDmaZu59vs4xwHgMRLcgVJ9TO35arWaCUW35GrU49Tei8beYtvor6PRaKaS5WCun+jTYjcEi0TyNeCFJBvy0qQetx2rpgJ9shACfTr9ludccS3bYpwuiSShP82L2KFPm+rTGLjYJXPumSoDvQdIbqft8askd0rvZyfVelEdT1t06ZfJ7z8+OSwbuTCWBuAQJLgDpfmS2os095hGxWPh6KbVWrx8fZaPGft5m9oyv5yk/OtnUa0Xibh21v7wMJzH5J0uvLCrx0IIYK/7twVq9ZgIAS2MJyS304d50VwY2LBPi3Plg3kS/L0jy8IOmQzsHiC5nS6Q5E7ppkKwkduO5nOo4r45VdwBaJwEd6AUkSzyKk2CJjl5hB6ISWscs/Tx99S+iche4oHgh9FotMiVASj72lnla+edaPztWpUAHuFFSX2MscA1pF9ncCS30yNRPe3G3IjH+rM4R6p1Ui+wFvf3G89TGdC4dl5JbqcbJLlTMkm/m5l39PeS4O5cB6BDJLgDJYgEz/FqtZoLRT+lY3ed2jgfS5Ut93OW2ue8xe5YOIq/dmbVeoHI0K+b2OrRPYBf8ZKkPgshgL3cCEEtjiVvciiS2+mhOFcX+kke6M9iXrTUn8HD48tq/Tx1KhQUzriWLva/ktwpbdz9srKQaFOdTCSPCmPpx63Ds5Fz+QgANK2EBHc3SxiuL6k9iwTPPNGg53KybvTrH0Vjb1GNK6oPzbzYLv66iQdAk8rDlnMvIvmFiRDU4tZ4C/a2EILaePlN4yS302Nxzi4lCnGvP5vm/kyiDTwudsecCwOF3gvmxrV01F2S+1goKMRUCDYS7xuWHf79jAk3p4o7AI0qIcH9xGGEwfmW2os06Zl0fOLDDlZrMfl/Ua0XMbC7eDD4tlonuptcln3dREXYSWqfBh6KKw/CeYBzoh4LIYC979euo/pMhIAmSW6nkOcBqmES/dks/fhQSW6HTV3knTEVDKGke8FltS6IA10eu17reymgv41z+FwkNnLt9yvGVAgAaFIkuEseBPrie2pvVqvVWHJI+eIYxyKG9PFVtV7UwO5iMdifo9HIy+2yr5kQCxmGvANCPAifOxt4oA9kfzdCALXwDKYeYyGgYYtKcjtlzI88BxiwXK33rUjA1i5y/ynRkhLuBTEO+EMk6IHTSoEN+k+xsc11OoE8F1m8dZg2678VHwOgSUdCAPREJGxGYvuVUAxLOubz9CMewr4Tjb2dpfaXKkTFXzPTar0wZLDnea5KBPESbyIKtVkIAdTCYpF6jIWABscPMQeV3E4pJLkPsx8b5b5MtV7Y3WklyZ0C7geVCrT0rO/NYxjoq6kQbORb3pm66/RHm/NeFoDGFJHgLnEFihYVDn+LhM0oTSwcw5QrU8/Sx2epfRKRvcULzqUk4KKvmXm1TnL/PtAQzFQLIHMe1ON7rlgC7G8hBLU4EwKakMaQs0pCKOWR5D6sfmyUxxv6MtifJHf6bl7Z2ZD+ufDuip6Ow8eV51Wb6sviq4VDtTG7FwDQGBXcga76ltrvq9Vq0pMVvBxAJNelFhOkF/kcYXfxgvuP0Wi0tFCs2Otlnn7Esf0+0PN77iygkuBeF2MxcD11jsVsNHBOTdOPtyJBwXMkSe7l92N3ye12oYD6SHKnr/eEeI9yLhL01B/eW9FDEnw3N+/DL5lzVOQjbObE8wYAmhIJ7osCvsfYoYRiRCLmu9Sep0mDrRP51YRykVr0/W+q4Vaorm3CmdrnNOlcSBIq8lqJhy+TgV4nZyq9kM9/9rcQAqjt3rwUhdoYu1Kb/BLuSiQonCT3svsxye3QHEnu9PGeMBcJeu5av0vPTIVgI996VtxQvsrmvJMFoBGlVHAfO5RQhI/VOrF9ltpKOHhKOk2u8j3gvWjsLbbN+zoaja48NCzuOhlykvvMwo3Bc/zroeI01OuLENRiIgTU4V4C0LFoMAB3Se7GyeX1Y4tKcjs0SZI7fWJsSzHjVmGgJ+Px58biG+tbwvjcIduYXQwAaEQpCe4eKEH/fVmtVlMVDdnWai1WBL8TjVq8Tm05Go2mQlHUdRLJqfGA7XZgXz0egs+dAYN2IgS1MD6Delk0Ug/PgqhLLJz2IpqhzZNUxCzlZii5HQ5Jkjt9uC9M0o9zkaCUfjed0zNhoAemQrCxRZ9+2fx+9ZvDtpHj1GdLcgegdkdVGStfbasKADVOQFP7kCahN/mBOAXIC4jieA4tyf3MA5VhylVTqKf/kIwL9VoKQS3089QxXpimHxciwQBJ0iyjD5PcDvpP+NlcCCjMW++p6AHvoDbzfbVaXffw9144dBubCgEAdVPBHQD4lXhh83k0Gl3bvrwMsd1BNcwk97kXj4PkmNfjixBA7SwaqYfxKfsNFNZznCuRYOBzftdAvy0qye3QVv+5EAY6OL6dVXYzpEye79Plvvelvndj137v4p3rrwGoWyS4rwr4Hh7iAkCDk9HUopr7zKS0/+4luX8f0NeOXQlmjv7gqOxbU7chBFA7Ce718PKQfc3zOBGG7CJN8yW591A6btGHeS8C7TnN1yF05b4Qz+0vRYKC5/8zYaCjVG/fXC8TxXPV+e8On2sCgHYclbLdvMqyANCoSPx4W60T3afC0W8DTXJ/nc5dCc/DYkFOPSTiQjP3YS9F6ujoPQti93Mnkn/ORAL+O1cyz+9XHzZPPy5EAlpnkRBdMqss3qT8MetEGOggybyb+Z4TxftKFffNTYUAgDodFfRdxg4nADQuKmV8GI1GCw8T+y0vcoxjOKQEOy8dh0UfVQ8J7uDa6rKxELCtvDBiJhLw41zJguDe9GHTSnI7dIlFQnRlfPtaJBiAuV2G6eDY3OKizSx6/vtLcN/cmaIkANTpLsH9SwHfxQN4ADjg5DS1z1E1zAPF/hpgkvuZl46wfVchBNCIpRDUYiwE7GBeeQENP4tr4tr8vtvS4YnqkB9EAjrng0VCtGwmBAxEFGC6FAY6RPX2zfU6Qbzn1eddGwD0mgruAMA+omrYcjQazYSin3KS+3RAX3kmaWMwvFyup49YiAI0YikEtRgLAdvIyaFnIgEPioQhL+2723/F/GYuEtBZC5UqafH+YGcPhuSt/paO9L/xnulcJDZWwlzzk8O4sakQAFCXuwT3RQHfRQILALQjKr3FQ8VlThihZ3LlgVcD+bqqvAyrbwLoqhshqIVFa2x+sqxfPs9FAh51ZgF7Z/uva3Mc6LTjyiIh2nElBAyQeR1d4H3o5j6tkgK+h7He5k7tcARAXe4S3EsYTKi+BADtisThP9OEVcWiHlqtVvP04/1Avu6lc7Rsjm9tvggBNHfrFYJaeFHCNmK8KzkUnhYL2CfC0CmRSHEiDNB5kcgzFwYOJd+vvR9niM6MV+kAhZS2m8/4HsMzFQIA6nCX4F5E5TCJLADQCfFQ/Wu6L1/lKmP0xGq1igdyHwfwVSOxaeaIF828AOi6pRDAQU0qW4fDNubm890Qz1YqyYvQJxfpup0KAweiejuDHq8KAS2O0cfpx6lIbKyIxPBchf6Tw7kxuxwAUIu7BPdlId9H5S4A6I7XMcYYjUaqGPRLHK/bAXzPC4sjiyYZpx4LIYBmrFarpSjUQsIfzhVoRlQLnwtDy5Oa0SgSAl6LRFG+V+udsu7ap5/++rsQFSGKfnhfSdOmleRKBj5etaCIFknc3dyXnBheioVDulU/7VoBYG//jv+JF6uFFGSJB0a2hQGA7ohK2X/kJPdpGnOY+HdcPGjK23su8/Er2bxaV/OkPF4kA33wfQD3WgD66zxeRqcpouftLcgLsuci0UuRqL7MbZH/3s02iT15B4WY145zu/ssmbUfjvP169kETboQAvh7QdF1Ycmz9IPCXpu7LvD7/OGwbuxlJYcPgD39+97nqNTZ94djE4cUADopqr99Ho1GUZnqUtXSbruX5P5X4V/1LL6nhRfwS/pqaNZNpar03iIBzMtsgMbMowqxOXwrIgnAQrjui2T2RR7X3dR1reSxzeIXY59JtU6cjhafTxyGTjpNx+oqHUoJcADNibFS9LMzoeBQ8i4txl/bzWuKkYvHlpBbdygquAOwt6N7n5cFfB8vhgGg285T+5om/7NRIdvHlGq1WsXL2TcD+KozR7tIYyGoxVIIgB5QGROgOXdViDmgeGZSSZjoqkhmeZ/ai9Vq9a/UYtH8LHY6ONRCkFikn1okTsdOiTH3fZbaq9Q+VusdguiO13lBAgDNufSuiQObCsHmY+dCF0ubI2/xTCF10a4ZAPZyP8H9poQvlFdMAgDd9ja1pUltt8UL02r9grRkZ142FmksBEAP3AgBAD2ZM5m7H0ien74ViU6JpPYoAPBstVrFjgaXXdoJLpKGUpvnhPdI8PutWifhf3PoOmEu8RKgUXdV3OFQVKTeYhxU6Pe6dmhdMwAcTnEJ7tV6S0YAoPviweOH0Wh0I8G40+Lh8G3h33HmMMP/6lLSBpR6mQlBLSQMATTvSoLmAW5o6xjPRaITIjn8flL7VV+qT8aOfDkJf5z+8veq/MIFXXdSee4E0DRV3DnUeP1lvrezmSITwfO8wGLSzZ3rowHYx/0E92Uh32nisAJAr8S225/T3DYqGo2Fo1tWSVX+louquJfHwzKA4bCTH0DzYoH6lTA0blZJmGlbJIO/iOTwPiW1/0r6/a+jsnv6+H/VOmFfIk47XnvuBND4WFWFYA7Beba5276PpZ+girtrB4AD+W+Ce1R1KOQ7TRxWAOili9SimvvMSu5uyePEN4V/zZkjXZRTIQB64EYIAOjTnF2CZnNybF+LRGsisT2qtU9L3MlqtXaVq7q/Su2LQ35wc887ARo1EwIOQJLu5haFf7+5Q7yVSyEAYFdHP/11CQ+1jkejkepdANDT+3hqb6t1orsHRR0SL0LTj08Ff0VV3OFHt0IAzd9ehQCAnpkLQf1y0qvYtuN+YvtyEAPQ1Wqe2iR9fFFJdD+k2J1BYg9Ag/1sGlJNhYEGx+xxfh2LhLljHlNH4RK7I23u1C7uAOzq3z/9ddyEzwr4XpNKJTQA6LN46fNnmuzGi7bLgnaa6btpasuq3Id4s8puQHBH4i3QF4ocwPa+V+tnp6vqn2eoNz/d/1d57P/QNXY3Zh7lfx4/7aAzkLl6mqdf5gXQ1CeSXk+E4aBiAf/lUJLaH5zwrSvVT3Ky1sw5eBBvU7znQz7vABoW97S5MNAQRbk2920g73WvK7twbXsNeZYAwNYeSnB3YwQAuiIW3v01Go2iola8eJRw2aKIf37x+Wep51tUEPCisd9UgQAYXtcvBPCoWDQcz3xjjHuTExq3sdjw791VoX6e2zj/PHMIijPLCZrm5/XNX96KxMHETlWXO/SFxYqK7unHPJ2Ls2q92EJl0mZFvCfCANCIeL7/XMEkGhizx1z3XCQ2dj2g7ynBfXMx15DHB8DWjn7661IG+2d5kAkAlOEitWV+2UaLVqtVPLD5VPBXdI7131gIgJ7wwhVoQiS0v0vtRRq7/yu1SWp/V9xuOqFztbbI/63L/N/+V/wuqb3J84jvDlHvRfKrl9L1mQvBwbxLfdJzye2/7MNn1Xph0hfRaFS8v1QBFqA5l0JAA6ZCYI7zwPg55hWecWwudoSzEycAWzv66QZc0svVicMLAEWJl+ixlW8kurvPt2talfvQ5kIFcFhPD4UAGr7IVL4F6vEttdjx6vd7Ce2zLiVw3kt6fxmbQqW/9Vu1TsK/dfjMm4YsJ7na5aB50df8lhO4eby/XsZ9pFovSpKs0xyLhACa81IhRBowFYKNfR/YLgrXDrlrCYBmHT3w90qpzqACAj+7jMq/JrVAy1Ss299Jap9Td77wQr0dOSFvWvBXnDrKoLI00Bvm+AxRzCkjqT2qtI9Tm+adlvoyn7jJSfhRuetZtU6klOzeP3Mh2OPmtX5GLcm1ee9z1Xbzm+366Tg3n+ubG3Nil0qAxkShJHki1DluH6cfpyKxsWvfl0dMhQCAbT2U4L4o5LtNHF4emNC+Te0mTUQMnIC2xAuicbVORmA/UeXsa+rTryxeOrycQPOp0K936ZwCgN7wkpEhicIkr6IKek5qXxQwr1jm6u53ye7vq3VVenowJ7e72n7zzmq9gJ9mfM/95aVQ7NU/R9/sGWZDfYBnT7CR2zwGjr7oXW6/p/bip/bsgb/3+73/z6f85xhnDsNUCHA+tWZQCd/5XanCdps7zjuZAcDG/v3A3yulkkVUQFCZgwfPjdQ+5CT3WQkvA4HeTXb/rn4didnVOuHddtT7eZ3jeZlCOxeOg4oXxZNqvYisJHdVXpxP/eQFMQBQmkjoiWdYy8Lnyss8x7jMz+2m5sudN6sUmtl+wrJOapV43ZxIXnzp3VBtfXM8c1ukjx9Eo1bHuR+YCQX8t+++yS36nOUOY9+H/v3rX9yLY/wyrta7VTw35ixOLMQclz5/4mCmQrCx733aXa5Gcd86d/g39rJS+R6ALZRcwd1gkycnt6l9ThPcuUoZQBvytuyT9PFVpXLIvuKlUCxeulFB7qDn8LIq90XczBHuredCAAAUICqARbXJ/8vV2pcDm2vM83w5qm9+cjp0liruu4liB8fC0Iio9KvwUQN9cvrxW6U6Zd3eRgKmMDDg/jp27vk9j3cjGTkWJ/1dmKzpsW/+b8R4M4rmTFL7V+7n3hh7FkOFYPYWBTUruy5t49r3ZpP+WX4WANs4emBCt8qTShMXhuIitWUaQ82EAmhDfkkUD0kiecGLov2cVuvFS9deEB3s/L0qaOx434lEDQAAWnCX2D7OCT6rgc83IvkonvE+qyQbddVMCDaXn1VciEQj4tnEZOj9ZoP9cSwamFSKdOhDYfcxbozlothPJLQ/z8nl113pt3NBoqucaB8J75F8/7Hyzqav7JZDHaZCsBUJ7mzibhdtANjI0S/+/qKQ73eSV1XCJoOoqJYRie4GU8DBrdZm1TrR/aOI7C22gvsai5esAj+IUh8WTx1aABp2KwTAPTEXlNj+8Jx5mRPdo6L7FxHpFFXctzMTgsb6T8ntzffFkeT+3Bi2VheKdFC4v5PaU/8xyonj87701Tn5PnZSivcLd8nu9Ic8EeowFYLt+s2Bfu9VZUH+tuRkAbCx0hPcDTrZerKb2p9pwrsw6QVamgTHS/u4d8VLey+L9vc2tZvUpxsPNHvextixxIc3FxZIAND0bVQIgGqdsP1bTqDRLzwx90htUq2rf6oi3B0zIXia6u3N9aH6z4P2wxHn6Ic9t9SHwq/EGC12JHp2l9ReQN93nd/b/F/+bsah/SCBkn3G7nH+HIvExoae4K2K+3bOvX8FYFMS3OFhZ6n9lcZUVwZWQBvyS/tYaBMv7W2BuZ9YvPQhL16aCEdjVHEHAIDtxFzvTSRs56q4bD5nnlfrKsLvRaMTVHHfzEwIahdJ1pLXDt8HS3KvlyrulNQnR7X2ux2JliX2f/m7xTVrwWX3GSPg/DmcoSd4L5wCW5sKAQCbOPrV5Kwq58HUcV5dyf6GOEl/ndoynUOXDj/QhvzSflytq4Kwn1i89Dn16XOLlxo5V5eFnqfGAAAANCGqm0Xyz5VQ7DwHCTFejx3QJBe1byoEv6Z6eyPiHdZE5fb2+uB83SvMoQ+F2I3oRRTsKaFa+xb94Fyie+edWkDEjmP3eIcox2g7g05wz+9ILf40/gWgAUcDGYC4MdZjOdDvHVtP/ZHmMUuViICWJsV/VwVJH59VtnirQ7xQjj59JhS1i+Sc0l5snrj/A0C3uVfTM3dV219KyqxtzryoVHPvxFxbAtGjZkJQe1+qH22//43dRyaVJPc6XCrIQQ9FUvervBvRYsB94V2i+zv9YSdJUmbX8+ZYGDb2ybj8b3Mh2IpFSABs5LEE95ImouceDNViMfDvf1KtK/8uDLSANsTq70iCqFSnq0M8mHpr8VLt52g8wCqxAuXU0QUAoAZ31YZVbW9gLpKruf9eSSxqkx2wHqB6eyMmuUoi7fe/keQ+FYm9HYsjPRJjrXeR1D2kiu0b9Iezar0bryJFHRszCAE7sDBiO9dCIA47Mv4F4ElHj0zCFlVZLwPcGPd3IwR/O0vta1T+tXACaEPco3NFkDeVF/f7ulu8NBOK2s7PiGVpCzBeuucDALCnj9U6IdPztWbnI/FCeVLZGrwtU3OnB82EoFZv9KWd7HvficTeLBKiD76k9jw/A+Z/+8NVLlJk0WV3nAsB28jzGefNdhZCsC5UV3kWsfUzBCEA4ClHAxqIeDBkYFq3t6lF5V+DLqCtiXJU/RtXtmGvpU9P/flcGGozK+z7RBUtFTsAANjVqzR/m9qy+2Bz5Uh8nVSqZ5o7dUBOkBGT+nyyC0Zn+96ZfndvJ6nL0F/QVZGsHQuM7KCxWZ8YC3/G1XpBAO2Px/StbGMqBFu5dV/4gSru249/nwsDAI95KsG9pJtv3BgnDvlek/F4CecB5Y/ipc2HdG7dOL+AtvrmvA37s8rD0n1dSHKv7byMOBZXxd2RBQBgS5EI9CKPjzn8XDnG8B9F4+BmQvCDeGZzLAy1iOcMU2HotGmlYnEdfQZ0TVSjnVhgtNN4dFLZ4aILJkLAluMZNjcXgh9IcDf+BaBmQ0pwd2M0QG3SaWqfR6PRdWpj4QAOLVbH54elsfXlNxHZmST3+swK+z7nufIeAABsIhL8IhFoIRStzpWn6ccbkTgohWZ+NBWC+mJpJ4zO97lxfBQI2M+Zd0x0zKc8pr0Rip37xlm1fm9jAVB7jE3ZSL4Hn4rEViR0/9jnx/3Se/rtmD8A8KijJ26+8TDqtqDve+7B0N4DsmsDssfPsdSimvtMEhzQVj+dWtzroiqIB6a7iST3mTDsfS7OCxwzTB1ZAAA2EM9Tn0sE6szcJKqNvhIJc6dDG41GEYcTkajFewuGetPnxnF6LxJ7UayLrngXO+JYXFRL3xjv1yeVdzZtOfXeHvOYRtxGATZh+B+S/rdznLpoSe4A/NLRBv/OvLDv7MHQ/mZC8PgALLW31TrR3SQIaEWuCjKubMe+q7cqztWitG1r3dcBAHhKJLdPvOTt3Bx5XklyP6QLSUTmkDWKxfMzYeiVWaVQkr6DvnuV3zFQ33g0Fr+Oq7KKC/bJRAhwD67dXAjEpSYS3AH4pU0S3EtbXTb1cH3vCXgMyDycfFpU5/mQTreFJEmgpf56lbdj/y21LyKytbkxw/4xrMqqSnNqNyAAAB5xl9yuymU358gxP5HkfjiDfkGd545nToNaXOpXe9ffxvFSbGp3qljStld53EQz/eOkkuTehokQ8MT4/Xll96VtLYTgwb4+FjTZsWM7FskD8EtPJrjnakMlTbKiurYHa/ubCsHG4kXG5zQekygJtDaRTm1SrV/kW6C0uRNjhr3PvXhgX1oVdy8YAQB4iOT2fsxR5unHG5E4iEvfnxp8SdfttTD0sr+N46bgxu6mQkALIhnvN8ntjfePktzb8VwIcO+t1becyM3DzGG25/0rAA862vDfK20ia3C6/+R7kX68F4mtXKS2HI1GM6EAWuq7434eD/HeVVaOb+rS4qS9lZbgPnFIAQD4ScyvppLbezM3jjnKR5Fo3NB3wJo6BWphoYDrYKjOPZOkjT5XsuLBxqMxb3hZeU9zSHbWwbilXhK4xaduEtwBeNCmCe6l3XxPRqORAer+k+94uGx1+XZiB4G36fxb2mISaKnvDrNqnejuhf5m/baXqXuec4Wda14wAgBwXySlTCQD9W6eMk0/PolE46ZD/NL5ue+xw7+3j/rW3ve1y0qhpH14h8QhvVK5vZU+clJJcj/kGG0iChi/18Y94/E+/lr/vrXzgS+SB+AXNkpwzxOs0hKZZw5/LWIi+E0YtnaS2p9pgLZIzZZoQBsT62V+of+isljpKRLc91daFXcvGAEAuDOVgNnfY2c+fJAY+97saiYExRxHyT278UySQ3kjub0deR5h3HA43snzK975bOeb5yAbUcXdtQhADY62+HdLm9iq4l7PxNsWavuJ7dD+SufilWqwQEv9+CK1eKj3Sl/+S8d23dj7PIsHXSUljjgfAAAIb3JVLvo5T4nnmlNz4UadDK24R37Ge+7Q7+1jLrxEGX3tlUjs5FQVSw7U37pG2+0nYz7xTiQOQoI7vxq/X4jEVjwH2cxCCLY2FQIAfrZNgnuJg5SZU6CWifdNnhCqeLS716kt0/xJRQ6grb58nn6MKw9Sf0VC8/5KelEycTgBAAZPMlAZc2FVM5s3tPh6flCPmRAUJe6XFhPpU+ieeK/rvWQ3xqRx3/siEo2T4I57bT0WQrARCwG2Z4EnAP9j4wT3XC3jU2HfXxX3+ibecX5MCjxHDuk4tT/SORmJ7hPhAFroy1f5Qeoz/fn/8IBr//NrXpXzMvPYvRoAYNAkA5U1V4mXzu9FojFDmzvpG/anent5/WxUcZ+LxE48k6Qp8Zz2Zb4+6c71bjFQs06FAPfa/e8fdrLbagzsfbs5NQB7Otry3y+yinvedogaBmhJTADemIDv5SS1z+m0XFidCLTUny9zf/4itW8i8rdjfXItShpLeugJADBM8cxrKhmoODPz38YMpgJb/p4Sp/Y3F4Ii2fVkN2feYdKQqcVE3ZLnF1ORaHy8poo7P4/fz0ViK5Lbxatp3r8C8IOtEtwLq7x5J5KJrQCrdwIeDypjcmgrtf2cpfY1TawswgDa6s8XqY0rC5fuePC5v5JeZk4cTgCAQZqledKNMBQ3/42EIi9Rm/PS92RDt/E8ShiK7GeXlQqW+ha64pPqu53tK6/1lY0bCwHusXtx/xCvpp3YRRuA+452+P+UeAO+lEBc+wQ8qv/GoEP13/29TW2ZTtGpUAAt9emRlDyubNkuwX3/cykSgW4L+Tqnxo8AAIPzKc+PKHe+8l4kGjGUxJGJQ703fazjy3D7UA7j792IhKHTppWCQ03ynoefrze2uIdYILWdvJheYVDXJgB72CXBvcQHUMfVehta6h+wqf5b3zn6YTQa3VitCLQ1AU9ix5NnJuLsaV7Qd/GCEQBgOCQDDcOsUqyjCWelLxDO3+/cod67n5UwU7BcnV8fu72JEFCjy5xsR3f7ylUlb6FJEty5G7+P049TkdiKsbq4HYr3rwD819YJ7oVV3rzvdR7E0sxkXPXfesQk63M6V6+dr0BL/fndDh2/V8N7IeXBZz1KepAzcTgBAAZjJhloEHPeOMaXImH+tAMv4Pd3rZ8dhLkQbO1Y4SNq8iV1s67BfoxJ4726BUHNsCsrd8z7trcQgt3mOUKw0/jXHBuAvx3t+P8rdRtBk/pmJ+N31X9/q1T/3VdUA4pq7rPSqx8Bne3Tr/MOHe+q4ezQob+t59xZFjQOmDiiAACD8CUnmTCQ+W7l2WUTXvp+PEHixzDMhWAnEyGgBpI5+2UmBI04EwKM343XDym/F70Via1NhQCAsGuCewxcSkxmO7MK7CADuJsBV/+t03Fqb6t1orvBHdBWnz6r1jt0fBQNtjAv5Huc2FEFAGAQJAMNz1QIajfx/XjE97y4hMJJ8NHH0JqPeZd2+tNfzvWXzVA8jnQKxI7NJyKxlU92W9rLXAi2dq6/BiDslOCeBy6l3oCv3CQPNjEfYvXfJsTk60M6bRe2qQRa6s/DtLJDB5sr6aW1ey8AQNneSwYa5Dx3WVnIXbdiFwjnZ7LHDvFeJLcPy1wItqbiMPuaCUEv2UWqGc+FYPAsYjdeP7SFEOxEgVoAdq7gXvKE6sSA9rBU/61NPOD8PBqN5hZpAC3153c7dLyq7NDB4+dKLJYspfqMh+EAAOWKggwzYRgsx75+E9+LX5Aw43jzBAWO2MPHvHiPnslV3L1raaBLFYLBkzRr/Hbo/vxGf76TqRAAsHOCe54Il1ql9W3elojDDejuqv++qFT/3ddFast0Ds+EAmipT59X66RfO3TwmHkh32PiUAIAFOvKFtyDntsuKwU56vbS9+IB32O3V2EYXP96KxJbmwgBO5oJgePHD+SBDNhoNIqxu92XtvPJs5FamPNs76zUneAA2NzRnv//kidUc6fH4aVx8UL131rEpCwWaizzJA3g0P35Ku/QEQ8KJQTwkFIe5JzaOQUAoEjf8pyGYXMO1Ku4ZKI8Hzx1aPeyEALHnY1MhIAdqN7ec7mgkEJCUB+5E8ZtbZkLgWsWgO3tleAeychVuUnIkax06RRpdbKu+u/+TlL7MzXnMtBWf768t0OHhUv8cG5U5VTrUvEFAKA8MyFAFffanRRYfW3isO5tIQSDpILl9s6EgB3MhcBxxPiNtbw49UIkjNvasFqtbirvyncxFQKAYTuq4c+YFRyfme1OWh3g3a/++0lE9mKbLaDtPn2RfixFgp8sCvkeE4cSAKAo33LxBQgzITB/Mh9slISZAcrPCtnSaDRSZIFt3LrWinElBFALlaB3u5cshcHcp0WnxsAAw7Z3gnt+2VPqKrNjA4z25eq/MdmI6r+3IgIAxShlnOXBCgBAWeZCwJ38Mv+LSJg//cLEId3LNwkzg6Zv1efQLEnRZY1HvSOvz1gIBkuC+/bmQlCrhRDsZCoEAMN1VNOfU/KgJlaDzZwqnZi8L1KLFyCvUvsuIgDQ/3t7IV9FgjsAQDnimZNkIH7mnKjPpLDvc+qQ7mUhBI4/W/EMim0o4laWuRDU5kQIhmc0Go3Tj3ORcC9p02q1injKddqexSkAA1ZXgvtV4Tfht7Y86dSgLybwMQF5JxoA0HslVOs6SWPFkUMJAFCE+SoRBu7LL6G/iUQtikkIT9PAicO5txshcPzZineVbOqjMW158xQhgL1IkN3erd2WGmHRwPbiPaxrGGCgaklwzxPk0qvYXEtc6o7V2ix9fFbZxhIAej3GKuR7eMEIAFAGlbopfe7SuoISwyeO5t4WQuD4sxW7RmDcMlA5H+NWJGobj45FYXCmQmCs5h7daxLcAQbqqMY/q/Qq7ieVF1xdnMwvU5ukjy8qVZQAoI9KqdY1cSgBAHrvk+pkPMKz4fo89z0Iqc9VwXvYxz+SNb3X2ZLdI9jA97z7DOWZC0FtxkIwqHtnjNstEtPndGUM7B69GwnuAANVW4L7QKq4X6TB79Rp08lB4CK1mIi+qcpeaAEAxd3DC/kqY0cTAKD35kLAI3OXZaVqpvnTjyYO5V7szEpYCsFg+1CasxACxxb4wVQItvbNYtRGfRKCrR3L1wMYpqOa/7zSq7j//R3zCk86KA2y4xwcp/ZeNACgN0p4qT12GAEAek2lSzYxF4Ja9P75+mg0ijngsUO5l6UQUEnW3MVYCHiCMW2hcrKpnS9geyo/u5eIr2sZgJ6qNcF9IFXc46H1fJQ4fTo7uQ+X6eNvlSowANAHiwK+w5nDCADQa3MhYANeQps/3Rk7jHtTEZKwFIKtTYSAJyyEwPHFWI610WgU980TkdjaXAga5dnCbs7l6gEMz1EDf+YQqrifGtB1X6xiTy0mLL9XVrMDQJcV8VI7V/ADAKCf5kLAU1ar1TL9uBUJ86dKgqlnAdRlKQRbGwsBj7jN4xXKtRACfSlbmQrB1r7lHSNoSC4e+0kkdqKKO8DA1J7gPpAq7iFWhs2cQr0YHF6nFpPUd1X5iy8AoI8WhXyPsUMJANBLXt6yDZXWzJ/Cc4dwb/pdnAe7UYWWxyyEwDEGfiAZVj8jzmW5FAKAYWmignskFM+qYVTMfjsajQyIeyKfl+PUPooGAHTqHr0qZOw4cTQBAHpJwjLOF/OnbY0dwlqeBeA8cB7sYDQaWWTDryyEoPh+c1kp6Aab3i8jl+dYJMx5xbkop3bUBhiWowb/7NlAYjj3IKlXk/4wTR9fpPZFRACgM0qo2DVyGAEAeslLRTaWq/1LKjJ/OnUI9+LZPM6HYfehNMeuCI4z8I+pEGzte5rzekZyAHnB0q1I7EQhWoABaSzBPd2M5wO5GceKz8UocTr1arC4SG2SPr6qhrHbAAB0XQkP5S16BADon3h5uxAGtuScGfD8ScEboAMmQsADvuVkOYxFYfBy/s65SGxNcvthzYVgJ5dCADAcRw3/+UO5qUhy76m8ECNeSLyrVF4CgDaVkOA+dhgBAHpnIQQ4b8yfzP1cQ7RKJWJwLeFYQ91UeN6NBHfx7oMTC88BhqPRBPdc/WgoWwueGnz002ptVq0T3T+JCAC0ooSH8icOIwBA73iexy4WQjDo+ZMX6VCvlRBsbSIEPEDS83AshQCeNBWCHQZlq5VnJIeNd/TntyLhGgfg144O8N8Y0k3lbDQazZ1W/R08phYreV8YRALA4e/DJXyPNBYcO5oAAL2yEAJ2mL9EApndIIc7f5Lgvj9JmAD6VvYbi7LnUFQIip9nnInE1hSDbMdCCHYyFQKAYWg8wT0nK70bUEwvJLn3/qHAIrV4SfGq8qIKAA6phAVmY4cRAKA3vpWy0JJWSCwa7vxJQtT+VOxGf7ofSXs8xLh2YHMZIdiLBYtleykEO1G9vR1zIdjJ8Wg0cq0DDMDRgf47V9WwEoUjyX3m9Oq31WoVA8lxNawFGgDQpmUB30GiAwBAfyyEAOdPq8Y9/b0lRO1PgjvOB6j7QlLVe2iWQgC/NBWCnUhwb+/+bdHSbiS4AwzAQRLc0w15NcBB5NvRaGTg3P/BZJilj89S+yIiANCoEl7CSHQAADD+xPnDZsY9/b2PHbr9SMKE/Y1Go7EocM+tEBiLAn/fH+MdzalIbO1TzuuiHRYX7OZluuYVHgMo3KEquMcDy7ghDy1B+IMk9zLEdtWpTdLHF5XVkwDQlKUQAABwQJJCcP6wldFoNBEFoCPGQsA9khIdc2BtKgQ7kWAt/n0Ui89VcQco3NGB/3tDHExKci/IarVapDZOH9+k9l1EAKBWywK+gwruAAA9Ec95RIE9zp+lKOxtIgQAUAsL74bHWBQeJtl1NxKsW5SfT8k/cs0D8ICDJrjnh/7vBhhnSe7lDTCvqnV1jPeiUZuR7YPY01gIoP+32BLuZw4jAEAv3AoBNfgiBINjUfP+7JAK9RgLAfeo5j08SyGAH+Xdlk5EYmu3q0QYWmeRwW7O5RkBlO3QFdwjMXhWDfMFUiS5XzrlyrFai2P6W+VlVh1OU7tJ14kVlmwlHlakFtVJLkQDen9vVWkIAIBDMfakDksh2MvI7+y6ATuq7GwsBOhbAX4wFYKdzIWgEyS4u/YBeMBRS//doSZ6/zEajQwOCxPJeKlN0sffK9Vn9hUrqv9M18kiNdWQeFQ6R8apxUTvc7VeIAHQBe5fAAD9sBQCnEet6+PznLHDBoAxCY45dJJCeruRWN0Bq9UqjsN3kdjJVAgAytVKgnuuxvB+oDG/kORe7oAztXH6+M7Ac29nqf2VrpUr2wnxs9HaLH38mtq5iEBx+r4ryrFDCADQCyq44zxiF2MhAADatlqtlqIA/xiNRtPK+5ld3OpPOmUhBDs5jeKIwgBQpqMW/9uzarjVriPJ/VribpnSBCDO7Rg8fRSNvb1ObZkulUuhIOSHE/Hy+K1oAAAAsIelEFCDlRAA0BK7CGJMAvAP1dt3MxeCTlFNf3dyigAK1VqC+yqphr1NSFQdXkhyL9NqLc7vF1X/K9G2LVZa/5EulUh0nwjHMMWxT22RPn5I7UREoOzbaAF9lvEdAEDXB52rlcrb1MF5tP/8adyzX1lCKdCZLlQIMLYF+O87Gbt+72YhBJ0iwX13FrkAFKrNCu4x2Y7B0vsBx/80tZs03vZQvFBxjqc2SR9fVcPdsaAukdT8Oe9+MBaOYRitzePYp3YmIjAIJbyMMbYDAOi270JAHXIRF/Yz7tnve+yQAQBAp0hs3c03C6S6JT9j+CQSOzmRewdQpqO2f4F0f45tQm6HfJOt1pXcJ07Hogei82qd7PZONPYWq6+/pmtmpkJu2eIYV+st4y9EAwAAgBp5gUudFLUAAABoz6UQ7ES1cMdFXwBA5x115PeYDvw4RNWXqEztZluw1dosfXxWWXVZh7epLdN1MxWKsqRj+jK1ZT7GqmIBAAAAXbYUgmGwqyQA0DF2psIYfT1GPxWJncyFoJMkuO/Obg4ABepEgnve9uaNw1H9kQbgc1Wpy5bO92VqMbB6UQ1794I6RPLzh3TJ2AWhAPEAIo5l+vhntd7dAhjorVIIAABomAruwC7GQgAAmNdAp0ho3c23nKdFx0TVzEoe0a6Oo5iiMACUpSsV3OMmfZV+fHFIqovUFqrBDGJgukjtefr4qrLCfl9n1XoXhLlrp39Ga3EP+JqPJTBsHqgBANA0iyqp01IIAAAAWnEpBDtRJbzb5kKwMwnuAIU56tjvEzcaib7rLZRurCwbhtVqFYPTcWrvRWNvF/namQlFP6RjFQ8dlqm9Fg2gpO5NCAAAYDCWQgBAC8ZCAMCQjUajKCZoV/DdSHB3fEp1EdUVhQGgHJ1KcM9brUjqXjtO7c9c1ZjCrdYi0fdZZSeDOq6dt+naWVok0l3p2ExSiyrNf+RjBlCS50IAANBpdg2C7pgIAcBOJPQBMHRTIdjJ99VqtRCG7krHZ5l+3IrEzuQJARSkaxXcqzyQeufQ/NfrSAJNbSwUwxiopjZJH1+k9k1E9hIPd2ORyCKv3qYDoi9LLVYcf67Wu1UAAADAoa2EANjBRAgAAKAzJLHuRnVwx0nfAEBvHHXxl1qtVrNKFev7Igk0ktynQjEMsdAjtXH6+Ca17yKyl7PU/ordEGxF1J7RWvTtX1M7FxEAAAAAAAAAtpV3crebyW4kTjtOpTtXRBagHP/u8O8WA9Ibg9L/Ok7tQx6oT1eJkJQvHeZIyp6nj1epXYjIXl7HtRNJ1hFX4TicvDhnpj8HAAAAgMEb50IYAACwKxWad/N9tVpJnO6BdJyiCOq3So7FPn2EvCCAAnQ2wT0SuHMy918O0w+i8vEyEkYNPAczcI3FDJGYfZUHYGeisrNYKPJHiuVltV4oshCS5qQ4T6p1YrtzFgAAACjVIrW3wgAbO3HNAACwJwnuu5Fj1L/j9VoYdjKtJLgDFOGoy79crEhLP145TP8jknT/HI1G16mNhGMY4npIbZI+/p7aNxHZS7xE+ZyvobFw1Gu0No8YV5LbAQAAAAAAAKhB3j38WCR2IsG9X+ZCsLPT1Fc8FwaA/jvq+i+4Wq3ihv3RoXrQXTX3S6EYjqjcn9o4fXyX2ncR2fsa+hpb4losUo+8vfAytQvRAAAAgP/P3r1et40sCQDG+tz/xkYgOgLLEZiKQHIEoiMYOQLREViOwFQEY0cgOoKRIjAdwdIR3O0atGbkt0SCBND4vnP6iPu6axaIfgDV1QAAAECLVG/f3FIIhiMXhZUTtLmZEAAM36Mh/CPToB2Dzo3L9UOxM/VNXddLu89GN5mdpz9xzW0A2V4cibvKu73ZQIrdSWqrHEs75gEAAAAAAABoTS5adywSG/mwToRhcFTd35zNMAAFeDSgf+s0tc8u2U89T+2vNJ+/UIl6PNL6Y5U3gByl9lFEthJJ2e/yZpGpcNz7IcIkYpY+/pnagYgAAAAAAAAAsAMSVjcnUdp1G5sDuT8AwzeYBPe8kzAmq45f+bU/qqYS9ZlQjEe6PZapxcTsZWUjyLZis8hVuocWkbwtHD9WNy7Sx085ZgAAAAAAAACwK/JgNidReoDW63VcN3lym5sJAcCwDamCewzc15UdmfcRlajf1HV9bTfa6Ca3i/TnMLXXorG109TiHpoLxdfyBppV1WyoAeB7SyEAgL26FgIAAACAcuXidE9FYiMfclFRhsnmhM3JMQQYuEdD+wdHpeqqqVLN78XkPipRv1eJejzWjXn6+CQWKiKyldgscp7unzgVYfQT39gwExtn0sc3OTYAu3AoBADAQ9fBogAAAABQNImqm1sKwaBJcN/cY7k+AMP2aIj/6FylWoXq+ztO7VNUok6tFo5xSPfJKrWYqB2ldiMiWzlI7c90+yzHuFkkvnNslEkfryq74oE9dDtCAAAAAAAAwB1nQrAxCdLDthSCrcyEAGC4Hg31H54rVF+6hA9yntp1XdcG7xGJUw9Si2q4cfLBFxHZyvOq2SxyMYbNInUj+tqo2n7s8gMAAAAAAACwT3VdR77DgUhs5CaKIwrDcOXTKz+IxMaOFYMFGK5HA//322X4cDHpf5crUU+FY1ST3kX6M0ntrWhs7Y/UVukeKnaXeN4IE4ntsTHmsUsOAAA7cSgEAAAAAPBLMyHY2EIIiiA/bjsnQgAwTENPcDcAbS4qUV/Vdb1IbSIc47BuRFL2k9Q+ishWIun7Tbp/rkvaLBK732MDTPr4rrILHuhGCYl+a5cRgAesKwAAAACAn5sJwcYkRruO6EMABkuCO6epRYLuXCjGI46gSm2aPh6l9llEtvK0ajaLvB/yZpG6sUgf/6qaDTAAnXVJBYyz1y5jt5dACAAAAAAAYPjquo68IEUiNnMTuSHCMHxRybJSxHIbzxV/BRimwSa4R5Vhk9jWRBzPU0xXeXHAeCbBy9RiEvcqtS8ispXj1D7FZpHIFB9YfzpPf2Jhe+oyAlAAGwwAAAAAAKAMclg2p+q364m+BGDQhlzBfebyte4gtT/rul7mDQSMxHq9vkh/JqldisbWzqvmVITe91Hp3ziNjS3532zDENAXTpEAAB7iRggAAAAAypMLy0lK3ZyEaNeTf50JAcDwDDnB3SR2dyKx7K+0VlgMrRI1m1s3Zunjs8rRRtuKzSLv8maRaQ8fBEzi35Y+XuV/KwDt+SwEFMI6ABjMclYIAAAAAIoUeUEKtW3m83q9duJtQdL1XFWKfWzjQLFXgOEZZIJ7JGdWkjL34TS1VYq3XWzjmhRfpzZNH19UkvS2FZtFrvqyWaRuRLX+T5UKyUA/53glPFRYuZIUwkM+AAAAAAC6pPDl5lT7LtNCCLYyEwKAYRlqBXeT2P2J3bBv6rpe9bESNbuzXq/fpzZJH1+n9kVEtnK7WWTe1T8g/f+OifoqtT9cDqDHVIymlWmMEACDGPRUiwEAAACAH8oF5I5FYmMLISiSjQvbkW8IMDBDTXCfunR7FxXzoxL1MlfQZyTW6/W8aip4XorGVmKzyHneLLK3SXNsTEktjh57Vzm+Dei/EhL9HPfY/dzFNQCGwsYuAAAAAPixmRBs7LN3JWVK13UV11ckNnawz3wdALY31AR3uzS78zy1T1GJOu+YZSST5NRiAXmU2kcR2W7CnNqfu94sEv/ZqcXu3avUngo7MBAlzC1UDweA/VoKAQAAAEBxZkKwsaUQFE0V9+1IcAcYkMEluEc1YpetF85Ti0rUFhUjsl6vl6nFPfiysit0W7ebRS7a3CxSN+ZVU0HYZiBgaEqo4C7BHfcjAAAAAABsKBeKU8RtcxKgy7YQgq1IcAcYkCFWcJ+6bL3xOLV3aXFxbePBuKzX65gwR9LTa9HY2h9Vs1nkrIWF/qxqEtvP8/0JMDSTAr6DIx/7wUa8dub6wG7ZSAIAAAAA35sJwca+rNdrCe4FS9c33kV6D7a5x4q5AgzHEBPc7aTqn9g5e5UmAO/zTlrGMWkO8/TxSWofRGS7CXRqbzbdLJL+bw5TW6aP71I7EE5g4HMKaMNKCIABqIVAnw8AAADAd2ZCsDHJ7a4zvyf3EGAgBpXgXieVxKc+O04tEnTn+VoxAuv1epVaTP6OUrsRka08aLNI3Vikj3+l9lz4gCGLzTqFjItLV5OC7suJKAADsBICAAAAgDLk90WKum1O4vM4LIVgK8fy2gCGYWgV3B3f3X9Rifq8ahLdZ8IxHpHQl1rcoy9T+yIi202mU/v0q80i8T+rmkSOU+ECCjERAtqcmgiB+xIGwDMOAAAAAPjaTAg29mW9XktwH4F8neXlbEcVd4ABGFqC+9QlG4zYUfuurutlaq7buCbSi6pJhnorGlv7brNI3E+prfL/7LEQAQUpIcnvo8vYG9dCAAyACjHtWAkBAAAAQDFmQrCxpRCMis0M2zkTAoD+k+DOrj1P7aqu64XjXcZj3YjJ4JNKst+27m4WiQXpVeVINqBMJSS4qxpOaay/YLeskdtZf65EAQAAAGD46rqOisqKvG1OwrPrzf09TX3ORBgA+m1oCe7PXbLBOk1tlSYHc6EYj0g0SG2aPh6l9llEtu7/9IFAyUpIcFc1vD9WQgAMwFMhAAAAAIB/nAjBViQ8j8h6vXa9tzcTAoB+G0yCe13XU5dr8GKn7Xm6lqu885bxTKyXqU3Sx1epfRERAL6Z50UF2xJOp1i5mq5FYSZCAPTcjRAAAAAADF9+VySPZHMf1okwjO+6C8FWZkIA0G9DquB+6HIVIxLY/kzrk6XjXsYlracuqiZR6lI0ALhjWsj3WLmUFMZcHXbEJv72lplCAAAAAFCESG5/LAwbU83bdefhDuq6lo8I0GMS3OnS89Q+pcnCRd6NywisG7P08VlqH0UEgILmedcuZW/mG0tRaMVECICeWwkBAAAAQBFUb9+ORGfXnc3MhACgv/4zoH+rBPdy/REThrqu57nCNyOQrnUkAU7TdY+Falz3A1EBGK1pAd/hi6MfKZD5GeyOZxztWAkBAAAAwLDVdT1Jf45FYmNfUjtTV3K0Plfe52xjFvePMAD005AS3J+6XEWLo6bepAl3TBpmqm6OR7rWsaP0fWxwyJNGx46xzcLd7weG6XkB30H19v65sYbYXrxYSPO1lUhA+7eXELSzpBQCAAAAgMFTvX078Y78XBhgs/snCnPm3CUAeubREP6RaSCZulSjEbsKr9I1f5936TISabI4r5oqhpeiwQNFYvuryoMPGKSC5nkS3Hs4vRCCVpiTw25MhcD4CwAAAMDfZkIAdEiuCUBPPRrIv9PR3eMTx099iqretXOURiOqg6YWi9ej1D6KCPcQGyKisuyFUMBgTQv5HhLsXJNSWYvBbljntrSMFAIAAACA4cqFD53GCnTpRG4aQD9JcKfv4hilVZpHzIRiPNbr9TK1afr4smqqc8O3YgPEs9gQkZqkFhi2aSHfQzJ1D6cUQtCKiRDATnhp187a0fgLAAAAMGxnQgB07HGlijtALw0lwX3iUo1+IvGuruvr1KbCMR7r9XqR7//XokH2ObUXsQFCMgsU43khY5Y+qX9ck3bYbAwtS+ta91U7bIYGAAAAGD5JpYC+CIAfGkqC+3OXiqqpcHdV1/UiH1PFCKwb8/TxSWofRGS0InklNjocpt/De+GAMqTxvJQHBTeuZj+nEULQCom40D7r2XbYyAQAAAAwYLkQxIFIAD1wnPqkWhgA+qX3Ce4SmfmB09Simvvc5GI81uv1KrVIhDyqJBKOzWXVJLbPY7eDcEBRpoV8j6VL2cu5g+vSjsfm3NA6G0fasRICAAAAgEE7EwKgR2ZCANAvQ6jgPnGZ+IHHqZ1XTaK7Y2JGJJLVUouEkFeVI+lLFxsZjtL1nsUGB+GAIpUyhqsg21/mCu2QjAvuqT6yRgAAAAAYNrkeQJ/MhACgX4aQ4O7FL78Sx1X9Wdf1Mh9fxUis1+uLqtkA81Y0ihPJiC9jI4Pqu1Cuwo6dlODu2pTOPBvcU31krQAAAAAwULmQ4WORAHrkaeqbJsIA0B8quFOK56n9lSYai9Rq4RiHdSOOLXuS2kcRKcLr6PfTdV0IBRRvWsj3+JL6LEnU/eXatEMyLrTrQAjaWRIKAQAAAMBgqd4O9NGZEAD0hwrulOY0tVVd13OhGI/1er1KbZo+HqX2WUQGKTYoPEnXcR67FoQDRmFWyPeQQN3zaYIQWJNBn6S16lQUWlsHGoMBAAAABigXLTwVCaCHbL4B6JEhJLirxs1DxTFW52lNtJI8MC7r9XqZ2qRqqoB/EZFBiA0JR7FBITYqCAeMQz7a7WkhX2fpiro+I/BUCKA11qjtuBECAAAAgMGSQAr01UFd1wo/AfTEEBLcJVOw8aQjtas08VjmRDpGIqqApz9xzS9Fo7diA8Kr2JAQGxOEA0anpAeX+rB+U923JTaOQms8GG/HSggAAAAABkuCO9BnZ0IA0A+9TnAvKCn5qFJRukvPU/uUfk8X+agrRmDdmKWPz1L7KCK9EhsPIrH9QihgtGYFjTdLl7Pf8wFz8NZMhQBaIcG9HTYwAQAAAAxQzgM6Fgmgx2zCAeiJvldwnxQS59WditJv/ew680dci7RgstNuRNK9d53aNH18kdpnEelUbDR4FhsPcsIhMEL5wWUpJ/TYQDUMkiDbISkX2hkDD0RC3w4AAAAwYhJHgb57XNe1vgqgB/qe4F5Ete31er3Kf0MkV6so3eEkJLU3aSJyndpUOMYj3XvvqyYxy2kK+xcbC17ERoPYcCAcMHqzgr7L0uUcBGNPO8ydwX2kbwcAAABgWzMhAAZAgjtAD/Q9wb2EKoHfJbKrKN0LUTn2qq7r97mKHiOQN5nMc99yKSI7FxsJXqeYT/IGA4AwK+i7LF3OQZAE2Y6oVqGKO2zHPdTSOuO2kAAAAAAAw1HYKb9A2U5Tn1ULA0C3HgnBzq1/+j9Yr99H4melonSXjlP7lOYkcxOTEd2U6/UqtVn6eFQ5TWFXYgPBYd5QAPC3fHrKQSFfJ5Lrlq7qIEhwb89UCGArKr7o1wEAAADG7EwIgAHxTB+gY//p+b9vWkCMf/viNRJA67q+SB+jnfpZduI8tVkkuqfrsRCOcciJidN03ePvcxFpRWwYmEv6BH5iVtB30c8NZ7y/to+x1fXZhTDAw+XqVAci0QoJ7gAwfK+FAABglCSLAkPrsxbCANCd/wjBzq3v9b+UVE2CdQyM80qybRci2eBdugazSoLuKORKwu63dsQpFGc2iAC/6HMjw7ikjXzmCcPy0XjfiqkQgPunByS4A8DAOfURAGB8CjvlFxiH4yhek9awK6EA6Majvs9xC4jxg168RlJ1ajGxf5naZz/RTkTy01VsNshV9ihv8TzJm0muKslubYiKSxPJ7cBvzAr7Pu9d0nLn5PzU4zSHOhQG2MhUCFqzFAJAHw8AADA4MyEABsjJEwAd6nuC+9OxXpicKBrJI47q7E5Umb2u63ouFOXI1/O6KquKcFc+pPYkKi7lUygAfuWsoO9yY6f+4Ehwb48HeeDe6dIXYzAAAADAIHk+BgzRTAgAuvNICHYrKrJv8X+7zkd1PqmaRFL273Fq53Vdr1Kz4BqwuH5xHeN65uvK5uJ0iaPUP51ILgHu2QdPq7KOnVy6qoMjwb095sTw8HHw0BpEfw4AAAAwVjnXwvMxYIieOt0YoDsS3AcgEkgjkTR9PErtRkQ6EUl5f6ZJy9LEZXCL5cO4bnH9qrKSK7vwJbVXqT+abLN5Bxils8K+z8IlHdx8+jqPY2wvHuRNhAEeZCYErbEOAQAAABiemRAA+jAAHqq3Ce6FJBG3mkQTCaWpRVxeVRJ0uvI8tb/S73ORWi0c/VU3LuJ65evGdt6mFontF0IBPLA/nqQ/xwV9pS85WZrhWQpBa6ZCAO4ZfTlDn6YKAfTGWggAAKDgBXiTV3EsEsCAOd0YoCN9ruBewoumnSQ/5QTTSdUknNKN09RWaS12JhS9XCTHdVml9odobO1jas9Sv3OWmheOwCbmhX2f9y6puTke5MED1iaxdn8qEu1wkhQtcjoffk/m6QAAwH54ngwM3UFd11NhANi/R0IwTOtGJPE+qZoEVPbvcWpv0iRmZSLTD3Ed4nrEdcnXh819Tu1F6memKhUDW/TLsWHxtLCvJcF9uJZC0JpjpxnBvXmB154bIQD6uvQRAgAAgJ+aCQGgLwNgExLcB269Xq8iATV9PKqahFT27yC1q7qul7k6H3sWcU8tEg6v8vVgc19Se536lUlqkjiBbZV20skXfeOg581LUWiVpF24n5kQtEY/DgAAADAgOX/iuUgABfBeDKADEtx3a29VjyNhJxJS08fXVZOgyv7FwuxTWqTNVbTc24I4zCPuqR2LyNYuUztMfclcKIA2+uiqvAR3ye3D5+Sj9niQB78fC2ON/lQkWrMUAlo0FQJaNBGC0XDKIQAAPIznyEApHtd1rU8D2LM+J7gfFhDf9d7/HzaJqZOqSVSlG+eprdLEZiYUu5Pju8rxZjuR7HeU+o9ZnAohHEBLIrn9cWHfSYL78C2FoDXHNnXCb1kT6sOBcXCa4HishQAAAB5kJgSAPg2ATfU5wV2yxIbWjRhUn1WqVHYlEvre1XV9ndpUOFrsGFI8I64R36q8xMl9+5zay9RfTOMUCOEAWuyrS6ze/iX1lRLch894166ZEIB7ZE9u4kGHMNCiQyGgxbUPAAAA36+XYu3tdEOgJIo/AezZIyEo13q9vo7E1fTxZdUksrJ/sWC7SvOb9/l4ejZfAE9SW0Q8LYRb8Tq1w9RHLIQC2IESq7frL8uYHy/Tny8i0ZqZEMBP1y+xFlfRtz02mdE2G+Zpi80SLUzThQAAAIo0EwKgQCdCALA/EtxHICewxsuWSGiV0NON49Simvvcbr6HqRvziF9qpyKytQ+pPUn9wlwFRGBX/XZVXvX2sHB1i7EUgtY8zVV4gO/NhEDfTe/nrcYwWvkpCcF2okjLgP65164YAADcmyRQoERnQgCwPxLcR2LdmFdNovsHEelEVAc7r5pE95lw/F6KUyx6r3PcVFfbzk1qR6kfOEltJRzAjhf1pfXZnweWdMGvLYWg9Xse+HodE8mOXuC1KJ/AAa3frkJAC2yUGNd4pFgEAADcZ8HtdEOgXFH8aSIMAPshwX1kIrE1ElzTx6OqSXhl/2Ih9y5NeJZ5Ycf3C97DiE/6+KeF79bi1IZX6b4/lBQC7KH/jsX8eYFf7cLVLcp7IWjViROK4Pv7orJBt0026bMrUyGgBRMhAAAA+M5MCICCKXADsCcS3EcqEl0j4TV9fFk1CbDs3/PUruq6XkgKatSNRfr4V44P23mb2iTd6xIzgX2ZF/q9JESXNQ9epT+fRaI1kcTrQR6MYzzsylII2JGJEOB31LkhPpe2lgAAgN/zzBgomdONAfZEgvvIrdfrRdW8iHkrGp05TW1V1/V8zEFI3z8mgKscD7bzMbUn6f4+c3QysMd+/LDQPvxDToimLDYttGsuBPDPeDitnEKlz2YoDoWAFijQsJ3rAf6brQ8BAOAX6rp2uiFQuoP8bhyAHZPgTiS5h0guflI1ibHsXyzwztMEaJUXfGNa4E7je6ePbyx0txYVpF6k+3kqGRPowLzQ77VwaYu0FIJWHeSkXkDllrbdWNuwQ0+FgG2k+c9EFAAAAL4zEwJAXwdAGyS48494aRyJsenjUeWo1a5Epb8/67pelv6SLL5ffM/08apS4XBbcZzz63T/TlJT3RDook+v059pgV/ts3612Hnv+zx+0p65EGA8/HsNdywSrVoKATu+b1VaYht+Py1MzY1N+l8AAIqa58X7Is/HgDE4EQKA3ZPgznfW6/UyEmXTx1eVxJ+uxPHGn9L67yIvAota1Cbz+H6VY5zbcJlaJLbPhQLoUFSrLfEUjoVLW7SlELQ7f5WkAjZ6GIsZoKkQsAVzn+1dC8Fo1UIAAFAkCZ/AWMTpxvo8gB2T4M5Prdfri/RnUjUJtHTjj9RWaVJUxDH36XvM4vukdu7Sbu1jakfpPp2lthYOoMO+/bDgfv3CFS6a6vztOxMCRjwextr5VCRaFSepSHxk1yQos42pEIySsQkAAH5uJgTAiEhwB9gxCe780roRi5BnVZNQy/5FRdw3dV1Hovt0iF8g/t2pxcufd1WZFX736XNqL9N9OY3TFoQD6IFSk8AvbSAqngT39p3mJF8Yo7kQ6KcZpKkQsAUnE25viMni1ontsMEIAKAw+dmwdRIwJhLcAXaszwnuHhT36WKs19eRUJs+vqiaBFv27yC1q7QwfD+UxKH4d6a2iH93ak9dwq29Tu0w3YsLoQB60s9HteZSH1bqa8uf38Z644NItG4uBIxwPIz1mert7ZPgzj4c2JzFhn2/5NyWpuUD/Der4N7SbSQEAADFkegJjM3juq5nwgCwO31OcPeguIfW63W8YI4XOJFo+0VEOnGc2qc0SZqn1ssXAXVjnu9jiR7bi+S7J+n+m6smDPSpr6/KTWT96JSM0ZA82T5V3BmjuRC07ouxmD2aCgF+N51ZDe0f7NlcayS4AwCU50wIgBGyuQdghx4JwU5NS/xS68a8ahLdL13mzpynturbbsD074nJ23X+9z12mbZyk9pRut9OUlsJB9Azi4L7+YXLOxoS3HfjQggYC9XbjcUUwUsoNjEVgu0N+HnXjau3NacgAAAUJJ9ydSASwAgd97U4KUAJJLizsXgBkdosfTyqPNTvSiQWvktzpevUpl0vWlNbpo9/WrxuLU5HeJnur0NVC4E+ypuZjgv9ep9T37twlUczn43qix9EonXHXc9NYY/mQrATxmL2yZiF301Ha68hLyVcvq15+Q8AUJaZEAD6QADaJsGdrUUCbiTipo8vqyYxl/17mtpVXdeLXEFwb+rGIn38K7XnLsXW3qY2kVwJ9FXegV5yH6Xy9Pio4r4bcyFgBGNirINVb29fbDa7Fgb26LGNWTyw/4/fi1MLt7ca8L996fJt7akQAAAUxelowJjNhABgN/qc4F5CFZTJmH5MOSE3vvNrt1ZnIrkiqrnP93EETvp/cVY1L6MkdWzvY2pP0n10lqvJAvRVJAOXmswRG/UWLvG45DmsTZrte55Pe4CS2RS1u7kG7JsxC7+X/RvyZqaVy7e9fRdqAQBgZ/O6WCM54R0Ys6fWuAC70dsE90KqdY1uEr9uzNPHJ1WTsMv+RdLhedUkuu/khVtUqkptlT6+qVSs2lYcx3yU7ptpaivhAPosb2wq+bSOC5uMRksy5Y7uqX1suoSOxsSTyglWO+s7hIAOSFjG72X/hrz2Wrl8rZgIAQCANRJAIWZCANC+R0LALkSibiTspo9HVZPAy/7FBos/67pepnbYxn9g7DiM/7z08aqyC3tbUSn2dbpPJqkthQPouzyWzAvvlyXUjddCCHY2Hz0TBgocE2tjxs7c2PhLV2NWW89OGMW6yDOxdiyH+g/3LK81UyEAACiCBHcACe4AOyHBfcfG/nIsHvZHAm/6+KpqEsfYv6gq+Ff6LS42raBZNyKB41OlSmEbLlOb5NMOAIYwn4nxY1GVfWqH6u0jn7NWNmXuyrljGSlQzOMlN+5oPBYCOmRTFvcxE4LWrAb+77d+2J6NRQAAA1fXdayRnPgOoIAGwE70PcH9poQ5vZ/Z30lD8ZJ6ktpb0ejMaWqrNKGab7AoXaX2hxBu7WNqz9L9MJNECQxMjONPC/5+qrcTFkIgtnCP9dGhtdFOvRcCOqTiHH4ne1TAiR3XruLWvPgHALBGAijJTAgA2tX3BPcSEkAnfmb5YjaiGtazqkn0Zf9i93RU0YxE9+mv/hfjf55avKh5V9l1va2o6PQy/f6nqXn5BQxK3uh0WvjXVL2dsBCCnXme+hJVcdFX8DuXxmM69jjPfeFna6NIxnWCRztKeDbsGd/2DjY9cRQAgF6skWIudywSAP+YCQFAux4Jwc5NhOBrkeAbib7p44vKUa5diZdxV2nNuUxt8s1CdJJaVM27qsqu1rsPURH4dWqH6Te/EA5gaHICR+mVzVVv53aOukp/PojEzsy/nXfCAMfFuTXSTlkz0QczIeAXbNhrz6qA77B0GVuhijsAwHCp3g7wtSigoW8EaFHfE9yXBcR44mf2Y+v1+n1qEZ9IAP4iIp14ntqnNMG6yInt86qpPmSn9fYiQS4S2+eqEAJDlCtvLKryT/FQvZ27FkKwM4/Fl4GPi5F8dS4SO/M5DcdLYaAHntuQxS/WR15QtufadyCbCgEAwGDZBAzwPc+PAFqkgvvuTYTg1yIBuGoqtVyKRmf+SO1T1SRsPBaOrdykdpR+1ye5EizAUC2q8qvUqt7Ot/PSOMXGCUO7E0mDXnowOHc2fbE7cyHA75Gei5eTnpm1Z/DJ4XmjtLXD9qZCAAAwPHlzuJMOAb53kt8pANCCvie4rwqIsSM27yESgVObpY9HqX0UEQYokiRfpt/xocqDwNDFyR7VOE7zUL2dH1kIwU69yZWwYUjmlRd2u15LvRcGesRLKH42FtCSgp6dLV3NrT0XAgCAYa6dhQDghx7rIwHaI8F9DwOXl2L3Fy83Upumjy+r5iU3DMHb1Cbpt7sQCmDo0rRlVjUne5QuKu2p3s6P+F3s3ntrJAY0Lp6MZFzstE+w4YyeiZdQThzh7lgwTX8ORKI1NwV9l2uXs7X5FgAAw2LdDPBz1rkALZHgvh8qFD5QThSepPZaNOixOG3gSfq9nknIAEqQqyq/G8nXneu7+ck8NH4XlyKxU5EgthAGBjIu+q3uYUwWAnrozGYs9FM7U1JS+NLlbMVUCAAAhiM/M7MJGODnjlNfOREGgO31OsF9vV6vComzBPfNrn+Yp49PUvsgIvRIVP09itMGCuqngJHLDySXI/m6N07d4DfmQrBz8XBPlR/6PC5GYmuMFY9FY6c+WFPRU6q4czseTNOf5yLRqmIS3NMYFt/FKaTbU9kOAGBYZkIAYK0LsA//GcC/MRJJh777c+Kntrn8svskv1BaVHYD0514YRUVfy+EAijJCJP4JCvx2/lnui3ipBbJTLv1JsX5OsV7KRT0UMz5nwrDXuIMvZ0zpnHqwqk/ozcXgtYtC/w+xy7rVg5i033eMAAPkn47s6pJHDmzcRIA9kbSZjuiGJNimfRxjh3rXO/HthdrFc+/Abb0aAD/xlUBcTYpbUEkvqQ2SR9fVSrjsH+XqU0ktwOlycnty2o8SXwfJNNyT3Mh2Iv3+QQJ6NPYGPf/qUjs3I0xmZ5Txd14MK280G3blwKTmI1l7ZgJARv005OqSRiJTSafYh6fn3MBALsbfyO5XUHCdiyEgJ5S7KEdT/OaBYAtDCHBvYQH3l6EtDmTahKMYxLwVjTYg6je+iz97maqtgGFWlbjqlArSYn7zjnj3rgRiZ2L5MGFJAT6IleAPBeJvbB5mEHMHb2IGrW5EOxk/ek78SOqgLKJRfX1aYQxj1/lOT0AYN7Wd++FAOvc4nkvDbClISS4F5FQqiphyz+KRkwEnlRNAjK07XNqL9LvbOp4XKBUaX6yqMaV3P7acdU8kOTL/Yh+aCnJnZ6s29+JxH7WW2lMXggDAxBJc3NhGOWYEEkbipa0b1naF8rPDZ02ur0D71B4YD999pN+Osbud+l/fp1P4gAA2ht/4/mtBPd23HhfRY/ZfNEefSbAloaQ4L4sJNYezu5ATPojATl9fFE1CcmwrXgh9Tru2fTbMnEHipWT209H1r9LVuahc82FOebePHWP0vG4GGv2pUjszVwIGJBTCXKjZF6yG6WOtZ4htkNlOx4yd39zjzXmVTz/choLALQmEjUfC0MrFkJAX+XNF044bofN3ABbGkKC+6qQWBuwdjvBep/apGoSk1XMYVOXVZPYPo8jAoQDKNUIk9vDmb6dDc2FYG9Oc/8E+x4Xb5PbvaDbD9XbGSK/2XGNCzH/OxCJ1n0p+JTEpcvbihOnOnGPPjp+Iw/ZVBLPv6Ka+9zvCwC2n68JgTUEo7EQgtbYzA2whd4nuBd0LM/Uz20vv5d5+jOpmkRluK/YfXqUfj8zR4EBpRtpcvtHiXRsMb+M344q7vsjyZ19j4uS2/dvLgQM0EFOeqb8cWFSefG4K8uCv5sK7u2I+ZikKX4nTtg42OC3dV41ie5+YwCw2VopNoodi0QrPhe8+RfrXL5nDQKwhUcD+Xd+LCDWT1WH2I91Y5Y+HhXy22F3otr/y/R7iartS+EASjfS5PYgQYVtzYVgryS5s69x8bb6o+T2/VG9nSE7d6TwKCyMCztT7MvxfFqY59DW7+x+/j6rtnuuFYnxf6b/nKUxHQAebCYE1kaMRy4MeSMSrXhsoy3A5oaS4L4qJN4emO13wrVMbZo+vqxU3eR7r1ObSK4AxmLEye1vVcKghXnlwnxy7yS5s+txMdbnq+rh1R/ZzlwIGDhjU9ljQyTWPheJnVkW/v0kqbQjCgVNhYGfzN/ftfQfF339X7HmVJgKAO5tJgStWQgBfqujI8EdYEMS3Pdr6ie3fzkhKR5+vhYNqqaa0pP0u5jn6koAxRtxcnskJM/9AmiJ39L+SXJnV+NirA+XlQq9ex+XbTCmAJF4eSEMRY4NE/O9nbrJ1d9KJsHd2ovd9dH1ju6xeFa2Sv/xfnMA8Pv10lORaMVnRZmwzh2lU5trATYzlAT3ZSHxtiOrI+vGPH18ktoHERnnYjG1o6jqP4IXagB/qxvxoOx0pCE4s5mJFueTi0oV9y7EQ7/3HvzR4tgoub07cyGgEH84VrhI740NO7UcwXphVTm+vS3PVXHnB330rk5eir7/PP3mVn53APBTMyFodV4DQ1rnei/WHs8TATYwlAT3UnYwPpWY0f0ELLWYNBxVXjiMxZfUXqXrPkltKRzAWOQ5R/R7Y62q8SH1+x4U0rYzIejEcfRn1lK0MDbOKsntXVG9ndIscgU7yhgfLirVCHd+z/iePNBcCMh9dNxXz/fw/yoS6K/S/7+lMR4AvjMTAmsGRsu7Vn0pQKcGkeCeK2+Wsits6mfXi9/UMrWo3PeqahKgKdNlapHY7vhwYFTuVKcda5LGFw8J2NEcMh7kfRSJTkR/tsz9G2wyNsYGlXeV5PauGJcpTfQlThgpY3yI/ukPkdip2OR0PZLv6sV/e1Rx57aP3vephJFM/yk2PxnnAeCf900HItGKLyNaG1GOhRC0us6dCAPAwzwa0L+1lIne1M+uP3Lic0wg3opGUSLx7Fm6vrO8QYbC5ZcNjnSCSnJ7pv9nl+ZC0JnbJHdjPg8dGxfpzxuR6G595jQtCh6XbKgf/trJNdy90SR95+PbnRpq7UU7ffS0ajaodiU2P61ykj0AjJmx0NqIEcubMj6LRGu83wJ4oCEluC8NVuxoQhaimt+TSkXOoYuJ9Yt0Pad2P49HfsmwqlRcg9v74a9q3NVpP+Qq27CruWOsSy5FojPRv/2Z+ru5UHCPcTHEuuBUNDp1JgQU7NSYNNwxomqeNzvZY/cWI/u+Nk2057nk4tH20bEBqQ/PdmKMeBdrCicKADBi5mPt8e4Kv130qQAPpIL7/h3kh3P0TFTYicTo9PGosgNxaL6k9jpdv4mkxvGIlwo5YSkq+XghjXuiri+qbitb9WU88GCAfZjn3xvdOU/93ntHxvOruWLVbIJ8KhqdurT5mJGMSeagwxojJLfvz+cRjgOeTbbrwpx/lH30+5710bGmuMpr0ImrBMCIxuUT66bWfJHHwIAthKC9tYWcQYCHGUyCe2HHWU/99Pr9W4tE6fTxdSVxaQiiguphumZzoRiHeImQWiyirioJS3BbnTYeijnFoKpmcSyLMLCH+eKqUpmxD45TU0mPH42N8zxX9AKuW7GeVr2dsXgnyX0466eqSW73PGE/RpfAkdekTnxqT8zn5sIwuj76oMdr0E+x3rDxAoCROBECayPIG9cVCW3PTAgA7u/RwP69Hw1W7HGSNk9/JpUXEn3uD47SdZrlJDMKl5N4476MBdSpiMA/RzbHPXEsGn9XiPWAkH2KBHcP9LoXiQ9XeY6AcXGST/g5F41emNt4xshIch/OHE5y+/4sRvq9rU3b9YdNraOYyw9pA1KsN66N+wCMYGyW4G6NAH7D7dO3AjzA0BLcSznO9KljDIdh3Zilj8+qcjZYDF1UAXyZrsu0sJMd+IX8suA2WUklTvj3voh+8EA0/k4yViGWvc8T/e565TwSmx3tOOpx8SzPFyUt9sNN6iaddMEYSXLv91ixqGyY3/dYcD3GL543X9sM266FitnlX+OBzeUP8ri/tAEDgEJFAqZ3su2uEWDI/IZbXEtYQwDc39AS3JeFLQgYzoLjOhKq08eXlZcTXXqd2iRdi4VQjEMkqcVLgvTxXSWJF27vizonZsR94eFinlepEEtHc8R4oGcTZH9EMsRfqrmPblyc5PniG+Nir9gAxJhJcu/nGirmbZLb92vh+9OieC5o81y5/XTcL0M9nfB51ZwqZhMGAKWRz9KeD0LA0OXik19EojUzIQC4HwnuBiseNmlbpD9RFfK1ydveF31PUvwdcT8SdxJ4/6qalwRAc28c5vmQxIx/vRprVUB6Na83L+yX22ruU6Eoflycpz+fzBd759JpWyDJvUdjRZ3XUMeisXeLkX9/ydjtO9W3FtlPR19RwnOu+A4rG64BKGgdZQ3VHpWv8VvmWzYRAdzToBLcc2LrTSGxfxqV5vwEh2fdmFdNorvdtrsV1fKPUryjMu9KOMYhvwSI6y2BF76+N6ISamz6eCoa//iYxgdJA3Q9N4wxy++wh+ut6t8qetZd5Y2J09Ti3jsXjd6JDT+qt0PjnSS3zseLmAMsraE6cTn2IhX5+1/6KbTuIm/+p4x+elGV9Qw4TpSKDdeR6C5hBYAhmwlBqyQF47fMd2sHawaA+3k0wH/zsqD4G6wGLJKZIvE6fTyqytl40ReRFBEVeScq/41HTODvJCo9FhH4596YpBZ94RvR+G6sMJeiL/PCuflgb0WyRFRznzsuvqgx8Sq1AxHppZlTt+Ar53mzlTFo/2PGNOYAleT2riyE4G82wrYvnhnqV4ffR9cFJrffFWuVP2PtYkMGAAM1E4LWfPCsjFKkn3IkuDvRWF8LsFcS3LulqlkZk7hlavGQ8qXJXCvepjZRkXc87iQq/VlJVIJv749I4I6kjOei8Z2ph4L0zEwIeuvvKnpVk+juOg13vrhIHz8ZE3vtQ37JAXwtkveWThTZ67gRz1yvKpvnu/JZwYpGikOs5z+KROti44o5x3D76NicsKzGcXpnrF3+Sl/5wqYMAAY0Vk8qG4XbZN6K3zQ/c2ydAPB7g0twL+xl6YHqDeVIv81F+hMLvreisZF42fMsxfFMwuI45Eo9sZFBohJ8f3/c3fghKeN7r3KiAPRpLhi/ydci0e/1V2rv8nHxM+EYzHi4yPPFUxHptdjsbRM//FwkB1w7enjn40aIZ8dOv+rWXAi+oojHbjzP80QG1k9XTXL72JLm/khtlTdgAUDfzYSgVZKB8ZvmVzwrBPiNRwP9d5dU9cQDrYKsG3FNn1Sq89zX59RepLhNJSuOR36Yv6qah/vA9/eHqu0/d+mUD3o8F5ynPzci0XsS3fs/FkpsH57YqLwSBvil2Lj6Z97oTftjxzSvo45Fo1Ox4cnL7q/XCBGPzyKxE6eS3AfVTx/mfnqsFWFjHvAmr0OnfhEA9NhMCFrzUWE/Cl3jfhGJ1sgZBPiNoSa4l/SQ/MSRI0VO6laRsJ0+HlVeYPxMTHpfpzhNHGM/HvHwPh7iV001NVWp4ev74zBXbXd//NyNhT4DMBOCwbhNdF+nNrcu681ccVFJbB+aD/lEM+B+/kh93bVTHVsbO25Ph7vKYzvdupDA8UNzIdgZSe4DmedXTeV2/XQTg6t4Bhgbe4UDgJ6N2YfG61bJgcBvm995al0A8GtDTXBfFnQNIoHNkSOFWq/Xy0jgTh9fVXYx3nWZ2mGucsoI5Cqc0Xd74Qzf3x+3CRl/Vaq2/0qMoyeSJRjA/C8q0r0WicGtyc5T+79IjlFNr5NxcBbJnnmuKLF9eOPzTBjgwaJ67V82WG09hsSYHeOH0+H6YyEEP1wjRFwUQdkdSe797qtneZ6vmMPX4hngJ3MBAHpGgaF2SQKmVEshaJWcQYBfGGSCe04aKemBsIVC4dJvNhIXJ1WT2D1mH1M7SvGYOb5+HHLC0rxqqnBK3IXv75GYA0R/KCHjHot7YwcDmvvF2HcjEoMUydVX+dj4M4kGOx0DD3MiUvTt76om2ZPhmdl8BluJDVbXNlc9eAyJTfSRKGATfb9cWrP90lwIdjuPl+Tey/56kef6/HousMobAQCga5Is23NjfUTBbN5ol5xBgF94NOB/e0kD5lPHEpdv3Zilj8+qJtF7TGJDysv0/adR1d6vYRzyQ/lYuJ+LBnx3f0wjeTJ9fFOpYHUfL40fDFC8DHCCz3Ad5D46qrq/zxXGJbtvP/5NcoXCGAPj5JJT4+CgvU3js5cZ0M6YE5urlo4k/u04cncT/bGI9M5cCH5OFfe9kOTer3n/deV0pvuKNdG7iJlNbwB0OH6fVJ7Ttcm8lJLXt1Hw5INItOZAziDAz/1nwP/2ZVVWtdPYkTXzkxzFZC8e7E7zIjEqu5deaep1fE9V/cYjP4SP37YqnPDj+2NeOdHgIS5zIgAMbc63yqc0qFY3fMe5RcJBPLSNhN735rf3Hvviwew0r3fND8txU0lkhLbFGuFT6jfj9L+5Sm9fjSWxyewsNwkX/V23+c3+3tz6YOdOb+ef5uud9dnx3mOhv95IrJeuzAUA6Ijq7e1SFIIx/MYVH2jPrFLJ/XZNOa2ad0rQZ9NciIU9+J///ve/Q+7U4gFlSQ/JnnhgNbqBueQXdJH8c+Y3Parf86RqEtstZH7taKyVqKMiYTXsxO6PcRKF+2O/Y0mKuYeqDL3vW1Sq1pUqTmWKh7jLvImVf3/30XfHmBl/D0SkOHE6xdTvvvP7LO6xK5Eo2uiT2/I6alZJbB8Cz7Xv/7uO8dOmv92Lavkn5it7/W3Hu455VVZhqi49G9vvNycHOA12Q+n38j+iMMq+d1kpprOpjd/3FDyO/59ItOYm/b5UY0a/wYPWsKnfmAiDdQHwvUcD//eXtutx5ic5LutGDM6xwLksZcFWNQm8J15sjWfxkieZ8cBd8i58fX9McnLrJ/fHRuOJuRElOMu/Z8oTLxDfpPZXbL6O/j612RiPkoxE25gPxovV1GIX/Z9Vk9giub3Qfk2yGOxFbJD7lMeX6QjHldt1VLzQktzeb6q3P3x9wO4d5Hm6eO+p366aZ8OS29vx1nwbgD1TaKhdSyGgdPnErA8i0d4aNhcOAuAb/xn4vz8S3EuqhniWBqwLR2eOcvK3Sn9m+eVdVPgdYhWfqOIXlcUuXNHxiCSuqqnMI3kJvr43pvneUD1lM1FpzXHilDLPW+fxcllJzirZ47w2Pc3jQMyNr/N1j3ZdSp+WE/hv27RSgXRsIolxIQywV3+PL6n/jQ1z8czlfYnz5Fz5K+ZMZ54xDM5cCB60PogNgR89L9ibN/kZzcwzhp313dEHSGxvzxf9KgAdkFTZroUQMBKRs6fAW7t98XthAPjaoBPc1+v1+5w4UEqiSHyPeIkz99Mcp3jBkf4c5iSoiwH9tt9WTXK7lwQjIXl36/uccu+NkzyWuzc2F3O7E2MKhfX917ly4DvRGI3HeSyIdp7HiLtJ76vcepv4nhPZI2El5n2T3Ixv43ZTqToLXXqa5xIXqY+Ol12R6D7ol145MfIkNy9Eh0n19s3MquaEAvYj+pdVPHMfer/Zsz48+u54h2FTUsv9g2diAOx5TJ9Yj7Xqs5NYGJFYX3nv1R6bjQB+4D8FfIfSqrjPKgnuoxcV8fLLykgeOO/xPzWqDc28yBqP/PL5orB+F9q4L2aVSoNtiOTPqYd/FDy/i4Rhle3G627S+91x5HZeHZb5b/SDt0kNrSfB5xdXk/xf3iayT+404xk/GqNtQIP+jCe3Vd3j3nyf23II92ieD02r5qWdjVPDHxtsfNpsbRDJ1m+tDfbed/6Z4v4hfreeZ2+9lljow3fio00YAHRAQmW7jOWMaW27zicOOuW1pXVr3pi9EAqAf0lw758DAxa3k8H0Z55+D/FbiITiPu2c/lw1LwIs0EYk/RbnVfPi8rFobOxGCIq6Jw7zPXHivmjNieR2Cp/fneW+QyIA33r+zd9vx5zbj7dV4B88bFUeMrP9GL0SBuidf5Ld83gRG6aWVZPsvuzJumlaNZupprlZO5XjwsanrcyrZrO8e2K/4hn7NPVNF37DD+7P6/y7tTFjN77kPgEA9s34066FEDDC3/wbYWjNiX4E4GuDT3CPBNtcraikB8FzAxZ3fuOrmMTkF4Lxu+iymmLca/Hgf+7KjIfjZls19sTdSQH3Q50XlpHYLlGwXS/7koQDO3aSxwPjKpu4rQIP+/TKGA2DcXtSyHneHHWT5x3/tF0lc945HWSa/x5aMxXts+eD28mV7uLZguPcu5lTx6mpsyjoodjQb/v3GFDOKoVPdm1uQykAHYzzE+u21tdJijgxNlEUU4J7e45jDWYzNsC//lPI91DFneLlhIJJfvExr/b/MPmyaqq2m0iNRK4wG4ntkqjasxz59x96MmfcE//nZ7wTL817GNGcbp03jy0ryQFA/12mbutCGGCwnuZ2emetH38+frNGjWc993kJP6n+3bh8+9kpIeN0JgStrA0W8R6g8uytK/Gc6l0+tVKi+zcktu/VR3NuAMzri7AUAka4rl2lpUMUWPBsqD3xnMD6ACArJcE9OvbTwq7NRZoEvJdMzA8miPHbWFT7Ow40XnrOVewbj/zyosR+tQ/cR8PmZd5uSG5njPO565zI8qdoAD12k/qrmTBAkZ5/8xceIhIx3wtDa2KsjQ0mnjl0526i+6JqTjAd7XuZXMk1YnHid7kXX3I/AABdOBGCVlknMVaxjlLFvd3nBBLcAbJHJXyJfMzP58KuTTw4tGOWn/3mQ/w+nlT/Vt1qW9xTkXQ4ldw+HvmEgFUluX0XPjpmFr4juZ0xz+fiYfdLkQB6KqruTIUBgB+YCUGr64JV5cV1X0Si+3lq/xcFZlIb1VwoThpLbZk+fqqaZ8OS2/dj7pkxAB2N/YfV8E9e7pMvNgIzYn777XqaNx4DUBWS4J6V+BD4LFdShh+KB5+RgF41ie6XVVPtY1sfUnuR/nMnkg7HI17YpLaqmp21Xl7shvsJvia5HXO55h64FAmgZ/6uIulEOQB+4LVEzJ2sC+ZVs7mM/ogE76t4XhqV3UtNLojEttTixNiY98UJY0722K8oiGKDCwBdUWyxXRJ8GfOadmVN27qZEAA0SkpwL3HCGEmmcz9T7jNhjKPjU4sNES9Se1vdv7J7VGqPxKqoIPq/6T/jxO7i8YiXM7kyz1Vll/4ufR57Iq8NW3xDcjv8O4+bVZLcgf6I5PZpPikPAO76nBOx2Y1Z1U7xEtp1W9X9U13X1zkZ/HDIX+hOUvsq/Zd/pfZHpeBJV/PuE2EAoEPGoXbJr2DsFkLQ+jMCAJL/lPJFIsG3ruuoPH1c2DX6Ix42qozDA+6F93cXULm6zOTH/6uSFsYqJxvPq+YFBrs3F4LqUAjIJLfD95OyWU6SeCoaQMdm1okA/GyMEIKdrgkieXpeNacr0k9Pc4t3NpGcvLxtfZ4/5fcD09wikU0ye3/m3U5MAqCr+YE5Qbu+KCAIf6+NaM9BvDf0rB6goAT3bFGVl+B++72mfq5sIm+OWIkEt9JEeJb+xNGnHlzsx41kXviH5Hb4uZjvLytJ7kC347SXcQD8yNs0RiyFYbdSjC9ystFz0ei9eK56nFuVE96v85puFZ+7SETIRU0O8/ryMDendvazTzXvBqBLqre3y7iO9Wyzafuz9UerZqmdCQMwdkUluMcDoUIHzDgyslbNAdhG6kamVZPYLnFu/wsPQHI7/G4ts85j9dJYDRinAeiReN4+F4a9iWSjVaUwxdDE9Xpe3dmc0OSa/33/xPWMZPd1/ry6swx8UBL8nQT2MPmmHfrdDEIUQ5GkAkBn8nziVCRatRQC+Fts9vhDGFozqyS4AxRXwT0sUjsv7DvFQ8mLSpIksIF8DG30IceisXevHBv1j6kQjFZUMZupTAW/dyfJPcYOVS6AfZHcDsCvnCi8svc1QSS5X4lGEQ5y+2FV/pwEz3jEMzIVcwHofH4vBK3z/gsai0qCe5sex/MB79iBsXtU4He6KPRaneZkF4B7qRvz9PFTJbm9C5dxtLQwMHLx4m5q4Q33l5OHTvL9A7BrbyW3A/ALr23c72RNsIzYiwQUJwpArIQBgK7HIyFo1QcbguGftWw8P/gsEq2yKQkYveIS3PPk8bLQ67XwkwXuo67rWdVUfz0XjU7EUbMzYfjKRAhG5za5XTIEPHxNE/fNtJLkDuxWbMh0xCkAP/MxjRNzYehsTRCx/ygSUIy3CkAA0LV86vdzkWiV8R3cE7sUxXAd/QWM2qNCv1epFXMPcjVmgB+Kkx5SW6aP76rm+Fv2L14+ToXhOxMhGJWbuOaS22FzktyBHbu0IROAX4g5qCph3YtroPodDN9HG0sB6NH8knZJ5oWvLYRA3w3QpiIT3HMySKnVTc7zzlqAf0S/kFosFq4qO++7FIlCU0fR/fhnKgSj8fcmD/cBtLaumVaS3IF2vZbcDsBvnFjT9WI9ENfgxHoABu2mkpACQH/MhKBVH6yb4Lt1bLzXslG7XdYTwKg9Kvi7XRT83RZ+ukCoG/P0MRYKpyLSmXjR+FKi0C89FYJRsMkDWpYfBk6q5qU4wLZizjoXBgB+ITZCLYWhV+sBlZ9hmOKZ8cxzMgD6oK7rw8q7urZZN8GPOdmgXccK4QJjVmyC+3q9jgGz1F1hz9Pg5aE2jFzqB2KnZrzkOk/tsYh05kNqh2ncWQjFT3+rqrePwyubPGBna5t4GT6tJLkD23lpzgr/UEkKfuyDjVC9XA/E+P1KJGBwTvImFQDog5kQtE4SL/zYUgjaX1sIATBWjwr/fvOSv5sdWjBOscM+tVgU/JnagYh0JpIMj9brdbyoWAnHLx0KQdGiGtWLdB9cCAXsjiR3YEuS2+FrZ3keC/wr5pkzYejteiDW3JciAYOafy+FAYAekRzZ8vrJ+2H46fo1Nn947taumRAAY1V0gnt+eVtqRaao1mxHKIxI3Yh+7a/UnotIZ2IxFpWqD72kuLeJEBQrEiCm+UEFsPv1zW2S+wfRAB4wdz2S3A7fD6uVF0Pw7Xgxy/NN+rsemFkLwCC8Mv8GoE/qup5Wiqa1zVgPv+bdcbueKoILjNWjEXzHkquJxgA29zOG8uV7fZXaqWh06m1qE5WqH8xiq0zxUn3qqGXYr3Ujqu2o3gj8zpc8Vi+FAn44pr6vJIrCrRNru8GYVU51gj679OwYgJ7OIWmX5F1wj+zbmRAAYzSGBPdFVfbRJ+d1XR/6KUOZYkd9aqu416vm5Aa68TG1J+v1+kw1s41MhaA4ryPB1v0A3cnVG1+LBPATkfh2KFkRfivGU0cmM3YvbYYa1Drg9lQnSe7QP5d5rQ4AfXMiBK26SWP+Shjgl2vXSHD3zE1fDrC14hPc8wPf0qslvK8TP2coRxwvlNoyfbyqHBnXpc+pHaWhZOpBxVYmQlCML/memAsF9GKtE/fiS5EAvhGbM81f4X5jaTw3nIkEI/Yq3QYLYRhk3zWtJLlDn0huB6CX6rqOhEhF1NqlMjW4V7pwoAAuMEaPRvI9I8G95J1hkfy68HOG4asb0Wd9Su25iHQmxoyoUD1Rxay1cYrhi2Q59wT0TE5IelaphAE0LvPmTKeswP3H0njZ9kEkGOmYcSEMg+27JLlDf8R9eCYMAPTUTAhaJ2kX3Ctdse4ARmcUCe4jqeJ+XNe1gQwGLN/Dq9T+EI1OXVZNEu9cKFr5XU9FoQivJctBr9c71+lPVG2Q3ALj9lLVSNhY3Ds2izEmKg2XsQ6Q5A7di/vPMzMAeimqqqU/xyLRqs/5eTzw+zWrBPf2nQgBMDaPRvRdI8H9c+Hf8Y3jSGB4IgE4tVgIv6kcEdelqE79LF7weiHRKuPSsEWSz5ENH9B/6T5dVU1yy6VowGjH64VQwMbjaKwBvSBiLCS3l9d/xTpAkjvsn+R2APrOOrd9EnbhYZya2K7HdV3r24FRGU2Ce37ANB/BV13mnbhAz6VbdZJaLIKvUnsqIp2JzU8vcnVqO+7bJ8F9uOKBQ5xmsBQKGM6aJycrvRINGI1Iqjk0XkMr42jcR29FgsJJbi90HVBJcod9i2IpktsB6Dtz//YthAAexKYQfTvAVsZUwb3K1cxKr+Ie1Z+XftrQX3Vjnj5+qhwL16WodPm6ahKCLKx2R4L7MO+Nl+m+OPGSDga77onTq47y/QyU62263w/zCQ5AO2PoWSVBlHJJbi+7/5LkDvvtTyW3A9BrUWgt/XkuEq36rFgaPJg8jPYdK3wLjMmjEX7n+Qi+49M0li38vKF/0r05S39WqZ2LRqcuqyaxfe5FxE5/77GwcjrBsHzM94Z5BAxcrkI7yfc1UJbYvPIiJ+IC7ZtWNolRHsnt41gD3Ca5WwOA/hQAToSgdRJ1YbN16geR0McDbGp0Ce45YWsMD3hPcyIt0APpfpymFju631XNSQt0I/r/o3gJodLlXqjePhyRwPMqV59yb0A5a58wrZoTS4AyRFVWJxDBjsfPSpI7ZZGMOc41wKVoQOve6k8BGBBjVvs8jwP3jj4eYM8ejfR7z0fyPd/VdW3XFnQojn/LJypcVSpZdykSE17m5N2lcOzNVAgG4bZq+4VQQJnixJL051lqn0UDBi0Sag5tRoO9jJ2xQd0pCZRAcvt4+7G47ja6QnteOkEJgKGo6zoKUHkv3a4v3jHDxiS4t+955CIJAzAGo0xwzxPPsRyBssgLGGCP6sY8fYyX4qci0ql4mTfJJ3iwX1Mh6LW7Gz9WwgHFr4FiThLrApUcYXhic8qRhBrY+9gZa8iXIsGAvZbcPvp+bJ77MSdSwObi/nnh2TIAA2Md0D4JurD52jROS/wgEq1T8BYYhUcj/u5jeTH8OLWlnVuwP+l+m1VNYvt5vgfpRiySnsTLvLxoYv+eC0Gv7w8bP2Bk1o2Yp7yoJLnAkMbsQxWioLOxM+bLNocxRC9zcjP6sejHpub/sJG4b6IwhIQ2AIZG0mP7zAfAPdQ3MyEAxmC0Ce65UulYjuiMBNv3UU7aTx52J05LSG2ZPr5L7UBEOnNTNRUuT1Sl7vR+mIpCL32+c3/Y+AHjXQvFg8RJpWIG9NltpUhjNnQ/bs4qSe4Ma/w4spmZb/qx6zz//ygacG/xjHmS7x8AGIy6riO53XvqltdZNrzB1pZC0LqnkaMkDEDpHo38+19UTaLXKAa2qqnkLskd2n9QEBbp41+VitVdipe4UaFMhct+mApB7+6POJ5+4v4AQq7mHi87VHOH/rk9acWLM+jPuDmrJLnTf5GMObXm4xfz/2n6+FY04Lcu8zNmG00BGCLV29vnGR1svyZdVc1zC9o1EwKgdKNOcM8Pp+Yj+sqS3KFl6XaKPiQm46ei0al4OTdRoaxXPEDrj0jEOXQ8PfCTNdFtNXdJe9A9J61Av8fMmfGSHovK3FOVhrlHX3ZW2eQKP3NbQGUmFAAMmPdz7ZPgDu1YCIE+H+Chxl7BvcrJkGM6mjOS3C/89GE7cbxbaqv08Ty1xyLSmei/n8TLOUlAvbo/6jze0P39EUlys7wrHuBna6J1foF/VI3nhCvom9iw6SQi6P+YGeOlJHd6N4ZEZW7PRXhAXxYJOofVuN6LwO/cnoKxEAoAhqqu61izem/dvqUQQCtsFmnfQer7p8IAlOyREPztbGTf9zQNcAuXHTZ6MDBJLRaxf8ZkUUQ6c1vdcipxt5fsFO7+/niZ74+lcAD3FX1GapP08XWloiPsSySWPbNhEwY1Xs6qZlMKdC3may9yRW54aF+2iucGee4PYxeb15yCAUAJvJ9r3wfP7KC9dWjVbCylXTMhAEomwb0ZROOh1dheTElyhweoG3H6wafUnotIZ+Ll7atIvpO422tTIej8/jDGA9usj+ZVU9Hxg2jATsft2w1pEmlgeGNlJBS/FAk6FC+ED3Mlbth27v+skmTAeOfkL/LphxLXABi0fLrysUi0zpoL2rUQgtbZ3AQUTYL7v+ZVU/F0TCS5w/0eCMSL61Vqf4hGp6KSTiTuXgiFRRRfiZdxr90fQJtyRcfoz49GuE6CXbsdt63HYdhjZdzDLyqnntDBOJJ+f4dOtKPF/uw6flOVau6My8c8J5e0BkApvJvbDXMFcE/13eO6rmfCAJRKgnuWqzOM8TjXv5Pc845e4I50W0xTW6WPb2JSKCKdiZcNz1TSGcx9c+J+2Zu7ie1z9wewo3XSMk6GqJoqtRL4YDuxYfOJcRuKGifjpdy0UvmY/YhNh0e54jbsok+L35Zq7pTu9gTEqTk5AIU5E4LWfTBfgNbXnStrzp2wyQkolgT3rwfSeCn1YYRf/TS1pSR3aKRbYZLaMn28Su1ARDoTL25f5JcN18Jh8cQ/JLYDXayVFtHv5P5Hojs8TGzYPMobNlfCAcWNkbFenVbjfKbI/rxNLaq2L4WCXfdpd6q5m/dTmg+5L3UCIgBFiXfb6c9TkWidStPg3hqKYzl/QKkkuH8vdraO8cFtLHgkuTP2xX+Yp4+fUnsuIp35O3k3qsU6InaQpkKw23ujktgOdGTdiLnSpGqSrIBfi0o0R3nD5lI4oPgx8iTP16FNt1Xbz6wB2XO/FvP+SHS3eYdS+tIopHJiwykAhVJ8ajeWQgA7IQfEWABwbxLcv5Efbs1H+vVvk9wnfgmMTfrdz9KfuP/PRaNTl1VTRWcuFIO8j2LR5NSD9sVLuJeVxHagP2umEBuDn+SxG/jB2B3VTyW2w+jGyFjLPsv9AGxL1Xa67tNWefPOkX6NAXud+1JJNACU7EwIWndjYxzsbK15bY1pLAC4LwnuPx5M43jCjyP9+pHkfl3X9aFfAmOQfuvT1GIC/S61xyLSmehzoyLZzMOCQbMruP374mU+zWAhsR3o4bopEl5mlUR3uPX57tgtHDDa8TGeMRwaG9lCnADyTNV2etSvLWN+UzWb77+ICAMRz9WeKBYBQOlyXofiU+1bCAHslA2o7XuqoC1QIgnuPzerxvuwNpJ8l7kSL5S62J+kFpPmq6rZ2EE3bpOApiqSFcG40Y5IhHmW74uFcAB9902i+9tK0gvjE8kzLyS2A3fGxnUeG18YF3mA+K3cngByLRz0sG+Lec6kaipi69voq9gkdJSfq62EA4ARmAnBTki+hd1aCMFOyNcAiiPB/Sfyg6/5iEMQSe5/1nXtCBOKUjfi3o4Xhcci0pl4CXZ7PKzFSxn31knlFIRtfM73xP/mkwwkMwCDXENFpdFK0gvjcXsKUSTPeOkF/GhsfJ/HRdXc+Z3YJGijFEPo18L8zpwf+uK2kMqhQioAjIxkxvbd2CgHO19bXuc5PO2S4wcUR4L7rwfUi/Tnw8jD8Kau64VfAyVIv+VZ1SS2n1cScbsU/eqh42GLMxOCje+H24qv7gmglHXUOvdpdfovX1YeUlKeSFR94hQi4AHjYqyXjqqmqiz8aEw5sx5kiHP+qjnFKX7HNrfSldvEdpuEABidXHzqQCRaZ04B+6FoTPsO0thwKAxASSS4/96s8nD2NA2A11H22s+BgS7up6kt08d3Fvmduj0e9sSu9+LusRgfnIjwsHvhVdVUaz9R8RUoWSQYRKJB1ST1fRARBuzb01bMZ4GHjonLqCqb1wISQbk9BcSYwtD7tlXexDOpnOLE/ufnEtsBGDvV23fDezvYD/P43ZgJAVASCe6/kSvn6Pyr6mlqq0gUFgqGom7EpPgqteci0pl4seV4WIuksYuXbnHk/LN8L1yozgeMbF0VSX3xwuVJ7g8lvjAUkYDotBWgzTExToyc5PGQcY4rR04BocC+7baie/RvkejuFCd2RWI7APxLgvsO5ho2IcPe1pHXlXdFxgaA35Dgfr9BNXZoeulUVY9Tu6rr+kwo6Lv0O52nP7H4PBWNTsULLS8bymdc+LFYkMcx3bdJcWd5oQ4w5rXVKveHcfrHy6pJ8oK+ud2Y9iQnIKraBLQ9HoZYRz3JawbKJ7GdMfVv83yKk/k+bfejLyS2A0CjrutZ1eRv0C7PAcE9N3QHaYyQ5A4UQ4L7PeWXTjci8bc3aTB8H6WxhYIeLuZPUlulj+cW9Z2KFw5PVLkcxT03jUWSSPzjblJ7nY+btzAH+PEaaxFJXlWT3KfKI33w7ca0lZAAOx4LY+PXrJLoXvrY8kxiOyOf7z/L94LKfDzU7XM2G08B4HuSF3djIQSwV+b4xgiAX5Lg/jCzykPYW8epXefERuhc+i0eprZMH/+sJNt2KRLTbiuSrYRjFFRvbzbARZXXZ5LaAR4uJ/fdVnmU/EIX43hUF/1fYzjQ8Vg4qyS6lyLmMbF570keW5zkxdj7uOvcx03yvEshIe47R5/kfnQlJADwr1yI8FgkWvfZ+g32vl6M5/HeB7XvRNFaoBT/EYIHDayR0B2JfO9E42+RRHyVYvI6ElKEgw4X8BepnYpGp2LREYlpF0IxqvtvUo3zAVr83pdVs6N86SUbQLtrrqrZWFzlIxRvm5N5aFMkzCxiLDeOAz0bB6NPmqUxcJ7HwzNj4ODGl4uoWi0U8MM+bp3nYIv8TOksz/UVKyF8uf19SCwDgN9SmXc3FL6A7u49+T7tepzHioVQAEMnwf2B4gVFrlpucP3XeU4+UZGIvcobTuaVl71di8rV8/ySinEZU/X2j1WT1L50rDzA3tZe8VDzfZ73SXZnW5LagSGNgdFPzdP4d5HHvlh7PRWZXvqS5ysXnovCg/u56NvO8vuWmbn+qPvQ905SAoAHcbrybiyEADohwX03JLgDRfif//73v6Kwgbqu44WFF0vfU82dfdx/0zwRU92nW5Hwe+YF7mjvwzg9YVWV+eIxXq7F73pZSWgH6OMYdFj9mwBjPsivxvMYw28TZmzGpMR18ZVIbOxoaPP8PP7dVjuWANq9D3l8WQgFtNrXRR83Ndcvfp4uqZ0f3f/z9OdcJDaT7qf/EYVR3jexpnkuEhv5mO6b6UCv+yT9+eQStj9HSb+JWhigs74tnt973tW+/x3au5H0W5hV+aRngCDBfbuFw7UB9oeiMp5q7uzqvltUHtZ07XPVJLZ7ATHu+3FelfXC4e/khBjbjV8Ag5sf3ibBTK3PrEWrfzeomatSev8XfZ4E980dDXkja37RE+PfsUvZybrRxinYT193WP17ipNiQ8P2Ofef5ukAsP0cKZKwD0WidWvvB6HTvm2W/kxEonXv9W3A0Elw326AnVZeJv7K66o5ntcLH9pYqM9T+0M0OvUl39NzoSDdlquqrEpaT/Lx2AAMf41222yKLF8kyiyrf5PajeWMrb/zTGpzRyWc1JSfl9wmf0p2b5/TQKB//d3tXF9192H0n8vcf5qnAwAAAPBgEty3VNd1HA38RiR+KhIOZiW8NKSze2yW/lxUqnF27bJqqrZ7mcvtffmuoK90k37aql0AlDlmTSsJ76WtL5eVhHaQ4L69o9KeVeXkz/hd3Ca8e46y4fqwchoIDKHPm9yZ50eT8N6t24T269x/LoUEAAAAgG1JcG9BXdeL9OdUJH4pjvA9k4DAA+6radUktjt+tlsfU5t7KcE392f05SW9OHyVfuMXrizAaOaYsanp9q9EmP7PRf9Okom/1pPwXX8mwX1zR6Wvc9Nv5Ha8i2R3m7x+zuYpKKPPq+/M8W//2uizOzffzNMdeQ8AAABA6yS4t6Su63iAJxH3916ndqEKNL+4lyZVk9juaO1uxQveSGxfCAXf3KOzqqzq7eGJJAaA0Y5rkQhzNwlG0nt3bpPZ/26SZOC3/Vf0WxLcN3c0to3cNnl9N94sK5unoPR+b3Jnjh9938Rc/8G+3Jmjr3K/uRQWAAAAAPZBgntLcmJEPOTzgPT34qHomcRZfnAPnaV2Lhqd35+xwcBGFH52r64KG+tu0k/90JUF4Jvxblo1CTDRbj9b67UjEgtXuS3jr+RC2LifkuC+uaOxJ+h9k/hZ4iavz3fHmsrmKeDHc/3o++K59NhPuoiK7OvcZ8bf202nng8DAAAA0BkJ7i3KR/8uK0df3le8aIpE9/dCMer75jax/cy907nLqqnavhIKfnK/zqryqre/tOEKgAeMhdOqSYCJtd/kTpP8/rWP+W+sj28TZCSyQ/v9kQT3zR2pQFvEWHebxH7bYrxZu7bAln1gVf2b+H7bB97+94b2/Pq2Ant1p6+8nacHSewAAAAA9JYE95Z5wbiRSH6Ye/k0yvtlFte+khDUtajQc+Ye5B737KrA+/V/vcgDoKVxclI1yS+3SYFV9W9iTLSnBXzNuwkyfycRVv8msFfmk7DXPmdaef60DQnum/3u7o5xt+Ne9c2Y15b1nTEnrKp/EzMlZAJ9mfvfNd2yz6s3/L/79nQKG0sBAAAAKIIE9x0otMLtPkh0H9c9Mq8ktnctEpTOVK/mnvdt3LPnhX2ty/T7n7m6AHQwrk7v/pfVv8mCv/rv7cryN/89CTLQ335EgvvmJLgDAAAAAAD02H+EoH2RLJorGr0RjQd5ntpVCl0kui8k3ZYl3xNnqc0qie198Dq1CxXPeOD9W5r3ri4AHa0Zl8YkAAAAAAAAAPgxCe47sl6vL+q6jop7p6LxYJHo/jxXC472XhLucOXjWmdVkxz7WEQ696FqqravhIIHmBd4/35O94FkQgAAAAAAAAAAgJ55JAS7s16vZ+nPpUhsLKp8v0ttFcnuOVGagYgNHqkt0sdPqZ1Xktu79rlqjmA/kdzOA+/l6Hv/KPCrLVxdAAAAAAD4f/bu9rqN4woD8CQn/zWpQFAFpCrgqgIxFQiswFQFBCswXYHBCkxWILCCgBUY7GBZgXLHu7QQxVIoEB/78Tzn3OzSzkmEuzPLIH73LgAAAHSPgPuOtSH3W514kRKMLgHp33PON1GnWtJdcX2mUcs4/XfyBoMueIz6GPeiSdRCO9jA3OcCAAAAAAAAAABgX/6hBXsxjVpEHWnFi70vlXMu06jnpUyjPrwyrT0O51Hl4QOT2rvjl6hZ7JFaK9hwb1dxOBngR7v1uwMAAAAAAAAAAKCbBNz3oIRL25DgIgm5b8vr1Ex1v4je3qUm7H4jyLs/0fdJagLtU+u6c8qemArw8sI9npPp7QAAAAAAAAAAAOyZgPueCLnv1Elbv0aPb+N4k4Tdd6INvJ629V5HOqe82eA8lv6NVrAF5a0Mr4e4T+wRAAAAAAAAAACA7hJw3yMh971435aw+5asTWovdaIjnfQYdRXLfKYVbHHfXwz04125wgAAAAAAAAAAAN0l4L5nQu57tR52v09fwu5Lrfm+do2WQHtlnXbedWqmtnuIg22aD/RzPQ74swEAAAAAAAAAAAyCgPsBCLkfxFFbF9H7x7b3f5TA+x+B9uPUhNmf6pUl03l3qQm2e2CDbd8PztNw39bgjR4AAAAAAAAAAAAd97fPnz/rwoHkkITcu+Ap8F6CwiXwvhjBulsPtJdzgfb+eEhNsP1GK9jB/WHS3guHek94E3tn5UoDADCA/+1evs9/0omNvRv6//8DAAAAAADQZya4H5BJ7p1Rgpzv27po8t/pPjUhz1V7fZZ9nPrbhlVLlXV23NZrl7yXyoMYV6VMoGaH5mm44fZr4XYAAAAAAAAAAIDuE3A/sDaoepxznsfxg450xlH68tDBRfmXuEYlYPwUel+15+X6HTT8vhZi/7pOXMbBuI6aCeey43vJ+cDvG3NXGQAAAAAAAAAAoPsE3DuirutpOzlcyL27ylTjk/QXAdD22j2kJvhePIXfnyxe8N9brZ1P2iqO03AnLdO4S02wfaEV7FLcw8r95Och7yX7CAAAAAAAAAAAoB8E3DukDbmXUPRPutFLr9sqvg7BX2gPP6C8LeA87glzrWDXcvOEztDX2syVBgAAAAAAAAAA6Ie/a0G31HV9HocznYDRuoyaCLezR7OoowF/PtPbAQAAAAAAAAAAesQE9w4qwdZmoG66inqlIzAKt6mZ2r7SCvYlftecpuG/NWTmSgMAAAAAAAAAAPSHCe4d1U5vrqIedQMG7T7qXez5U+F29innPInDfOAf0/R2AAAAAAAAAACAnhFw77C6rpdxOE5NABYYlvLwysfY58cCuOxbbl4TcpOG/5aQmasNAAAAAAAAAADQLwLuHddOdK6ibnUDBuOXqEns7yut4EDK2jsa+Gc0vR0AAAAAAAAAAKCHBNx7oG6cxumlbkCv3UW9if18Xja1dnAIOefzOHwYwUedudoAAAAAAAAAAAD9I+DeI3Vdz+JwFvWoG9ArD1HvYg9X7VsZ4CByzlUcfh7BRzW9HQAAAAAAAAAAoKcE3Humrut5HKqoe92AzisPo3yMfTsRtuXQcs7HcbgZycc9d8UBAAAAAAAAAAD6ScC9h+q6XqYm5H6rG9BZ11El2H6lFRxaDnGYR70aw95rf08CAAAAAAAAAADQQwLuPVU3TuP0o25Ap9xFvY39OS2bVDvoiEXU0Ug+68zlBgAAAAAAAAAA6C8B955rp0O/jXrQDTiosgf/FXuyMj2aLsk5z9N4wu2Xsf9WrjoAAAAAAAAAAEB/CbgPQBumPY661Q3Yu8fUhGonUTfaQZe04fYPI9qLV646AAAAAAAAAABAvwm4D0TdOI3Tj6kJ+QG7dx11HHtvphV0Tc55msYTbi/Oyy9CVx4AAAAAAAAAAKDfBNwHpq7rMr22irrXDdiZu6h3sd+mUSvtoGvacPuvY9qTsRfnrjwAAAAAAAAAAED/CbgPUF3Xy6jjOL3UDdiqh6iz2F9V1EI76KIRhtuLmSsPAAAAAAAAAAAwDALuA1bX9SwOb5Np7rAN5YGRY1Oi6bKRhtuvPXACAAAAAAAAAAAwHALuA1emucehSqa5w6Zuo96UB0aiau2gq0Yabn+MOnf1AQAAAAAAAAAAhkPAfQTqxiyZ5g4/ouyVd7F3TqNW2kGXjTTcXpx78AQAAAAAAAAAAGBYBNxHpExzjzpOzTT3Rx2Bv1T2xlnZK1EL7aDrRhxuv4s9OrcCAAAAAAAAAAAAhkXAfYTaae4l6H6nG/BffomaCM3SFyMOt5cHUaZWAAAAAAAAAAAAwPAIuI9UXderqCpO/xX1oCOMXHnY403sifOoWjvogxGH24ur8nvMKgAAAAAAAAAAABgeAfeRq+v6JjXT3C91gxEqD3e8Kw97CMvSJznneRpvuP2+fRMJAAAAAAAAAAAAAyTgTgm5121Y8E1qJlnD0D1GfYx1P4laaAd90obbP4y4BVOrAAAAAAAAAAAAYLgE3PlTmWBdJlnH6buoex1hoK6jSrD9Sivok9xYpnGH2y9j7y6tBgAAAAAAAAAAgOEScOd/lInWUcdxehb1oCMMRHk7wZtY29PyygLtoE9yzuWevIg6GvMebt82AgAAAAAAAAAAwIAJuPNNdV3P41BClZdRjzpCz92UtxRoA32Tc66ScHv5HTS1GgAAAAAAAAAAAIZPwJ3vqhuzOJ0kQXf67eec81wb6JNYs9M4fIp6NfJWnHtABQAAAAAAAAAAYBwE3HkWQXcG4kPOeRk10Qq6LDfmcfqrbqTb9o0iAAAAAAAAAAAAjICAOz9E0J0BOIoqIfdKK+ii9gGMRdQH3UgPUVNtAAAAAAAAAAAAGA8BdzYi6E7PvYr6lHOeaQVdEmvyNA7L1DyIQUqn5ZeNNgAAAAAAAAAAAIyHgDsv8lXQ/Sw103ahLy5yzot2YjYcVKzDqzj8lpoHMEjpMn6/LLUBAAAAAAAAAABgXATc2Yo26D6PmqQm6H6nK/TESdSynZwNexdr7ziqBLl/0o0/3bYPTwEAAAAAAAAAADAyAu5sXRt0r+L0bdS1jtADZWL2bznneVTWDvYlltt5HBZRR7rxp/ImkKk2AAAAAAAAAAAAjJOAOztT1/Uyahqn/4z6mJrQInTZh9RMc6+0gl2KNTaJWsTpz6l5wIIvTssrQbQBAAAAAAAAAABgnATc2bm6cRU1iR/fJVPd6bbXUZ9yzlemubML7dT2ZdSJbvyPs/JwlDYAAAAAAAAAAACMl4A7e1XX9eKrqe73ukJH/RS1yjmfagXbYGr7/3Udvx/m2gAAAAAAAAAAADBuAu4cxNpU9+P48U3UL1EPOkPHlBDybznnmxJO1g42FetnFoffk6nt33LfPvwEAAAAAAAAAADAyAm4c3B1Xa+izqMm8ePbJOxO97yPWrYhZXi2WDNV1CpOL3Tjm8r9vtIGAAAAAAAAAAAACgF3OqWu66WwOx1VprlflLBy1Kl28D1l4n+Z/B+nn6Je68g3PUadlld6aAUAAAAAAAAAAACFgDud9Rdh949R9zrDgZWw8m8550WZzq0drMuNWZz+nprJ/3zftNzrtQEAAAAAAAAAAIAnAu70Qht2v4o6jh//GXUWdZ2a6b9wCCdRn3LO8zKtWzuIdXAeh1XUhW48y1nc02+0AQAAAAAAAAAAgHV/+/z5sy7QaznnEnqv1uqVrnAA5YGLWV3XK60Y3T1oWq59aqb788z9Entlqg0AALDx95AqDp90YmPv4jvJQhsAAAAAAAC6ScCdwfkq8F7OhU7ZJ0H38dxrpkmwfaM9ItwOAAAv/j5SJQH3lxBwBwAAAAAA6DABdwYv5zxJTdD9Kfhejqa8f99d1DKq9O69dmxE0H2495RpEmzf1H25D8e+qLUCAABe9L2kSgLuLyHgDgAAAAAA0GEC7ozSV6H3pxpjWPUhahW1SE2gfbkeyI4+5fbvHVk1GytB97l/cN77e0bZC9Oo8yTYvinhdgAA2N53lCoJuL+EgDsAAAAAAECHCbjDmpxzCbpPUhN4n6yd93ni+2Nqwuurtv44r+t6+cyeCLlvR5mKX4Luc63o1T2h3ANKqH2avPnhJYTbAQBgu99VqiTg/hIC7gAAAAAAAB0m4A7P1IbfS9h70lZRrf1bTg7wx7pbO1+0x1Vb9XND7M/47ELu21Om5s9TE3ZfaUdn93vZ29OoD7rxYuUhm2pb9yMAAEDAfQsE3AEAAAAAADpMwB12oA2EH3/jb1fP+I9YfOOvLw81AbkN+Jc/lynW23ObmqD7jVZ0Zt9OUzOx/bWObIVwOwAA7Ob7S5UE3F9CwB0AAAAAAKDDBNyBZxNy35kSAp6nJuwuCLz/dX2ammD7e93Y+roWbgcAgN18j6mSgPtLCLgDAAAAAAB0mIA78EOE3HfuIapMdBd23+06rlITaj+1lndCuB0AAHb/nUbAfXMC7gAAAAAAAB0m4A78MCH3vRF23+66LWH2KjWh9tc6sjPC7QAAsPvvN+W7jYD75gTcAQAAAAAAOkzAHdiIkPveldDwTVuLOmjJ/12jOTVh9iqZ1L7PdSrcDgAAu/++U77nCLhvTsAdAAAAAACgwwTcgY0JuR/UffoSdl9ox59rskpfAu1HOrJXwu0AALDf7z4C7psTcAcAAAAAAOgwAXfgRYTcO+O+vQ6llnVdr0aw9sqE9rL+qrZOLIODEW4HAID9fh8q34EE3Dcn4A4AAAAAANBhAu7Aiwm5d1IJHC/b61KOqz6Hj9fC7OtlQnt31ppwOwAA7Pc7UpUE3F9CwB0AAAAAAKDD/qEFwEuVYGv7D9dvol7rSCeUhw1O0tpU8yYj/sek91VqQ+9P1ZWJ7/FnnMShVAmwlz9w1f5sXXVTWU8l3F5rBQAAAAAAAAAAANsg4A5sRRtyf5rkbrJ2dx219X79L7bh96ep78WqrT8u79pf/5bl90LO7drITz+mJsCe0pcg+yQJsfeNcDsAAAAAAAAAAABbJ+AObE0JuraT3BdJyL2Pnqa+p7Xjs7UhecbhLupUuB0AAAAAAAAAAIBt+7sWANvUBl6rqFvdgEG6jm1ucjsAAAAAAAAAAAA7IeAObF3dOI3Ta92AQbmMvT3VBgAAAAAAAAAAAHZFwB3YmTYI+1EnYBDOYk/PtAEAAAAAAAAAAIBdEnAHdqqu66s4nEU96gb0Utm7b2Mvz7UCAAAAAAAAAACAXRNwB3auDcZWScgd+uY+6jj28FIrAAAAAAAAAAAA2AcBd2Av2oDsJDWBWaD7bqOq2LsrrQAAAAAAAAAAAGBfBNyBvalDaia5X+sGdNplbNfTds8CAAAAAAAAAADA3vxHgPbu9riJKwoD8E0F3A6sVICoAKkCTAURHeAOTAeiA9GB6UB0IHcgd3BcgXNuVooZgifgD2l39TwzZ+4lvzIv2h/MvHtWwR04qOgs8nohDeid25z3+YxeigIAAAAAAAAAAIBjUHAHjiIilnnMS1eoBY7vOmeaz+aVKAAAAAAAAAAAADgWBXfgaCJincekdMVa4Hi+5MzymdyKAgAAAAAAAAAAgGNScAeOKjrTvH6WBhxc+4LCh3wGF+1BFAcAAAAAAAAAAADHpuAO9EJEfMxjXrrCLfDy2pcTpvnsrUQBAAAAAAAAAABAXyi4A70REes8JjnfpAEv6nP7ckLOVhQAAAAAAAAAAAD0iYI70CvRmeX1Qhrw7G5y5rsvJgAAAAAAAAAAAEDvKLgDvRQRyzze5FxLA57F15zp7ksJAAAAAAAAAAAA0EsK7kBvRcQmZ5rXT9KAR7vNeZ/P0nn7PII4AAAAAAAAAAAA6DMFd6D3IuIyj3nOjTTgt7St7ZN8hq5EAQAAAAAAAAAAwBAouAODEBHrnEmxzR1+ha3tAAAAAAAAAAAADJKCOzAou23ub3KupQE/9bnY2g4AAAAAAAAAAMBAKbgDgxMRm5xpXi9Kt6ka6F76mOez8dHWdgAAAAAAAAAAAIZKwR0YrIhY5tGK7l+lwQlrL3lctJc+ctbiAAAAAAAAAAAAYMgU3IFBi4htznle5zk3EuHEfMmZ7F72AAAAAAAAAAAAgMFTcAdGoW2uzpnk9VPpNlrDmH3LmedvfpET4gAAAAAAAAAAAGAsFNyBUYmIyzwmpdtsDWPTvlLwIX/ns/ZShzgAAAAAAAAAAAAYGwV3YHSis8jrn6XbdA1D175K0L5OMM3f9kocAAAAAAAAAAAAjJWCOzBaEbFtm67zOi+K7gxXK7ZP2tcJ2psb4gAAAAAAAAAAAGDM/ri7u5MCcBJqred5LHPOpMEAfMlppfatKAAAgB/+fVvzmEri0TZeIAYAAAAAAOgvBXfg5NRaF3lcFkV3+kmxHQAAAAAAAAAAgJOl4A6cLEV3ekaxHQAAAAAAAAAAgJOn4A6cvF3Rvc1baXBgtzmrnKViOwAAAAAAAAAAACi4A/yr1jor3UZ3RXdeWiu2L0tXbA9xAAAAAAAAAAAAQEfBHeAHtdZJ6Yruf0mDZ3bTflsRsRIFAAAAAAAAAAAA/JeCO8ADasrjY84i50wiPMHX0m1rX4sCAAAAAAAAAAAAHqbgDvALaq2L0hXd30qDX9S2ta/aRMRWHAAAAAAAAAAAAPD/FNwBfkOtdVLut7q/kgg/0ba1t1L7lSgAAAAAAAAAAADg9yi4AzxSrfW8dEX3d9I4eW1b+zLnyrZ2AAAAAAAAAAAAeDwFd4Anqql0Rfc2ryVyMm5zVqXb1r4RBwAAAAAAAAAAADydgjvAM6q1TvLYb3ZXdh+fVmq/Kt2m9itxAAAAAAAAAAAAwPNScAd4Icruo3GTsy5K7QAAAAAAAAAAAPDiFNwBDuC7svss551Eeu+6dKX2VURsxAEAAAAAAAAAAACHoeAOcGA1la7o3qaV3s+kcnS3ZbelvZ0RsRUJAAAAAAAAAAAAHJ6CO8CR7ba7z8r9hvdXUjmIb+W+0G5LOwAAAAAAAAAAAPSAgjtAz3xXeN+PDe9Pt9/Q/s8otAMAAAAAAAAAAEA/KbgD9FxNpSu6T787bXl/WCuztwL7enduImIrFgAAAAAAAAAAAOg/BXeAAdpteW8zK13hvd1fn2AU1znbsiuyF2V2AAAAAAAAAAAAGDQFd4ARqbW2svt+43s7938ecvn9ptyX2KN0m9kjbfyNAwAAAAAAAAAAwLgouAOciJpKV3hvZrtzspv9/eyA/0tt+3rs7tvdNOv9f7ONHQAAAAAAAAAAAE6LgjsAP/VDIf45bNradckCAAAAAAAAAAAAD/kbfjLssTctvHQAAAAASUVORK5CYII=;" parent="1" vertex="1">
          <mxGeometry x="920" y="160.00000000000003" width="140" height="34.46" as="geometry" />
        </mxCell>
        <mxCell id="cDf-g9UQeOTYhBCLNVcn-172" value="" style="strokeColor=#dddddd;shadow=1;strokeWidth=1;rounded=1;absoluteArcSize=1;arcSize=2;" parent="1" vertex="1">
          <mxGeometry x="874" y="275" width="240" height="210" as="geometry" />
        </mxCell>
        <mxCell id="cDf-g9UQeOTYhBCLNVcn-174" value="" style="shape=image;imageAspect=0;aspect=fixed;verticalLabelPosition=bottom;verticalAlign=top;image=data:image/png,iVBORw0KGgoAAAANSUhEUgAABQAAAAMPCAMAAAC9vIgqAAAACXBIWXMAAAsTAAALEwEAmpwYAAADAFBMVEVHcExopWMtLS1oomMrKytpoWE9UTowMDBdnlJlnWRpo2QvLy8sMCwxMTEuLi4tLS0tLS1mm11noGErKystLS1noWInKSdnoGIuLi5moGJmmmEuLi5noWFmoWJmoWIvLy9noWFnoGItLS1moGFlpV8vLy8vLy8tLS1ioFsuMy5noGJnoWIvLy8tLS1nn2ItLS1noGJemVktLS1QmUNPmUJOmkMuLi4tLS0uLi4uLi5OlkVHkUJPmkJTlEtapElHlz1ao0c0gTZhqU1KkkY5hzlAbD1Hlz4wMDBooGM8hzprwEV2rWRtp19onmMtLS1mnmF1rGNwqWFvqWBqo114sWJ6tWFmoFtmnmNro153uFtzqWJyrGN0rGBzqmNimld2r2Jnn1tooGFwp2A6hTh1uVZjm1dknVp3r2JmnlpuvktrpF54smJ5s2JtpVxqpl9onmFoolxknldWn0pqoVxknFhxulBEjUFWlk55tlxWnUpmo1xKj0VfmFZmoVhRlEx1uFpVmEtzuVhln1ppoFpHjkN1uVRXpUZrvkd0ulRQkUtUl05fm1NXo0hUlU1Bij90q2NYmFAuLy9hmVZkm1dWoUhrwENwvE1vpWBxq2JvqmJ0rmRFjENpv0Vgm1VtqF5spV48iDx3sGNvvU1CjEB1sGNUk0xopFtsp2B4r2BLjUN2smJYqURNk0h5tGJfmVJ3tF96smFmoGNppV5tv0lNkUd5tl9ZrUNnoVt6s153tmBsv0dbmFF4tF52tl5mm1l4t1xmoGFVlUx3tVlloVxkoFtVnEtdllN2tlhhnVZTkkpDij4/ijxonVtinVdyt1NNj0V0ulJdnFVzu1M/ij9xulRimlRQk0pzuFFzu1Bvu1Jcl1BbmVJdmlM+hzo+iD1Fi0BwvFBVnEhPkEdZp0ZuvFBVmkxinFg3gzduu0w0gDVsvUpln1tfl1Q8hTpAhz1MjUlDiUA6hzhWo0VJkEYvfDNuxkNgskRGlD1blVFooWOAtmh7wldSmUmDvmRnrVB1x03y+kYeAAAAR3RSTlMAVYx3L28GujYqXoEaR9TinB+bZO6AD/dUyRH2tY1kp9Pjt6dKOsh0QibawMJu8pfsMaywhGlZtLJfz06a68zq7vTo3uKB9UC5iC0AACAASURBVHja7N3La1zXAcBhY0RSkDRSkDECLwQG2zXImMSPOo+GQBZnoTBIqgT1ayqCJA9JFhUVJItxTRYGlxTcay3qBOIg6ItC0lAwtDS1SBdqF2kIpqaNt4FsOn9AV6J3ZFvWWCNpXrJn5nzfIoQsAnPm3J/OPfcxu3YBzdczlMlmhnoMBBCdvlCSJNkDxgKIS3ioz2gAMckk6woYThkQIBp7Q1kAQ9htTIBIPBc2GDQqQBT2bAxgknQZFyACoUIAQ5IxMECUASytAcN+QwN0uiRsxtUQINoAJq6GALEGMJU9bICASAPo2RAg4gCGMGSMgDgDmIQk6TZKQJwrwNJW4EnjBEQawBD2eVkgEGsAQ/BsCBBtAF0NASIOYBKOGC4gzgCW9BowINIAJmHPXkMGxLkCTA0bMyDWACZJv1ED4gxg6cboQ8YNiDSAaQL9hDAQawC9JgaIOICuhgDxBjDx0nwg2hVgyYABBGINoKshQLwBdDUEiDiAwU8IA/EG0NUQIOIA+glhINoAlp4Q9hPCQKQBdDUEiDmAXpoPRBtAPyEMRLwC9BPCQMwB9BPCQMQBTJKDRhWIM4BpAb0jAYg0gCWnDCwQawATb0sFog1g4vFgINIAplwMBqINYNbYArEGMHhXNBBtAL0cAYg2gMHgApEGMAldRheIdQXo1TBAtAHsN7pApAFMnja6gAACRHYKLICAAAIIIIAAAggggAACCCCAAAIIIIAAAggggAACCCCAAAIIIIAAAggggAACCCAggAIICKAAAgIogIAACiAggAIICKAAAgIogIAACiAggAIICKAAAgIIIIAAAggggAACCCCAAAIIIIAAAggggAACCCCAAAIIIIAAAggggAACCCCAAAIICKAAAgIogIAACiAggAIICKAAAgIogIAACiAggAIICKAAAgIogIAAAggggAACCCCAAAIIIIAAAggggAACCCCAAAIIIIAAAggggAACCCCAAAIIICCAAggIoAACAiiAgAAKICCAAggIoAACAiiAgAAKICCAAggIoAACAiiAgAACCCCAAAIIIIAAAggggAACCCCAAAIIIIAAAggggAACCCCAAAIIIIAAAgggIIACCAigAAICKICAAAogIIACCAigAAICKICAAAogIIACCAigAAICCCCAAAIIIIAAAkib6Ro82dtjGBBAAYxNz3MPvt3sIaOBAApgRPb2rf9+s0eNCALYyQHsOTI0PDx06LB5UvL0o99w9nmD0phnXpj742uvXfzHq8eNhQC2mqHs2pFuNbvrUFJhriT+NjTg+MWRxcWR0dGRxbFi8WfGo3GHu4f79mSGTgpg406Vf5qDcc+sA5t9yxlHXZ2evbg4kjp/bvTq6Ei+sHDn+8akMWsb1EmSDApgQ46kq79HxmZ3vDPrqT2bfstJYiuwLu9NXBgZGV0N4OjZq2eXCzMzd18yLA2csK07RUn/NXtAAOvWVflY7410ah3depZkBxx9tXr53IULIx+sBfDMyE+KaQEX/vddQ1OfwWTDFk2fANYpEyrtd6X/cd/eCKfWQBXfta3Ampy4MXGhPIBXR4qF3MzMzLVfG5069GQrTsv9AliH/i0+UzIc29TqquKbTmwF1uKZixOLiyOPBHD0o+XVAs58+KoRqtXwplOzWwBrXUqHDZt/5avA7qimVmbL0Vg/Lv2Ow+q8NzGx+KsNAbz6Qa5QmFm17J6YmnRvOTMPCGDjS+nyQ/1ANFOrv6YvfNCxuL1jP5qYmLiwMYDnro7dXwLOzCy8/ayBqlZvdss/0ck2W4ECWN1SuoYh7RiD6UetbX7sdTxu7cSNT9/83SYBHJ0q3D8JnlmY/6mxqsoW9yc8NCSATVhKVz2kHaKKxbC7Ams8Wi9OfvrmZgG8fv7s8r2T4Dsf5ubn77xgvLa3v6oFSxIGBLDRpfQjm/4df+tHps5vfbejcjOvTLz11sTvNw3gmatvPCjgtYX5+fm7JwzZ1o5Uf4KSPSyAjS+lyyvYya+E2p3UPzF6HZmVvHRu8q2tA3i+dB3k3knwagHnP/fWsS101TYt+wSwwaV0POd7vY187UnYZytwgxd/M/nxx9usAM9cH19+UMDcagEXbAU2b8US+gVw06W08711m38hNDorhh2g5eZuTk7+YbsAnn//7Gzh2sNtwJJrtgIrGqprig4IYONL6U4/3/teE7762O6W3MbLn01OTn5aRQCvjxUL67cBU7fuvmgAHzVQ95/oDZsKIfYA1rGU7uTzvd3N+vazBxyn9xw/ly7/qgzgmR8Uy7cBv52fz39uS6F5K5ZhASzzXOOrnQ66JWYw28Tvv8+hmjq8cvPmzT9VvQI8W0xPgtdvA36b/nPGA8Lr9IUGrtAlj56cxB3AI835pB1yS0xji+H6nkXvdD9P8/fOn6sO4OtjHxXXtgHvBbBUwNlPjhnKe/qbMC/XvS+1N+YA9jTto2Y74W0o+3dgDkS+FXjsb2n+agvg9fk0gIX1J8HpSnBudvYvtgJ31fNwUkUP961CxAHMNLKU7rjzve6wI9fDsl3xHq0nVt5Z+uyvNQZwbLxQyJWfBOcW5tIC5t+2ndC8eXnq3v9xX7wB7G/2x23rW2J6szs2DWJ9Oq5nZWlp6XTNARy//t/C/W3AOw+3AUsFnL0V+TvzDzbzT3Ry8FB3JoRYA/h8tpnLv/vbq217S0zTN/+ie3B6o1eWTi9dWqp9BTg+NlYs5Mq3AXP3C5h/L+J35neH0PQjNok0gD07td5pz/sVhnZ0GpQ2baL7EfVjX54+/bd6A/jDtICVtgFn8/n83e/Emb8antRvGS0bwOGd+8xt+AjEwOOYWtmo3pl/YuX0pUv1B/D8nUKu4jbg7K18fi7GrcAdPkWJK4Dd2Z1c7rTbIxBd2cc0GyK6K/Cb6UvTl96tO4DjYzdWT4Jz6x6JW9sGTBeBc9E9Hbc/BAFs/d3+B4udNtoKfKrvMc6H/kg2/6ZPT/+9kQCOvT6WL6xtA14r3wYsFfCLT6J6Z/6REASwrZbSbbPYOfqYt1Ui+PnMl76cnr78boMBHH+/WDoJrrQNeKtUwHz+7jOx5K8rBAFsu6V0W1z3HHgCc6LDX3D34srl6cuNB/DG+I+LG7YBF+5vA64WcC4fx9Nx7bn516IBfGxL6bZ4YXTPk5kUHX1X4De3rzQpgGMfpgEsezPWt+u3AfOz+an5CLYCjyZBANt1Kd3a1z0zT+iugg7++cyXv7585cqXzQng+BvLayfBlbYBZ+fyU1OfdPg78wdCe2ulAD72pXRr/1Z4/xOdGCc78Wg9vvLVlStfNS2AY/PF3NpJcIVtwNm5W19MTf2ig1+U1RWCALb1UjpJWvTpuG1++33n/zR03jvzD6/cvv3Vv5oYwNd/u1zM5a5tvg2YFnBqairfsU/HZUJIBLDNl9It+XRcT7YF5kaHvTP/m/98ffv2v5sZwF+Of1HcZhuwtAScmvpnR74oqz90gBYJYM8THIIWfGH0cEvMjeT/7J1vaBvnHceDCU6H/waXEOYXhoBpAzahS70UkoXQDQ5rQrAKxGGoEQ4xtsFB3i2EFUUEqxCUzJBzUPVG3g2D3BcbepGMCBIImJQjLg5jDIetyYvQbCipz4gwYvKijN1JinQn3elOupOe33P3+1Had8U8eu7zfH/f+z3fc9PnVE6+vHTpX/90GID+mWyxCa6zAWcrNmCJgOGs64KyyLYoLgNgP+mlBJUK2gNnewRc8jmVif89f94GAH7tj0h6NuBSjQ0oV/ymq/AHokVxCwC7ICwEmCgAYDfK3WAF9r54/vz5V20B4G9WpR1DG3CuYgOGd8PhkIuswDGGQQA6KKUBdHtAogB64W0R6jPzz63L/Pt3ewDoF5T3INN1Afm1NuDu7nY4fsslQVk9DIMAdOEDD+B23CmQvgrVmfknX66vX/qqbQCcmVUkYIMrceUmWCbgdjx+/yP68Udj6BVYAAKT0oOET1agxgrFMbIT++vr6/NtBKDfL5UIqJuMpSZgWCFgiPagLKrvvUEDIMAHnuDtuFG4u4SnNSjrxbyMv7YCcNEfltamp6cNAvKrNuCuTMB4PB6eo/p23DGGQQA6J6UBFinTXz5ZYTcWFFqB567Nr//QdgB+Fi1KQP2AfK0NWCQgt0ZtUNY4wyAAXS+lx8icrPB9Fcoy88/sz8/Pv2w7AC/6g2IzNqBMQC5LZeDOQYZBAHrggScQGE3Dyaq8KB+l52k9vX9nfv5ORwD42QVppxkbMMRx8U00/7wMwHHgj3pn538pOlmpsQL/7Lszf60zABSUUZgdtQ34u8Y2oEJAbpkyK/AEzyAAPfTAD+DJql9UxMieTfvu3PuhQwD0+/84W5KAxgH5WhswxG1vc9waRbfjhhi3VucBSMsD36EnfYSqk5WKGNmP0/fupTsIQEH4Wiw3wdZswCslAnL3u9H88xwAKZHSyodyhzpxslLYWcD+fObxfV+yswD0XxQ4Uc8GvKVrA5aaYAWAHB234/oZhkcAelFKt/tJP0jrjXLAMbJ3fT5f8lqnAei/IK2qZ2F0A/LVTXCoKAE5dgl8UNYg4+rqKAB78UmvOVkpLR7q5zPPpmX8pTsOQFZY0DTB+gH59TZgjoNuBbok9AoGAPvpW8o2fh1jkOep3lkArcCJfZ+PDAAX/bOSpgm2aAPmZASycG/HuSb0CgIAu2hVO20ZiRmi/1wdBjbNe7iIP0IAFC5KUnRnxywgv84GzOXiXDAH1AocYxgEoEPVR3G75/ztOOVkdUFjAcoKPOfzkQSgsC1J0y3YgDkuHg8GHwO8HdfDMAhA58w/qp93h+/B9rtk8wD6otTJa0nCAPSvliSgeUC+1gYsEZBdAxaU5a7QK8IAPEX/Ojl4O66Ld8/O4mF8PvP0fjJJGIC3F4LiOwKaBeTX2oByFxzkuJuA8OfSe29kANjjDif1oNe9ACMrkHxm/l2fuggBkBVmpWgjG1ATkK+2AYsSUBaBcTC3444xDALQOSntDqnjyO24XhcOFfCEP595LukDAcAFQZKipjbggzobsNwERyIs+wiEFTjOMAhAlNI6ZXskxp2v1QjE51TrTNrnAwLAhWWpkQ34wMQGVAjIPiOupw8yDALQOSntMr1ja/jNta/VeGKfz/xw3+eDA8DbUrkJtpqMpbUBFQCyQbJTgd4x/zoAwHEXjlG27ni5/LUaESvwbtIHCIBsMCQTcLVqA5oH5GtsQFkCchzL5gjejjvBMwhAp6S0S6fIWxt+O+L+k7Xjmfln00lQAFzYCE5LWa0NaJqMVWMDKgRkHxG6HTfEeK/aBcDuAdf2e604Xt54rdZRK/DjtE8Pf2QByImVJthiQL62CS4TMPUdgaCsXoZBAKKUbofj1cN7pbPoWGb+4X1f2ueDBkAuqIzCRJsMyC8RsDgLE2FZGYAb8r87fjuun+F5BCBKaWvVzEjMqHc2Vsc+n3nXQP0RB+BiVlqNrjYZkF9nA25ssMJuR63AQcajdQildHsdL/Cfu6TQCjQw/yAAsPgeJNpCQL7WBtxQXggvfdgp/Lk+9KqTAOz3iuCxNBIz4sE91ebPZ07s+xoWWQDeXpUlYLSFgPzqLIxMwI0iARfud8b8CzDeLacB2OWhtTMPjB4PePJgbWeS9uH9RuqPPACDOalKQAvJWNvqZKzyOHSpCZYBuBDsgBU4xjAIQKfuvXls9fo9OQjksEfaVH1qhj/SAPwieEHaqdiApslY4bpkrKoNqBBQWGrz7bgehkEAOmf+eUzvNAqMdu8gkKUabMfTejJtzj/iAMyJNU2w5YD8WhuQk/+fC6kbbQzK6gt41ftrAwBPeXMFf44z9fp9sOOZ+ZrQK7gAjCxJqzVNcMs2ICfIIpC9iffe4AOwx7P9nt4lsNEAbi2GcXSat9sa/gAAkJMqBGw+IL/OBlwQBCHSlqCsY7hDHQOgtx/4usmPQ7ixigPjDs5Ff5q2hj/yAIxHQuKqTMDWA/JVNmBRAgpCankCzT+4ADwy7PVlHNesx4DXjRUzf6Dp+ugPbyziDwIAIzuqJriVgHz1NGBJAwqprKP4Gw3gHnUMgCO4jEygG/WfXjmTo32yULiWTNMDwFxRAtoIyK/agIoElAnICkJoAs0/kADERSzWUfVYPVa5C+adeF5/kfhr4cc3VglIHoBfRG5JqyY2YOOA/FobcJFlhVTKqctxXSj+HAQgrmFNG4wroUagA3n5v/w+kUgU9t9QBMCQJFmyAc2SsYqzMGxRArLC1A1n9PQw8s9BAOISVmq0fBcG95e6bD+vZxJFAD6xKgEhADAyK0Yb24APLNmAsgRMcSUbkBN+nT/vBP943J8OArAfl7Aidng8EXRqxOYO+2ki8ZdEMxIQBAAjklRnAzYdkP+uCS4SkJ25+er8r9CxggXAPlxBFQGVm3HH8XzVVsBuA5xIPHnyRAZgwaIEhADAcG63REDdgPxbzSVjFSUgm/r8VX5v7zDmXoECIM77aqobx6t0F8XOC8snivxTEFh48SZJDQAjuZ1SE6wTkN+0DchyQpCd2np1fnLPrgTsxv3oJAAP4gJq6hOvZ2vo6WJ7s4BnYrEyAhMWJSAQAIbEOhuwpYD8chOcmpH5N7m3h5YVJAAewgXUPOuMMgSNpa0uW1tsa2urjEBFAlKjAB9eyT0Ss63bgOqAfOVV8MLUf/MyACdfn0YHEBAAsQOuIWA3zhg4/BYkFqsisJC0IgGhADAulgjoREA+l1pUBODkZN7eLOA4bkdHAYjrV1N9B5B/tfUzW++AM7EqAgu/t9IEQwFg6Bt1E2w5IF/fBvz82/yeAkCb74GxA3YUgEdw/WpqHM8EZwH4k0xGhcBCmiIAhkNRUbJrA5auxEVS4ZIAtGsCYsvmKACP4/rVVA8qQGcB+N5WRoXAQsyCBIQDwIdiCzagXjIWO/WnfJF/k+dfY8sGB4D4ErjWA+zBLeYwAGX0VRFoaRoaDAC/Ce2IktoGvGBoA849aBSQH0w9KwvAyb1Je7dAcDsiANurAHENHH0J8t5KTI3ARMJcAgIC4EOpvgnWDchv/J1MdipfFoB2AYi7EQHYbgDiIesoAGMragRakYCAABhaKktAWwH5XOryOwGIChABiArQawBUI9DCNDQkAIayagK2GpA/U+EfAhABCByAw7gINb6oAwAsIzCRySjT0DQBcFYsE9BGQH4qkUcAIgARgJ5UgLLy0yDQXAJCAuCV5ajY2AY0DciPsKmqAEQAIgARgB5rgTMaBGYKZp8HgQXA2e8a2oAWAvJnvswjABGACEDvtsAaBJpeiAMFwNnlR6J1GzCsYwOyEZUARAAiABGA3nsJokZgxuxCHDAALouWbcD6K3FciJv6Nv8aAYgARAB6E4Ar5VIhsJB+QxMAH4s2bMAQu6QWgAhABCB0AOIea8NLkMvvEKj8k8g0lIDQALgUFaNSi8lYOW5qMj+JAEQAogL0qgLcrGi/dyow03gaGhwAH1ea4KYD8nPsfY0ARAAiABGAXmuBN0vcq6rATMMLcdAAeGspW2mCmw3I52byGgGIAEQAYgvsPQ+wRgXGZAmYpAiAsgSMSq0kY8VTK1oBiABEAKIC9OJLkCICLxdloHInrtE0NEAArokt2YDLXKqGfwhABCAqQE8BMLaiRmC5EokGX4iDB8A1WQJmtclYWhvQICA/nPo+jwBEAKICbK746n8hbPhBWwC8fj0W0yJQ0YGNJCBEAD56ez+rnoXR2oAGAfkhbrFWACIAEYCGzzsCsFIDXX3Hew8ehfER7BGbAKxHoKIBf2soAUECUJaATduA4dSXeQQgAtCcfsNMAAFYXZEh1U80whPf84O2AaiDwIzx50FAAvDvRQI2ZQNuc3N1AtBNAOQRgI7UJ6U/ZQABWKrxmh9pzA0ArEdg4j9GTTBIAN549vapvg1oFJA/F079Q30JzkUADMhH9AcIQEcOkX5YNCYOwGM63+57n+xvZA+AK5v6CDS+EAcTgIoE1LMBDQPy57i1egHoCgCWN8QgjwC0XaPqP2fI8wAcPqL7O/UFSB63NhXg5qYuAlcSKwYSECgAs+JT3SbYwAbcDae0l+DcAsCB6l/TjwC0i5uaOsET/4sIyq1An+Ev1UNzC6yPwC2jC3FAAXjjqfi0iYD8B+xlHQFIPQADxzUACSAAHe32DnQPeBWAPNPV8LcaoxSAP143QqDRF+KgAvDZW7HWBmwQkB9O5XUEIO0A/KD2DxoKEPYCqQWgQbdH+FAhB8Axsx+rN0AnAK9eNUJgQv9CHNQWWJaAYjZqMRlrlsvoCUC6AagnWQ6MoAJ0ttsjeqjIAOQhHQeaOsoQmT2wB8DNzatGCIzpT0PDBeBbMxuw0gTPbnN5Pf7RDMABg7+p+32SIpBGAJp1ewQPFUIK8KjFH4zIZLRNBbipRuCmBoH6F+LgAvDpW8s2IPs3lwGwkWQZRQA2Vf2mfxixQ4UAAPn/s3d/r01kewDAB1Gve7u2at16d9fV1buueO/VBR/03r+gycI0j+NTWQnC+hTISkrIUgIblJY0OLXrS7wQDH0olAvBch9uobQPHWhT6EOgD3qdkpWajdia/lqzUG7uTJK2mWTOzElnzmSO8z0+iNAf40zmM9/v93zPmab6TNqtPzEGAVxZ2SdwUElgv+rrQWwL4OR/hRoBNTfIX/hJNQGmFUCeb9M+rrYeABB74GR7rXqoWA0gj/M4UJYCu6kDEE2gvCDuCUUATgpyEqxbBnz9/a1Azv0BAfg3/SO72aKlIdQBiJvtteahYn0EeKXpq9ZJH4BIAt89oAvAioB6S+JeL9xDBIBUAohVoJafzDwAqBfvNHUzXfzgJ0F6Og903axtlzQGYDi8okHgqEo3tJ0BfFFU9MKgNsi/pbIIjloAb+Ae3HGIAA0X/+oeKnwLAKSBFkvbJQ23wWgQOKPSCmNjAJ+/eCgIwt7OWIgN8h99J6ACQNoAbK5AzRyyfusOigDsaT7bs3wRmGUA8ui2ArxL10MLgCsr9QTWdsWMNr4hztYA9gmVXhitnbHu3fIiKoDUAdhsyGL96jhqADxgtmfxIjALI8ArjLHR1m3R49aEGiCaQLkbmioAnwtFvTLgT33IAJAuAPmPbf1kpgpAA3dR+4cI4GXG+DjfTQuAGgSO9teHgPYG8OFDoXFJnKIMOHUrh/SPJgAPGrJ0AoAN6Z6hbM/KRWCd1gB4kTFlHLXkYL8xA0AkgY3d0LYHsLYM2LhB/p2FuZx3fZ16AA0896ycpKMiArxk9E7/U7dlR3ra7o8DyyfejM4Ch7UJHBqo64a2OYB9fcKkRhnwztR3udXV1XUEgbQA2G7sydwBAO6Pq2bc6eetufQMcQB5/hJj5iCfBxuMALN6BA5ElSGg3QGcmdQqA75eWMy5E0gCKQCQP9h8Zd1CBgCwOs6bdad3WHHpyQN4mjF5kL6IvFEAs0gCq10xdd3Qdk+BZ2YEdBnw3tRUfjUhDQSBVADYacbnss2aOTqbA2hitsdcIl4KlO/10/SckOrosncEODtbITDcQOBuY2C/ckGc7QEcfCglwagN8n+Ie1++TCAJtD+AvGkhyx8AQLxs71gqxX6B84WXCRPIS7+D7EoQniEwrvCknwrGACwTmEUTODPwhCYA+walJHgSkQQ/epRbFV+iCbQ9gGY+obs+dzaAmK0ef2HZFMf9fg7na68TT9fJRoAMkXGIZLe4UQDD4dmqgUgCR2dqQ0D7Azjap0iCa3fGWoh5VxMimkCbA6i16ZU9szb7AtiDdwynOI5zuVysz3fms1YfMuFSI9/dRgZAxsYpcHY2rEugshuagghwqKhWBrxzp3fqRc69JsGHJNDOAPL8ZSIPZ96RAOL5d45zpVyV4Zn2fNnam72L+FwLIf+Y47yNAZzVJ1CxII4GAIcmy2XAhp2xFhLr6XRag0A7A3iTzIfza6IC2hZAnN9/MuVjb7v2BsvilAL/QUrsw8Qnm78hBSBjbwB1Cdyp3ROBAgAH56QQsLEMOPx9nzchJqoEJtQItDGAh6l8PNsVQJxGyi9ZV91gfexXut9GpKzAd39MutuG7z5KDMATNgdQj8DBuf0QkAIA++aWhMYy4D97F9bFTEasELimSqB9ATxB7MPJ3HQggPrF1C+kgK8eQNe0z3dNrxRIpPX3ayvaDcl9xA7ztgVwZQWDwMH+/QVxdAA4oywDyjtjDU/NedcyGU0C7QvgFXKfzksOBFBvE9mvfKzPpTqmPWe1v/UqsfSXMIAd5D5iJKdBjAEYDK7gEDi4vyCOBgBH+/uL9WXA4d6pdVEUMyoEinsEem0LILn0hOhrHOwKoF7xj2VTLsRgOd8nmiUF0w/2qjULTq4TBJC3L4B4BPbvLYijA8ClIaG+DDj1LhGL6RDoXQcAnQCgdsPvWY7zuNAj5fFMH7MKQL5ua5YOm0rSisKoWQDiEDi41w1NB4BzS0VhUtEL8+iRV4zF9Ah0ZATIA4A14xMP53NpD5bjLlg0qXS67sITBPCQE1PgbBaTwKFgdR6EFgAHBJnAsoByEjw8FUlkMrEqgTW1wLSCwAQA6GwAj/l8evxVCPz9z1YA2PDGFwDQ1MM+Jq+CUyEw3Ejgbjc0JQD2D4wKk/s7Y/3YK3jX5tNVAtNoAgFAJwN49Bqb8rhwhodluSNkAVR94wsAaC6AweCsCoGzKgQO7VRCQGoAnHherNkZayouFgrz+gQCgA4G8K+eaRf+4FjuJEkAVXsVAUCzAcQlMNxfCQHpAXBUKO6VAXuL7kymgEEgAOhcADmOdTU1bvv+SAxAxKaPAKD5AGISOLRUDgHpAXC8r1IGnPyX8ONCJpbMYBAoAoCOBfCUz9Xs8HGkAESt+wYASQCIR2B/eUEcPQBODAjFahmwd1SMzc/jEAgAOhbAT5sH8PZtMgCi30oEAJo8CRLEJzA8IIeA1AA4vhTqK1aS4Le9UgCYnNcl5p+7/AAAIABJREFUUFwDAB0M4G1X8wKSAFBrSQYAaC6A/mAQn8DygjiKAJyYKFbKgMMDYiGZ1CNQlKNAaIR2LoCuAwyzAeR1Nn3s4AFAUwH0N0OgvCCOKgAH5BBw8u2wGJPQwyIQIkAAsIUA8rzOpqQQAZoOYBME7oxs/0wRgL+Mj5WT4LcTmWRyWUJvGUFgZp9AABAAbCGAutt0AYAEAMQmcGfgCV0ALk4IxaLwNl2IJxsIzKgSCAACgK0DsIsBAK2eBGmKwPDsNl0Ahvok/0Kx5Xi8nsDkLoHpWgIBQACwZQDivO8UADQXwBGJuSYIlPeGpgvATUEoioVAPI4iMCYTmNklEAAEAFsE4AmscwIAmgxgGT4dAvcXCa+Ew9s/U5UCR0bfRgrLhaQmgbuZcAbaYADAVgDIY+9GCgCaDOCIgkC/GoG1+yTsyN3QNAEYihRjEn4IAucbCAQAAcAWRICXGACwVQA2R+DO4Pa3VAEYiiTlCqAqgckGAgFAANB6AJt4Hy8AaC6AwWCTBAbH32/TBODYZihSBhCLQAAQALQcwIvNnBMA0PxJkKYI9K9ubf/nAU0Ajo0tR+LYBAKAAKB1AEpf+nkXAwC2NAVuhkApAMzl35eoigDHQvHlCDaBACAAaGUEeKPJcwJL4QjUAPEJnPXnvN6tJ9t0ARiJRyKYBAKAAKBlAKpu+awz2iECrDuJbcYBxCfQH8h53bl06VvKIsB42cB9ApMoAtecCGA3ANgSANsPcE4gBTYwg6QKoB+bwOxsMJj3ut3erd+231AFoBzyRWqiwDiSQNgNBgC0CMCeA73rvh1SYFMBlJQbwYwCZ7NBv5hzSyPnLdEVAQbK9NVGgQgCk/MAIABoCYCXD3ZOIAU2uQYYLRPoxyLQvyMlwG45BPx36QFVAAbiFQLlEdAkEAAEAC0A8OJBzwkAaDaA0Sh2FBj1lv1zr3rzpWd0RYDLuwmwgsCCgkB5w0AAEAAkD2DHwc8J1ABNrgFGoxoEKhcJ+zcrAaAUAuY3SpQBWIn+IhoEygYmYwAgAEgYQO0tnwHAFgBYJtDfQKBin4Rs0L/rn9ud2yo9owvAZFVAHQIhAgQACQNozBlIgc2eBd4lMKpHYLkFpjpW89nSG6oADCyHIkoCIyoEBgBAAJAogO0GLxYAaC6AGxuYBAZHsvk9/+R5kGfP3lAFYCwSUhAYVxAY2CUQAAQACQLYxQCA9gIwGtUmcG8+JJqo8U8KAd+X7r6hCsBCKBRCRYHLewQCgAAgMQA7jV8sANB0AKMbOASOjOdqAXSvbj2gDEA5BAwho8BdAgFAANAggKhfesKMiwUAmg8gDoF+v9I/tzufLt2lCsBkITI2NqYdBQYAQAcD6CP2YnTeUOuLAkBYCWIugFX49AiMBuoBXN36rUQVgNIfyb4GApVRIADoYADZpv1jOdyjPmzSxYII0GQA749gECj9I1/nn9udy9EGYGYxtKlCYG0UCJMgzgXwiO920/6dwbnZeWM7lgCARAG8j0NgNJ1brwfQm39VogrA+UxhMaRKYE0UCAA6FkDm06YBTKne7PUfg7+beLEAQPMB1CUwG91pDAClEDBfuksXgGJ5HkQrCowAgM4FkDmZ8uGnwSzLnlL9KW3K33Xa1EsHAJIAUI/AV14V/yoL4h5TBGBSjC2GUARWokAA0MkAMsw5lkthTn+wX2J9DG6Ye7EAQLNnge83ErhRR2A0lFMD0J3benr3V6oAFMvNgOgocBkAdDaADHNKiuxwwr8zn6F/Rk81C+Z501EBAM0F8L7MXD2BIzVhoExgNK/qX7kb+vGvNAGYFuUqIJpAANDxADLMhdS0bhTIntM88usm/O8BQEsAlEYDgRu1mbD0d1I9AJQXxL15ShWAMXH+Fy0CIQUGABnmIx/HaeDn8XhO6R778cttx0lcLACQRA1QSeCGohg4Eh1BBIBSCJgLlJ4+pgrA9dDiOw0CAUAAUO6I4ThkHsz6LjCtGwAgmUmQegI3dgkcib5K5Nyo4d3631OqIsA1tzjx7h2aQAAQACyPs55p9akPlvuIAQA/HAB3BWxIhPcIHEcGgJXXg1AGoDs+sVglcLOBwHgIAHQEgPq7shy9xqY8jdGf5wjDAIAfUA1wA01gORGOvspp+Ce/Ia5EFYAJt3dpYnPz/+zdT2gb2RkA8MEEZxdLdoK8rne9xdTE9ga0hMaJk0263cNChzlkcjLG0NvLbQ8pPcRZTLUXx2S2kdkHvRmKqfEhyKFdkHXaJdBL8BrqkixuLnESa2FWB5HYNVaIoqbzJMv6a1vSvDfzfTPvyyEJBDIzT/7pe9/73htG4FotgXIK7A8A1Ubqc+9cv165O9j6+4eKIgH02CLIYQRaE+DMoQDOm6m3f0MF4Gr65aYlYDWB03kC5/4rAfQFgI0dTfDe1fESgVevXPmV4nrIwxAE1AAPJnB75s5hE+B8K8z2259wAUjW4mvVBE4VCLzrRwB7fAigGmjsEj4cHy/sj/v26tXrpxQAAMoMUMQiyIEEJjfM9KEAsteDPPsZE4BP0vPG2loNgWvT+ZkwVACPiftwBv0IoN7gNZwcv3LlW2v2O379PQVCDMkMkHsf4MxM8iACZ54fkQCyDXHP36LKAJ/Mm9PxeB0CWRYIFsAhlEkFXAAbP53+1PVxK95XYITMAPkCGJvZj3oEHr4CUkwBHz/7CRWAJG3Eywm8WyIQ6hSYqh2iPpttqj8BpCcavY5f/uL9dkUC6E0Ak8mZg7PAI1ZAiilgJosrAyTm3Ga8RGC8nECoGaA1aTstZAVEV30KoBXDCrqQAHIHcJ/AQhZYao22/pQ62j/WCvPzY1wAErK5+eJFXQLhAmj/lYp1IiyYGMgAstEaxAbgkASQ57dYAcDyLLA8DUwumI0AqJmr2WfIAFw12IaQGgJhA0j5vFfHodkvggzQeqJdyACUGSBfAC3lKggsLwYmtxtKAPMb4h6iAlAjbB2kLoGQAWQR4vehDOqq3wFk0S8B9HMGOFNNYCkLTKRNrbEwSfYZKgA1Mh+J1yUQOoBqXw+fj2TAiYuFDyC1fg1LAP0LYKyWwEIWOJNcajABZG+IS2aRAWjOsZXgWgLBA8ipFHjBkUvFkAEKW1+SADoBILUNYKx+FthQC0zp9SDZx6gA1AgxCgJWEYgAQA4f1Q5dlQCWR5cE0LcZYF0CZ5KxTBMAplPbWWwAvjQKBG5WEIgCQEptHbY5SB2DBQuAaEqBchWY9yrwAQQ2vAJS7IbOPkYFoDUJ3jSM2iwQBYAqtVEKbO9WJYD15sEhCaAfV4FnYvUITCZXzSb800hqKYsLQI3MLxpGTRaIA0AW4dausd9RVRABiKMUKAHkPQWuT2DyeVMJIGuFefgQGYDmXQu/6iwQD4CUttADH9JVKgEUu74kAcSUAcbqE5ggzfmnaalM9iEqADVCosy+SgLxAMhSliZLgcd0p0VBBiD3VnMJIAIA6xCYaGYFZL8bOvsjLgDNuYixuUdgsSkGFYDNrV62dzl+edgAZBGSAPoOwGoCY8lUs/5pmjmfxZUBWgKuWPJVEogMQFUdaPTizrhxdQgBbPiwVHcAlOcB8gUwWbYMXDQwmZg1mweQpYC4ANwiG1GjikB0ADb4CQi5YwlKACGXAmUGyHsRJLlP4F4aaP11u4UEMN8N/W9UAFop4JRhFOkr/I4OQOv/1I88LjrgFiU4AaT0hATQLwDWEJiMNb4JuKoV5k72x1uYANRIOmpUEIgxAzy6FNhJqQSwyeiVAPoFwCoCk4lMSwlgPgW8fRsXgOb0yvpSGYFIATx0I0Obi4zgBbDxM/MlgK4C+DEHACsIjCVa9I+9HiR76z+YALQEXDTWSwRuogXwwI0MQVcRwQwgyFKgBJA/gIkKAltpgSmtg9y+jQ3Al4tGGYEv0AJoxem6xT8qAQRpggQQUgZYIjARazUBLLweBNUUmAmYh2+fQLwA0jopS9htQZADSNVRCaBvACwQuDtvbmktC7jzr9u4ANwiWrRE4LqBOQOsXr3s0FUJoN3o65EAehrARKWBie3WE0C2IW42iwtA1gqzuF4kcAk3gBWrl0EdwNXgB5C2euqEBBBXDbDYA23a8S/fDY0LQEvAaCRSJDCOHsC9lKW9G8K1eABARiCgUmBYAsgbwET+VzEBzNgDUDPN7C1sAN5g/36PQPwAqurQ6GgnjCvxBIAsBiWA3gQwsZcB7gmYSKTs+ZdPAXEByFphIusrFoHrqBdByldDwIRXAARTCpQAcgYwUUz+8r/vrpppewCybmhkAG6R1clIZKVAoBcyQAmgiBiQAHoTwJKBdldA9lph/pLFBSA7HT9i7BEoAZQAHhQdEACUp8EIALBAYCK229om4JrXg1zDBaBGyKvFxUieQAmgBPDA0IMyA/ReG0yJwN2M/QSQpYBvstgANOcWFxmBhgRQAnhYdEkAPbgIUiTQZgtMaR3k2gQuAC0Bv140LAKNiARQAgi5FCgBFLEIUuBvN8MHQPZ6kGu4ANwyZyejKywLlABKACGXAiWAAmqAeQJtbQKu2RA3gQtAdjp+NBJZkQBKABuIQQkgHABD9gEsEGhrE3DN60Gu4QJQI9pklC2DSAAlgEcFdbEUKAEUAiBLALd5JYCFbmihAP6BP4Dm1GTUIlACKAGEXAqUAHIGcH8JZNfk5h/bEJdDBqAl4KtodDEqAZQANhbDEkAvZYDcVkD2UsA7WVxTYAvAp5MSQAlgw9NgVR+UAHoDQHYaQiLF0T/tCdsQhwtAdiqMBFAC2Ex0SQAbBZBCBpAlgI9sbwKueT3IVw9QAaiRjVcSQAlgU9EvAfTEFHh3m2sCmN8QNzGBDUAzPikBlAA2Mw+m6ieeAXDYzwASk69/Vgq4lPsKF4AaId98LQGUADYXR7+WnmccF3cjIt+E3AUUwJN7/r3hnQCydZAHE9gANKe/kQDCAfA0kpvs9AaA7QIv+wRQANsFtMAUd5elFnLIALQE/FQCCAfAHiQ3SelZDwCoi7zsIFAAFQEtMGXd0PeRAbhFnkoAucZFqJUj3gT2ogfwuNDrBg1gLCXAP00zSW4CF4AaGZEAco0ztp6njkhA/TRyAANCr/siUADPsQRw3hThXz4F/B7XFJjYG2UqBeT66QyjutchxABStVvwhQP9iFkp4O5zMQkgez1I7v4DVAA+svcwhySAVWHvVULHUN2rI6/PFJYBtgu+8DagAP5WyApIMQX8Y+6fNzG1wZy39zBHZQpYFTZ/atA9zpBoAAcEXbj4nc0U6CMXswJS7IbO3f8eTyO03QRQFgH5roEoSi+6O+4LoATwuPjcVQEK4LmUMP/Y60FyNyfwAAi41OvLBFBoA62oCCME8KLiROhCdgTbTrozRKCAOxPLSADcsj0BRtW4gcUChHetdyADUP9YcSaGRDxu+3sRBQpIUpkckhOhSfochyEelurxTADxNENXRhATgA6eaSOgH5py2Iz9GSHi1kEeLKN4JwiZ/4jLEHdK9oqfTMqlM65dVxFWVvt6sADo8KmGHTpAAJXLC8IITP2QW0bwYnSbW0DKok+VKyH5D6bOa3NEGOX9C1pW4Ftlpi6cax0GCKCijGxZc0BB3dDQAbT4e/RrfgPcKXth8sHvkJRjOsYvANoBH8CzigvRo/LMESiv88hEzYNNM7cMGUDrtudHuA5wSOKnct5YEEKYVlNVD8IGUNg8/chSIM/R5HYg48mMEAKtFDB38zuwAFr3/BmablU8wb0huA3lY+BPzEXQPLtRCuR4Iu35VREEmqncMlQArfudFTG+7d2+5u+EiGeKc3mJd1fgBdATdDeSBK5Hco9o/AUkqS9zMAG0+Fu9LCrL1327GCKqrSKAshTIeYPwBZgut1IK7AYIYL4pkHCfBI+NfQcPwC2LvxGBA9zhT/5EHgvVi/OJBGEBSN0r/tUkCfAAVN7lTiB7PcgyOAAJSS/gWvBHkO0Ib6toQ7nEzhEcHhlgUIESHEqBlP9bqc7xLgWSnZtjwAC07nDhA+Hji3LSZicceEskzm+VASgAOnJml5Og01EBV3XJmh5u8eyGvpFbhgQgK/6dd2R8e/NpkSz+8fxWUVE+UU6LDnZXgcMKsAhQgAAqSibNMwkkO78fAwXg/CXHBviE6o/GaEod21MVRPmA+JQC7QEIpPjHsxQoCEDlI66748x0buweEADTabLg6AD7Y3uwo20VOLsCu9wFkKqjCsywUwqkwm7qNxxLgWTnf69hAKhp6YV3HR7fY94vBQ44/TMTRjkRHnATwDYFblxoeTipQNU57o4zUzkQU+AN7YdzLoxvyMvzYHfaKgL+TJRbBjCsgI4AvAzQinZuLTFk5885AABubHzu0gD3e7j451JbRRBnYj3oPICUgiz+cRlOwW9k5rY7ztxxHcDZRxt33Rvf9m5PLge72lbRoWN8YLZKgWdb+k+DCoY4Ay4DZMF2xxEe3dBvcu4CODs7/Y67X3FezP9cnlkNoSwF9jsLYIeCJYbAZYAsfselJYZtiHMRwIXZGyOuj2+b11ZDaMDtR4qwFMjKwT3OAdipIIoAbbZY7gCAfA7KIqm1nGsAzj1d+BTEAA94aTVED0F4pDhLgU7VABEU/ypjFF4GyKkUSHb+PuYSgE+fTgFa7fKKgGegPFOMXYG6MwCOKviiDSCAhd1xdjfEzebuuQHg9NzUZUDjG/QGgF2QfmYQnkDb4hsDmpgCU9Cdf4dFU1sHep26KtvzYLLz19eOAzg1dTc+Amx8zyCfBlOxh161VjvCllgPCAewU0EbAYgA2t8dZ5o5FwBcwv4VBzCG4T3SQWSPsFswgOiKf5XxCbQpcD5sHpRFdv702mEAp5Y+ADm+bHcc1jSQ9sP8mcG1xq6LBbBXwR5tAAFUlM81ewLm/vGFcwDG45vnwY5vCKeAFFbxD28pcEgYgFTV2xQvRGdDPyJOU2+nFEhSX752DMC4Eb8Eenz7MZYCnTv0qpXo6fN6FaGRDDCseCROg8x1T9koBZo7r+85A6BhxN+AH+Cu/7N3NrFRXWcYHgyeeDA2trGJcWwzxnYg2DgG0qSgNq26qG/knjmmVXQQqgSXq1AroT2qXAmlFVEXWYESOiujSglYkVAXWTDdsrmR2oooq2y6IeuOZpGFVUuNr1rUOzY/Y3t+vjlz7z33530WgBAyM+fceec73897Ihf+HQ37kkZm3CbllwDqb073EIKhsIbDvvp0nFX6p3P1L4EI4H9PRmB/I2aUFYnQ4kQkUgtnfBLA3GAqXjQ0FNbyhpWNsqy1q2/7LoA3vvzgy9cisr+d0TkHR6au+EL4I2nlJvJT8ez8q5sKzIeoCPIU5em40of/e89vAfzoxg8jtL8vRET/uqKzpKFPBaonUk/FtPOvHnXvFsvrCnkVp+OstV86vgrgFx9d+3u09jcCRln5uZ5orWmIuwLz+VbWsp4AvpKKK4MhFMDNVOC3zddB3nJDQN8E8Ltr124ci9z+hr6JN4KhxYlcSL9WWkuk1jbWPZCKM20hFEC1lhhr7Z7jmwD+6btrpyO5v6G29sxFM7QIpQl3/0E/3lTkInSVVGAIBVApFVgsOj4dgR88uPbjyO7vGyE9++ajG1qELbeQn8u13EV5qtqPVe2qjhbVWybymsvezU/HWWs3nV+t+CCA/3jwYCjC+7svnGe2SIcWk+FaUQ/Mqdqq5BTzr6SSQbWuQP1v/uzdJhWwWHLuey+A3zz6Zm/E97crnw9byLI/6p+Z0HQFenRKPZMPWwikOa2RD8GravIcbJX+6HgvgF+/GYP97QlZ+LcnBmv6/XAspVc3J2/vG+1JJYvubd9oofiKbtIoy1p7+6q3AvjJzfdjur866YzHkqZDMHHoXRP59Jbn4+VU4tgTyt6fplKBVunfjpcC+M4nN3vjur/6OBWfz8yk5sNvzstIukIAc/tSSeTE01Sg+0t4Rl+amY6z1i5e9UwA//XO1wMx298QJKz607Fa06MRr31U8jSgzR1IJZWeuc3L9cJlzkFPBa4WP3ZWPBLA3z18M3b7+6r2Y3AX1jS8MzRdG+09J1JJ5tXy/Zlhy3/SjbLK14Nc9EIAr1x5GMftTffrHNXKd8ZyTbWkAo+kQII4vUqcjisWnZWLrQrg4uKVhx0xXclJfaMh0ymsqUfsT0MTEgYxFVi+HqRVAVxcvD4e61SvHuKcWD8Q7AjhJPQgeRCn44ol572FlgRwcfEnMV9KHVdcxD2x3pMPzIDxKMQgmZCMsqzSI+fiRWUBvHTp0sP4r2TgqcCeBDye3UEoYGueVyDqqUDC3XGra86KsgBeuvTbXYlYya4gB4T3J+Pp3Dfn/4V80xCBZNP4HGyVPnBDQEUB/NtwYlayM6BujaiaXqmlAv0duu4/CAVIOpmGEri6tnJfRQCXEnH6rWAaGSvvU4GofQCfaTQdZ5U+dBSOwEtL14cStpL7/G/fSF67Wje+SYDPnF21rNV6IeDt+wvNCeCSK3/fS+BKDvqbttqfxKfTj68V1D7A1lTgt/WCwOJdp7kIcGnp98HPvQ2Njk9lx7JT46M6I88e/7J/ua6EPp2DnqcCUfsAW6lrlFW+HqQJASyffoN+/e0zJnMxDKP8mznTrvXMlvcjZulM8OPZg9oH8Jkf1EkFFotuCEgUwPPnf3E9E3DslxVCGBUUDEOOaYsD9/gR/iU9ZulG7QP4TO3pOKv00PnzLaIA3hsJ9mWnx7bJ3wZcyuPaVvKA1zHgS4hZvEoFovYBakpJzZaYYslZoQigG/4FPffWt3nyrcI609eFeNhTBXwdz2aq7q3bqH0AT6g1HWeVbjgLCw0F8Pz5xwG/4FEmCkYtmOTacoGeTcfhQ/ucthan41D7AI0oT8dZ1eogKysNBPDOu+evB2x61WtIZtTBZNLO6FrJSW9mWbvxTFYwjdoH8JmfVmuJsUqfO/WPwHfu/DXoE2e2TvT3TAPlmLaV7GxdAhM090ZDORWI2gegxlXVUoHW2q2VhdoCuHzn3aCTfyNMcKMxnPM+bUt5pKXKb5Jvk6iNUiowh9oHoFNlOm61+JlTMwJcXl5+HLCn7oSU0qDCRnWt5MFWUoGH8SRWpQ1pVOAz5em47SHgnZUaAri8fC9g06teyZhBh7EXtXUFKhpl5ZM590ZkGrUP4DM7zsHFt5yF6gL4m6mAX9sUN43mMFlW20qqGWUhZVWPfah9AJ85uU0CrbXrKzsF0A3/gp57G+CCGc3CJBvRtpTN1y478fx5E1mj9gGU2ZYKLJac+Vs7BPBxwIfLCdZE8m9LOViyCW0BS3O1S9zR6FFkjdoHaImzdysU0Co9WtkigD+7fPnXu4N9QelZxgxFpM5U4CA1E5jH3JtHkTVqH6B1Ks/BGyHgcwG8fPnnQZteDUtutECBaZyO6yEqYBceOnpknUftA/hLhVGWVfrCqRTAoOfe2gvq4d/TVKCQA9qWkuJo0oYnrim6cqh9AH95bpS1ujY//0QAz5379GSwLyMjhGhV/9wgkHO7Q9dK7slh7s1zOnOofQB/+dGTrkCr9AdnYUMAL3wa8HhFetY0vIEJoW867kA9CcwjaFHiDdQ+gL8MlVOBq+VWmHPzF25duHA7aK+9PsOwKerGaX3R6+PalrLmdFxuEM+ZIvv6kUYA/nLMlcCiZZU+dubnbwc99tsuCLYH5UYXbnMpG4eKnDGxV9dKHnxpZ0E4j09tixJ4KrexjPm5fsxPA384/Z/Pvvpq9eH7rwX8/540OSO1OvPyyO+oMAokjwS7V9dCdu284+dlPF4tMzn4eheSCCBuZKUk6J/k/GmHS181i/xqUWBW23tqg+kVAKAxfQWK6RVjrLKwcZzRUoFMn1FWW25u0y0wn9+PiiUAoAq7uGCccp5d3zrllmG0jkEhdml7bwfPHJ7uPtIG9QMAVKNXcEpV1z397mxuHmUGI6UCXxzCQgMAQseUNAm9f4yz6m5c47QBYcOYwlIDAMLFAOcthnDpWWarBpAAAKCNCUazPaifxOuwSdZZO1KIAACgjfQMqYbBhGhUxh0g9dBsKyIDAIA2hiWl9Fug2dwPC0ofTUUbIQAAaINoesWYSRvlGCL+PMnbsfgAAJ1kbNKNH+4/oV91OUHqCjSZtDPYAACALtKzpN4VzmVzdi4jtMZoWyIVCADQBNH0qsCbd+OaIqUCOed92AYAQPCMGoagnVRVLJ17bVpjYUGMYisAAMGSMaXPtYpdBVYgVVcEpuMAAEGSpQ2utdatQjPKMk2NRlkAgMTRty6NQPqViUZZko1gUwAAQaBqeqV00qa1xEjJMB0HAPCdVkyvVBglSaBkDEZZAACfoZleSS69c62iGWUVGMN0HADAR1o3vVIhPctI4yZCwigLAOAT3pheqVA2yjIJHdecd2CbAADeM+SZ6ZVS7MkkrS8a03EAAM8ZZoZ3pleKL4BiuS/Wx7FZAAAvabdpgx+M+efQMiQoISh3XwOm4wAAntHhg+mVChPSJrXgSBNGWQAAT0jPCor8NW16pcKApESBQsIoCwDgBeOCC59Mr1SAURYAIChGqQb1dlANKFSjLLGOVCAAoAXIpldmkC3INKMsJiWm4wAAyhy3AzC9UqFPcIIEctPIYhMBAEoqU6CojKZLeo8XSEZZAkZZAAClc2ZgpldKp3NGzE6uwygLANAUxEqDZ6ZXKtCMshgTM2lsKACAzJSkRH+eml6pME66lU4IAaMsAAARWrex16ZXKlCNsoKtUgMAIgtx3swH0ysVaEZZQfYpAgAiS3pGaDS9UopXiUZZAU2qAAAiyzDpJspCuG6ipBllBTKrDACILMRgylfTKxVoRlmeuNWkezO9eFAAiB+0dBp3tSZ8Q7bExCVjZgvyNTDmBr+2bRcM8xDmjAGIE8SCKpdmOA+StNK1+uF9VFb8B6bkYuwkHhoAYgKtpS7UpQRa86J7flco34yuS2kYdlkEbbHRgC1xJ1l5AAAWTElEQVSEKMB2FYA4QByqCHkzCdUoy2i2gSctuGDls//UwERHpmNvn3sWdr8wBD+ERweAqEMeqw19OzFtgNk9vzbVwu2efs1y30/lRF1H1rRN0yygIgJAtKEZq2gwvVKBZmFTKAh68NbHmJRy946/P8SFbdvH8AABEF1CbXqlpucmRc+FJIaz4+7Zt3rmM8PKFxHDbAaAqEI7M7oBUyE6n/OMQWlnLHAuKe9pRLoCuLuW2LpfDAKlEAAiSVrQTK9ETQUIJ7vXKfMsrrBlG/6oY6Y06wjllCuAAg8SABFkxOYmJfnHoucmNcxt2kRzoyDQMDnfrBmPjzxhoH3X83LIIW7wGTxKAESOrJSEiilj0bxaaFZS1L1RU2DWDRSf/At3JTaRjNv8WUjMDMEwFgJA1CCaXrGoJvmPCcpkX0HU83TNMIPJJ382t7YEPasJCfF/9s4gN3VlCaCOEIhkBhJCIIiCyAAFCZFd9KRVwxr3Cnpt3oG3ldm3uUmA/9pgwDG2OedN7svNhTSyTqq6u6osSTBAw1CRJjW9uoZCvR301IWYjRo73QtQVDS7E52d/v5OWxqp8bRbBWgUHwUSRNW3hq+ySKMsq7mD46bp74jfADF7oc1Tt9vtTKzLWsv8JsHWfvFAATSIpS9y9a/5ZQ6FGmXZvMq4pYjtHQpw8fuqxrifv+h4sTRGAGgOg7PHH877dmztvxcQYN4enhzGdlnUt/3+8yIT4K/0vInXPFMAjeHLn+2ePGzNYudnS51zWtz0rLHdoACXmQB/i+AWEnueKYCmMDptBNe2+RnnGmXF4WqOrhjfCwpw5o11030OHFseKoCmcLrzaWrHtk1QGzh/MuYN32VeijlIjlMB/t59cWJsfLChYISZcwANoaMnm1618l5v1vEwPwpUCZ33bGV/0vHvEOTt24zZ5zQ//Cvt8lgBNINYm9706hpOtr1JQqcYX3rYAicT4Hi+XC4nkshxcxxxMuexAmgG+deDY1m0eN0fSe6lQHEhAR51S0j/7e76n7VqdHtUHxM7YeImQDOY+9yz35ZvZfVdrvtdoLGpPSh4Oy6F0/lRyuxca+NmgLax0bzst/0VXa95599fw2AEuDkWoO7IWmAd1QimH96Q5wqgGRlw8DAgeZAJPznj7zRwDrywVo4EKPre7XZHk1Si/vDmX2wa1jAR4HHROFT2u+k9yPJ7WxfYCrSBTcClNcmRAH/uOw+z/YL9LuBnbJRrMACN4DkUAckj9TOZh85CXChfNvJ8JEDzm/P+tgnMXk8NF6EBmsEqkAH7x2pqPA7dhwl8XxoBDo8E+GPJ9HeI3RfLiLWUwgE0g5eAAOWx7vF2Ah9BaMKvdzYJCnB3YXz/bcZyCAzQDLqBQ2B5evjfAS5QDjx0JvkMCXBsDkrhluKFyXAACLBlAoys+nFIgBNr5LdMWIWe+AAIsH0C/FC1q4AAh3afM6/VMBUJAAG2T4BTtSIBAb7q777pczYjhKcKAAGWSa83yJj2/uB+YmEBZkNFfuqBdzUg319epX+Wf8mxd7GueKoAEODt9Duzt8S4JCPOSBJJUtsYXUyGr2UdNRQXYBr32e+qt3lWBPLz5fR/Orsvf3nTsu6xAAiweqbdiTMu9Y11oUoNEe+9pDacjG4fQHSBAAcnx8ZFmywU5JkCQIA3yG8+TlQKDOpMZSSSZqLr26a1XyDAqOtt/jW/OJscP+WZAnhoAc634yM2F0xJ+5xJGt7Z82PaDzs3qH7Nr98cvESA0dyqtbYXfBlvVLkCCPDYAhyn+Wmse4x4V1SdLr9H38kpHlbjq+tXLhJg1ImdSZL/dDx93oiEC0gA4IEE+Oz8fyeLFCkOGyys9eZqUtW+XZV/XibAaOXSUM+7yeHm42sq/Kw/NM8TwIMLsBuQ2MFE8Vz9ba0zt5Fmp4srQrALBRhFC59mwd6Z7bL79P40WmfhbhqDWhrhAzy8ADshAZ7tj7JVteZm/H5Y7x8KMFqpZAFfakHZ7Viqc2IXPZ4mAAQoxfrrHTIXUVMKKsmlI9kuF2CqwO3BYM0sc19z+guAAK8R4HS3g1YS4r27LA++RoDZP1vL7oJ2ksiS4g8ABHidALMp5aZErF42k+NKAe7okfcCIMAbBDgrV3//ctJLRjrdIkAAQIA3CHBTvv+yke4xAgSAugtwoeYvkAtqchEgAAK8iwC3fxH//QsCC8eACBAAAd5DgJO/0l+2EThGgABQXwF2/B8KME4KVmYgQAAEWL0AB96bP0SkWJssBAiAAKsXoHHmTyk4oBwBAiDAygU4L9Dz1Htv1Wff57x3cVZ6kXXMUmuLZM9ugQABoJYCPKO/RMQa/7HsPPX3pW3ZcKTP985wrV82Pt82WvsIEABqKMA3dzryk9nL6Tqzz9GbypkeMkVGVCJAAARYtQD9iWJelVGxN3teWqvxCZEWaBONAAEQYMUCHPp8/W0vaefybr3PDSYLdGJFgAAIsGoB5uWuTpJL5bPSRHOHhZzvVIUAARBgtQJc5Smr0PiQ/2eZ21CwQD0IAgRAgNUKcGZzGlmNrnrTpyQnC/ZytmMfAgRAgNUK8CscssnwyncduBwD6tkO+QgQAAFWKsBpTheY8dVv2/dyZTkIAgRAgJUK8CXov8Tc0GG+46+8CogAARBgpQIMX4Kxi1veeBE2oJwbEIIAARBgpQIMy8re9MaRD+4ryrn5IAgQAAFWKsCcI+Db1hIOK8+2hkaAAAiwUgFq6Jusu3ExOecgCBAAaiXA4J09vXExsyRYW7JCgABQIwFK+WcgGcG2CH6OAAGgRgIM3lq2H7euRkK3a+wMAQJAjQSYXNu65TSjkAB1iwABoEYCDOaqNr55OdccLiNAAATYDgEGXtgbBAgANRJgTvO+/q3LWdvL78EgQAAEeP9DkCLN+87wZAPjgUmBAaBOAlyEm8G4+a3rsSJidI/xNuYeIADUSYDLcOMC54e3Lmi0GB8zm0YIEABqJMBXyeldZaVy9SBAAARYqQAHkjfP11n/jgABoMUCjJL8scCJyrpKByJAAARYrQAn+QLMEmHVZFmVBBEgAAKsVoBPYk6TiHj71qlARAgQAAHWZDD6USSoKrFult0BAgSAFglw6U0xRCT9GZPtbLSa/slHgAABEGDFAox8bIrjjLfWxkY3s9F7yR5EgAAIsGoBTry5Ars7IEk92OmX9REgQAAEWLUAI2vNtahIkjgxH8OX27cHESAAAqxcgK/XC/Cn0ZUXScPBt9FN0SACBECAlQsw2jpTAs5nWbHOXhAgADRHgJGLTVlkXWC+3q76wREgAAK8gwCjJDHlkQWCYkcIEAAaIcBpEptySfPhuIsAAaD+AoyiuGwDGlHRt0vOhhEgAAK8jwCjcaJlKzAroRuvECAA1F2AUde70g1oxPlx0SgQAQIgwHsJMOqJF19+FOj9GwIEgJoLMOuNJeXnwVl7/UJ5MAIEQIB3FGD2Y3iRsg3ovJ8hQACouwCjqP8hYksPAmWBAAGg9gKMot7Qe6slx4F6ftY6AgRAgHcXYMp0qFJuIOj9WQMiQAAEWAcBZjytbZJIUt6FmAkCBICGCDDjfZkkalXLKBNJbAcBAkBzBLhjNZ+ot158mhL7m24EIkAAaJgA//H8MpxsbJzdaVHVq0R45igYAQIgwJoK8IfpqjucxNY4Y9V7f8lBiUgfAQJAgwW4DwmfRrOFE5dcUD6yQYAA0AYBftNbjdbiVKRAMKjaQ4AA0B4BfifGr+tEsiaoZ85BZggQANomwB2rmU8jQXeyJA4BAkArBZglxHNNTjWX1ikCBICWCjBl8HGiq6COECAAtFeAKR8uLw/WLQIEgFYLMOrnTRpWRYAAUA8Brvr91cF/n+WtJ32rcEUwAgSAOghwa018SOJMt7QFqb30FAQBAiDAygQ4s/rf3vXTshb07oItVf0TAgSA+wswNPxDh6WtKLwLaLsIEADuL8CvQJKqi9JWNLQX3oNBgAAIsDIBWg2NsCxtRatgiwSdI0AAuL8AgxUbvrQVPQf3AHWJAAHg/gI0QQGuylpRL7gJKAgQAGogwG3oG6S0U5Be+CIgKTAA1ECA65ChytsEHHAIAgC1FeA83LOgrBWtggK0rwgQAO4vwNf4whz1MkbhU2AuQgNADQQ4Dd2ENnFZOfAknAIPECAA3F+AUfK/9u4lR3GkC8MwqAQiawYSSoEAgchBCqQUuQtPjmIY41jBWVvsILbF7Df1V3fXxTaHS9oGv09PelDlso31Ka4nCvvA+v0+TySFV68oCU0AAgRgfQEoxbt1010eaKSFs8BKAAJoQwButfjcjrushHktHAKUDQEIoA0BOE7F9Qr0DnUBRyWHZC4JQABtCMBeKk6pcIe60WXngnAoEoB2BODelxzdkW59nI/ixmWqilYCECAAawzAl9IATLf1gjeFK2zyf56D0QG0JADL6tZnWYy3rId2riRZ0wsBCKAlAbgqP8FXjtfWhZkkV3bNyq41AQgQgLUei6mlCSgiVy2Jnh5FSgIwhO8EIIDWBOBKsgrRLUYX/Zuf+zw3Sy8pvkcAAmhNAPa0KgDzZqD3u+nY9O/NBzuffNX1ZEAAAmhRAL5IdQRmqup82k1Wo9IlfOP+cu9PWVnZnMxCdQOQAAQIwJoDsLeoTq2fu+M0/y+lFKJ/3e1m+5Pd7uNVUuY05BFZNu372xTwmAAE0KoA7IWYWcWYTi1CdaeRPqeaSQjB+pcr1wASgAAB2EQA9kSyGujZ/XUEIEAA1h6AbzUkoPP+7A0TgAABWHsA9lbef3UASjyfZAQgQADWH4Bfn4DRG9YTEoAAAdhAAPa++RS/MP+8t9RWIAABArCJAOyNgotfOABoijECECAAGwnAXk++qhscnLPdMAEIEIANBWBv9yWTwSI6M94wAQgQgE0FYK8vKvfPv+PKesMEIEAANhaAvd7COb1v91fW9hsmAAECsMEA7M03mt0zAuMl+UUAAgRgkwHY6403cp+xQPESL6spTQACBGCzAdjrDRf+XGErUwC+XnquEgEIEIBNB2ButD5loLu67Zf/5e384hsmAAECsAUBmFsdjtf1hSWTNLvqUE0CECAA2xGAufHyEFJyYm4KRtUUs+21mUUAAgRgawLw5HO6zzPQnXaJxMrNvk5DiJvl6IYbJgABArBVAfh/78v9Jngf8yjMw/DUNf75fz6XhRDcZvHt/dZXQAACBGALA/Af81G/Pxgsl5Pt4uPH0SDb5bf+aH6nV0AAAgTgLwH4/ZYrfkEAfq2VJwCBbnormHH1k04F4LYoAOd8GsDzGxXsQIvSqQDUonpcfBlAB4wLjpeMLt3QA3ywAJyn+Pc8c1C+DKALCmvSB9l0JAAXGormQDwfBtAF4kvq6W07EIDTklKE5mKqAB7avrgivROR6yaDHycA371qKD5NfcqHAXTBW0kGnHbXumuGAh8lAIcHdSWP7hkCBDrCh4qdZuunDcBtlkqfWxOfBdANs1B1tIYsLw5ALbpOyx7627Gi5EygBwx0xbyy+lQegW+XXW9aMKgosVWP/Bl81TlMQfgqgK7YyJk6o68XbYuYFFxOPtr0wLuUqkrMxDThowC60wSsLrynWVhccLl1UQBu2vO42+r4yzLHFAjQIdtzJZiD02/mqxWd7uZ3bXnWVUpn6qzqbbUgADyY47ka9DF6b605WpQvsm/Hg76onj19Uzd8EECXjA2HcERnC4ZpUQBqO0bV1iHEc0eqh8D3AHTLuyEB1TnLUGBhBzMMWvCQUzWcvZ4yCmEBXTOwHEEk6lZnL1QcgO+NP2HfRcMhSzF98jEAndM/SjgbDyHTc6WSC6cYnBs2/Hhz8RIN7b845lMAOujFB0NCeNV11VVeUyu3lu0N6X7Kacd3AHTUunJ7xH+9xIqK+bPiC2iz5fWm3hkeTFS3fARAl7vBlgRU70uOjduUzDLoosGnej+WVn35bZLbcRAS0G1LtXQVM9WicgHj4EoC0Pcbe6LhwVtSXbxQAAGgH5yZqNPF7/Ol450r7UE3V1xg4Zy3PI8s+OkB9F7CabbXsF4kpbie/uw1vk9Es1jevGroWQaWlX+ZqByG/PAATlbRsijwx9FBeQqmvEOcnKvqOzfUu/x0zpB/QbUFqxQBtMYkupjdTzM94J0XW/NvyQ8O4Lf0SOFu+ReaKAVjzPB0TdF/AE9uJKYlMZblxTqq/e5XYurFi7yy8xdAcYjcJQB9qvvOx2Ka/MgDcMXPDKBY1cFpF4wA1r2+eK8hWFp/QuV7AOWGH6I3NwNrPg5kaVr4nOffmt8XQKWX5PxNEejqPQ/uzTvD2F8Q8ex7A3DWILkbJoQ11VkKNW+xWtLahTTghwVgsVfbuujCs0Q2LbzRRNUXAHduWBUFYFZnU9VSySFGz6FHAC7Rty4s+TNuarvDd9tgpWtiVSKABzdNFy+JiSnVVWNgePCW+EvJUfQKwBXWTvwl+Ze81nVrC/GWfR+2Y+0AoDBnLhkLlFlNt7Uy3Zay7w3AjREYbBGYVGvaZvYZTGu11bk3fj8AN1lqsqw0DnU1/3a2oi+FNfwB4ELvH977WDnU5jY1Ha87CWqJY+9n/G4A7tUM9GX7Q0Q11DXVYCt6lf8h4bhzAPczX74m8X8sDtQQgt/Wtcl2HEzjkeKO3/m9ANzZaDqLEuOP45HiqbjobFnjIuNZCIbRv+gcRa8AfKX6z1RbqnEv8ppfB8BTeTPtzBN1iX1vAJ6rvWmrzSAaWPoC4LksTEWvvPfsewPwXAbR0vwT8R9DXhaAZ2Ks0C9yZN8bgBbZv966IGV4MBXnFy8M/gFokUlyzt+2IXcSLSUJXcjWvG4A7XEauXOnVcnu6n0iK/GWsgcuUfQKQIt8zxt//07OXleWwFj0Kr8+g38A2qPvf82ulPwV/eC1WvJPvGffG4D2mIr+XjcmqOqF/eBJ9K5VNagB4KyXWfFZRbq+pANtKnqVaUgUvQLQFsuQSjquzt5XHadkOe0yD8kVbxxAO3zzeqZggalOwcxZlv45lxj8A9AS79m5SQuXyeZ8G9I7y9xv0B2vHEBbbIO7fc72zZvmPrxLn7xxAO2hlqZb/ofKV+3NX02tPxE/4HUDaJW9ad2yyKH07ztDzVMvQtErAK0z9pa1y3mCbQv+8tRbir4klQNFrwC00UpMpav0rwUsL5ml5l9QFfa9AWirhWaGVSwq8mv9guHBdN5RHpxL3jCA9pqfTiW3pNl/I3mTvGtrWfoia14vgHZ7S85ZmnNu8E+32XLab965pugVgPbbJlsdK78aDdRW9CrTPu8VwCMYHizd4GiaMvmx782x7w3A4/SDvRdTQSvT5MeGFwrgkUyOeo/0CyL+hbcJ4MHsxDi+Z5krAYCH8hL01m4w+94APKppyK5vBDoRBv8APLB1uDr/VNn3BuCx+8HGrSF/rvvT285UB4A2WB3l0glhcbLnxQF4BgtbpedfVj6/su8NwJMYp0tWxHjPvjcAz9QPFuN8sNgP0ASAB7H1zlsCcM2rAvB0hh9nix9IFtj3BuApvVXW/nMi2YqXBOBZTSrWBMpxywsC8MwOUrw3JCT2vQF4du/p7xMwxfuPMa8GwPMbfcivh8cFEVkTfwC6or/4+Hd73G4y4oWgSf8DhCFYxWRICbkAAAAASUVORK5CYII=;" parent="1" vertex="1">
          <mxGeometry x="901" y="306.96000000000004" width="90" height="55.04" as="geometry" />
        </mxCell>
        <mxCell id="cDf-g9UQeOTYhBCLNVcn-175" value="" style="shape=image;imageAspect=0;aspect=fixed;verticalLabelPosition=bottom;verticalAlign=top;image=data:image/png,iVBORw0KGgoAAAANSUhEUgAAAooAAAEsCAMAAABzB2LQAAAACXBIWXMAAAsTAAALEwEAmpwYAAADAFBMVEVHcEyCgoL///////////////////////////////////////////////////////////8qKir////////////////////Ozs7///9LS0vS0tLPz8/////////Q0ND///9NTU3Ly8vNzc1LS0spKSlLS0v///9MTEzOzs6CgoKAgIAtLS1NTU1LS0vS0tLS0tJOTk7d3d3///9LS0tLS0uBgYF+fn5OTk59fX19fX0rKyuCgoJLS0tMTEz///9MTExLS0uCgoJMTEzLy8uBgYF/f3+Dg4OCgoL///9OTk7JycnY2Nh+fn5PT0/Q0NB/f39OTk5LS0tOTk6AgIDZ2dlPT09+fn7///9PT0/U1NRNTU3V1dWEhISBgYFJSUlPT0/U1NSDg4NKSkpSUlJKSkrR0dHPz89GRkaCgoLNzc2Dg4P///9MTEyGhoaLi4tGRkYpKSlLS0uEhITZ2dnJycmBgYFJSUnb29tJSUmCgoLR0dGEhIRRUVEqKirKysoqKiotLS1SUlKBgYHV1dV8fHxMTEyFhYXOzs57e3tQUFAoKChNTU0oKChJSUnR0dFOTk7T09NQUFDIyMjCwsL///9ISEhKSkqAgIBISEiLi4vf3996enrf399NTU3////i4uKAgIBNTU1PT08mJiZPT09KSkpJSUmAgIBOTk6EhISFhYX///9PT0////8nJyewsLB/f39NTU3///9GRkYoKCiGhoYtLS1RUVH8/PyHh4csLCzm5uazs7P////////y8vLQ0NAwMDCCgoJ5eXn///8oKCjCwsLq6urb29tLS0twcHB0dHRBQUH///////9SUlIkJCTY2NiwsLB1dXVUVFTo6Oj+/v69vb1/f3+lpaV7e3tJSUlISEiHh4f////IyMh4eHhxcXFSUlLh4eH////w8PC6urpVVVUoKCgtLS0rKysqKiomJiYzMzMsLCwpKSkvLy8lJSUnJycxMTEjIyMuLi5GRkZKSkoyMjIhISFJSUkiIiIfHx9CQkI0NDRRUVGDPh1NAAAA6HRSTlMAswoGMwIxCS83KgcuMDgFOf0IKws1MnMM7G90JwFzLe92d+r+8zbxcriy/uv+cW3dbQTh6LCz6b21/rbk4ing5rrpc7K2tbQ65HZtue12ruHu57lp4bAk723ZcKu67epqr97q8XNx+b1wsg3lrqrz+Ny0Zni16WvyuW+t3vxx+vrmrW6497BuvOL75/nmcPJy8nR5O/f5te2tZ7Vp3Bdqt+Xo/ub74rz2t7oR5w77iMDVIv39pvfhSLPyZIIcIF9q/qjBEPx1Z3HY1sX5QBTt/HCQzuNSRHqrlMP99KpcbsXQ7mRNMofOAg4DHAAAHxdJREFUeNrsnX1QFOcdxw/u4FQw6J1oyaCcA77Eu0EECWrEF4I2kDAQq6gIifhCjC8tGExVoofGmCgxRk2bJsak0zhpmHYmtWO1UTPTiZP0JfknbdImdSadTqczz8uyux6Ho5nMtM8dIAe3e7e7hs6lfD87N3L78ntun/3u9/n9nj3QZgMAAAAAAAAAAAAAAAAAAAAAAAAAAAAAAAAAAAAAAAAAAAAAAAAAAAAAAAAAAAAAAAAAAAAAAAAAAAAAAAAAAAAAAAAAAAAAAAAAAAAAAAAAAAAAAAAAAAAAAAAAAAAAAAAAAAAAAAAAAAAAAAAAAAAAAAAAAAAAAAAgIfmP2tXV1S2WfsRPN2+Gf+r7Jw4DR3b1vI7+BJZRL3R1d6vdPWJRNZeeiG09GsvAFlVJQX8CywgvU0oCVYGNgYrAqr7liPi5RrxCy5HwElpbIF5PRS2htaG9LorXNbgiuBMpsi9trjSX3ZmW7HLaw0uGM8PVtzh7F3vfkpY8ZOnb3+4sTMtwvYfuBNbp7iLoBJAYrqi8hF4ACSFFuCJIFFd8AL0A4IoA3JbiTWUcegHAFQGIyBXhigCuCABcESRe2QJXBHBFAJArgkR0xbvQCwC5IgBwRYBcEQBU0AC5IgBwRQBXBACuCOCKAMAVwbdeinBFAFcE4P8gV0xzuFtnClrdo7+5oPbpY6Y2zbzyWbz9nI5TM5uamlqzHWl32uS2Qsepk5MmTZkypdU9znlnsZwv5bROaQp1yhhH4XfgisNPcvbS4x6PFOa6JJFHT3SenHynQSdX3uPxrQjH/PpKrB3dW46v8Twc7G1e8nhO7Km0+hfUHJv3HJ/xSPCZ4PUQUvCZ3Z7je05aipZ5svNtj2dTMNQh4Zcva0Zn/sQRnCt+9qeVVy1L+8q8j774d/+b1e/85R3NvVpfXiFxmVIqc0IIl1VV5USq8fwq1VAjf776T40/MzXPVycR1hfz67/pHt3aWUI4o5zx3sZDH4NIFdOenm76bFsbSgLhNllEsFC0Gt+WMeZCjZ2XW3OdhD4WG+iUUCjS0dn6LRqgv1lX/PjWdWmUtUOzpWCEH/3141uP/SJ6p4azhFDKJaJcLGsrT0ra4TsgM9H5VA6s2L3IQCs/Ct4aesKLpj2lLGDn3/ygR614v7i4+KPf6hy7RTQuhHOeyxd99eXlxW2+A+KChzQgeaZlmxpK87NCoQhReuinB0p2iFbrfZ+G1SNTxknWHLvxfvtJXYCxvDfFkRfPdtRXl1fXlx3oUVmAUJUSUrZ01Ih0RZvtXLv3jKWUx6Gw8fMH3o67oZCMoYPoToUJKTDl8N70yEuV/kYJU7jMWJY7bjMbqZQ+aEVOrn/fJf8lXr839iVLWa6E2z77UPZkV+SAvdIn3Eh424xFhs910jFxP/kDFS9vtg0+x/QXlm8UjYibLfDaNkOh3Fl+xo76eePenCEje+XlKtEloVDLR2auuP/5C/6DVg6sYPzziLd33SBVQ2qCOeL60ecLlmkNX4XZjYrYSubHuw2q5EGundlIaPslf0lcTxONy+PJkjmaKv11R2ikJVsNjqc+hXO/clkvk3uxLcBE1pFrwGdd93LafkGZpTeiZ4ubV3SLsmdEVtBJ3vaj/zB/2CzK/xh5U0z/imxKHnQBO0SnHt3won6InQqV2fY4xvh9RiKkOFti/gt5O+N+uolzF/Dxgdoc3R1ytorGKXnawJnOFqJufusPMWuo34fuOrIsXqhRRUxuV+6LfQ8VCV3TisSvYIahgi6lvM5h9qDZnOd9OGi8DpJNkQ63X1wc1rI2dpR6UVOQ9TF3WSMPSNFZKzzlqAEvW0vYvvMH41xN4a8yr42bnJwWRQX/JN5eKY15QoxZGTF3ul+0uC/+EPRqWNerR1yuKG7pOs6KTB7jJtR/efDsxFeDpLhemE5zddxZvMfrRG50OnaueFuKGXOFpxTETy8n1IpksKUy7n5jFgtXnhtnWmkWk2mNoWqkRYwCFbFmdvaGRP2CkSvStk8M+CcTXIo3h2Fe8cM86jWXLiZvZ963Bq8afYN4BpR3iFN67n5jniyzxpi5Yr8UM0pE6VAcP2LhQiazgxlGGm8UrtyRGUeJ7LCxTrG/L7SY69L3RC7TIwY7+ImQFsckthSH5Rn0v5jJdHEWY+fsUVIkt1fdJ6yk1GgsP6dZMXJFOdArxeRcMZ6uNKCIGirnnTbY+ON1nJfGqMSvKjKbZbhbDorCXPdeyZSEaRqe8vmd0KIyObGleHM4/ursQpEumsiTRaJIhl6/0REV9CFhJW2Go60UbrEjhiv2SfG7TOazDYQrM6bY/tmYDSJb1Z1sTz3CTJyIyH0Z5XfrbGtjsYfvob7IVdqW2FIclm/mpNQxttD45SPMHyUKxzWS1ZcrrhVWUmuidaFFdkg/V+ydV1zLjSmsUSjxWRONO85QWqMnkd2MFblMBLMvpipJ0SlZeMBt5ppUM0qaRp4rhsoQ2mhwX9d2pqE0R5D7eqV4SiRgtaZany8ML1/XFcNSHCuCPmQg1DLGTSnRZhslTr1Mt1eIuYQtm6isQTO7nkvZZVOhCluoXDLyXFGMuc3+5r2GE8UNydGp0DX+ZK8UCzgzO2deL7Sos+mV3iluD2P1BgJN4bJ/vcnGV+fJdJfmlgbOkkwGS6L0WKHG+kqJBuzmQj1LKH8woaU4TP9DQTVr54Z2vFskiunRq0WuWBEey2ZQLaXGMdoiqvq0N60JSzFfYUVGgoq0s9j0qb8qMjwt88tYyIjbbDCFEi2Dv5fwN8yG+g2XPSPQFW3ODVStMDKUc96sVT30V9DrOCU5pltfJBwgXy9XFFIsI4qRkbJE9RZYOPcKleZqOhn7melYjYxPi1477pgsjTUbaipRlZHoirYcInvjO0qGQlm1TVuKBaKCLizl7DULrf+U8e2aU4FVTOSKmxViZKT8hHmPuq2cu6ibNB5WNxBi/osJi5j6y+i1p4LykxNMx1pFyboR6Io22/rx3vjp4mFKWzSflYlccbEYQhsYK7XSuL2GK3/XzBWZKDzfJsTAo8lCItNllk59jqhWtXIDstl8LEal6Ac9D0qk3HyorYS/m9AV9Ljhil2rXzzcrm4UzUSxt4IuFVJU5DxLvmTL52zJdE1XDKy2cWbEnjqpt8XiqS+h0YXvtixqZXx8l5N7olbOI5KFCmSqROUR6YrhdLEm9iDO+T4d45z+Y7bKZfs5o0kWWy/h5DmtXNEbeP2JgCFNKPSDzRYbz2bysaEFbujxjoXnHfmSfCJq5feIVGnhY9WoCSzF7u7A8P3Pp26ywLsr9uCjO2OY+RgX3baCW06084ns08gWH2VSyg+CSw2ZIl1i+dQ7eFTh63zEkhTdhHq0pGjlmzZVlLgTWIpnhjH67Ga/P8YXQH0q3aCXfGfuZgds+0lzo9W2k49xovHQ7BXOvlgRTDcQgNA7+ALBOsKGznM7H7YkxckynRE1g7jLmisely0d9j8aoLuVL3MyQ0x0pE7sJTXVEUloxQB9K/vfjg2T+sB72uGrhe+l6Cf3sv48jSOoLLF9fj1g/RczfsioTytXVGVpk4HDtzDNGRmjN0IRI0N+w2lC1n/Zu/aoKK4zPqEsuIDIwwdWFAxgFKgRTMQHaKSCIOAL39Fg1UYMqRIjaGyAaDSnldR3e0y0JhqNpzFWbZo0SWvsyYnpqY1pTftHT6rnpCc5p/fe7+7M7OxCtZqczuADdmd29zp3dl0w3z8w+7gfd+bH7373u9/DFBQFEWfFG7DidhNDvQfOVWG8bWkDJ+UV5dp53+air9OmGNVQ9B0K2+8xVPzVJDqDY26K0XK0XFTN4/UsSywW59vMK5+DkLdtkmtq2yL8Q3ZGGWxb5pgYqhbRi2ELRZfDJWN+cX/hY/w4hFuMH7yN+PAo3hD7PrRrJkipHHP7FcBkA1Z0OCQGqr0fYcJzY6OoWOxlqqaLyEwqKIA7Su/MgYdNDPW52/2XMIaiuOt///Up39NJl3eOHj36C02O/uvo1yd9KVgKAIam8mw/hqIGxTXQ1oaBZ27TEdZ7h1eDg+nMoQSRN3iUn8gAb7tsCUKvmBjp7/u+1mXDTqO4MenOhzr5yScnw9iZI/1pcF1KXV1Kyom+dX09JEKVFC+JuC0dlzc/mfSpb/aaR7BksNCVYBH52zwMW4MdDuBKm7SpK3SUAStC4LQqIekR0cR5o4epipRTnq8MoHiDiYF+k3JQb0kj2VS6+fHjqeHLii53kDWo5qJBzOaQxJwWv4Gr8WtUow74btwUomzU24rfKAx5eesopPPNO86NvCAfqciW+VJyMXpZ6FnicG29EGQVcQgydagDEY/x+634S6KD9/R+I4IGPSteYaE7dTFdz6f8wiy0IcHzpQyR3GfRTT0FxsFj3RmK8tWyYOtYmqjLFzgi40n+v2T/ueiAF/gUJ7tJhnco2GriYsnxmEVQHOe0xynuPZ6vXAQZTbTmnvanmEzpWVC84tq6N+hK5hFS6BHz0KAaigGqLdlVVuSNIynbinUWVZWIGVbeYa0YbJyzrqDUi1hjkYzLLcp1KgEMz/coKKqsmBB0JdHLiEee2/NAAsbsaAs04VWcRehQb1sRs+xavu8Uq3iVr6NorNdLeUTGBdZgsex1UYb5PQqKrqyy4GtRzUWp01zsjcScgIuLCkUX99n9MX0AS42o/CTwF8cqqJp70hLoCk9kYBk/mWbJPV2FZLlH8aKj7ao9BGoelDpL1UQ/ghlio+2XMP4rr9ofUsWbmF4iLOFVa4GO5J60QtK9QzGTyrFMJlmTYbKfyG2Qbes5UHSlJ4RCzwxCim/6ZMcQnBm4LKd9DUYNvFqTqc4zWSWyHMOmi9y7FiE2HVNdgG5SIxFFeMiS47ctRJZJ4cI+PQSKrjZ3KFhRSCq6lWHanNnU0sywcViJTZ34e0g/iaz4yNtWpIFP3yIaicJNN8dXEGrgRnwZYVmE1op+/Dd1fkcdv8IlyT0CiiorhgSKQhoC0IIfImdCPYtzVoMid5EXm4Jzbd62Ig3sTynLIAv4y6pPBcOQrORWUC1GWjTrUW6056/VwAioYGyvHgDFELGiVo4BUG+hz0CCWRIBNShK3DUBY4ux4rVGriYoLWDhuTQ3bOWf8RLkHGL4RupDSEUjoFG5x7jNgFKt8jZGMzNKd3dzs9HhmhUiKAqVBM0WLvsLYPSCInCr1NbIGG9WZLACp1F4g3/CYxXnAB9v9TorEaLuYAC1NgziZP68AikTMEF05oq8qO4MxZCxoiB8+GvyHwIS27Ibv9JcoKmnTNGtkZswQwLxcCf/lkkQziKfUFRlYqk0HjoKt0tHSjnhmNeqUKLxrPLswAP9uysUQ8eKgr0IXHLTl4wftgKKZ7Ygb6dMAUsu++NOXHN26P1dZNB0Tbyvpw/oKlpHo+GDtJ8dV78vxz4W6NtoLJkrnbvRRwBqJnDBsf+DiyUpE2uNQ9Dshp3fsmIgmmhxuE6z4nYlAX7jp0QHxdVsUHSJivNOpaOl0a2f1InEK87hAVUNyT4ioZtwPFzNtVGLW19AtkFOB9G+WbrzW1b0s4koFK+44AAzFJfze8xe1UGxhgWKFU4X1nrx8IkC19mKDo/MLrrBjkDEHRU89p4tdepPST2oBrkKx5rq1O60k3HJoWPFMe+8874oAisUAfKDAEUmW/Fzip+9XD35GU1qa2snd8qxY7Udov1eWa1J5QidlHbIiBHvtX/G/JcOmfCmCn6SA0iCH3AxWn5qdfHc16CjFREUrO9OrJgQIlVzmt5vencRweVMHYbsb2HRFgQoMtmKFRTevgsPY8iUQ6dfu9HkasFFrsnHTiw5NIoiUHlWOlzZPVzgobMV96D6+qVCzCLGup32diuguFa3g35JZNtBV96d55G/bkLuKA1CoDzB6XNM6p2341l0jqjkWPxod4BiiM6gBVshjNcS/Jozm86x1AC1hhXTDfyKLFCk6Njdeya27RmLtC419An+GJ7dDy/ahgjAkyPDH4ptV+NDoujHBI/uOEsbl5gIDCuGyor8Lu6Uw7psJDa/oiUubh40freYdIDRgliHdTP+rIJRKo4Ldyi6skLCilsI3AqE/RCw1IcFilIkr9bBikz7mbAVp1Gy9W4/mdQirZ+VZIWdF7n/dCLG6I9hbyuGghW1vmm3HBt7l2G8mAWKd15XVfcMJLk434StmOzGu6Lv+rPZ+UvNZd1sxVCR/3zxOQybo8Maiq6sEECxP4L6p29fxSBoGscCRe6UpBhKZn1kwlYsy8AQDvl02b8VRckaMms+rS74j8WGMxRDYiu24pzNB7ty5PimhQxQHMqrdxoF78yFTZghlz06wwJD1QpZtYhgqdmasZ7KwWRxXRhDMRS5LSU4x9M6nEFE1CswFLndsxX6TKcaghhi+x6wIIrbEklTF2mr8vjfVmG9P4yhGAJWHL6t3mvPHFuEA0UtqlBEJdz/A5IuRWU1ExTXQrgUIoxBMp79HUuGih6trtHhW6gkBKzYC9W/6F0dIhmJ2H/SX3w7xg9wLicRjaKuqGcVExTHKqaKxgVDFjZh44ZWJmQuDuN2GcFnxYhC0jLP4AYnZm70D0XRhTijxCKp+LMLOluRBYrqyj7mIOfEP9i794PbFxze+sXW4Wc+uIy6eNwrrJhNEo26UU3BOX4xoULxG8SZ3JKqgM5rxGYr7qGkkXdV/Pja9c4Kcu/++4vPzA4kyaS2y+WZ88fOnzE5VHEY9/kLOisulLSUFqPFQsaFEX6h6OAtljUCFN35HZutaJvN7dU8PpC4P7599Yfr7nazI90HYtdKzklues3sM0uF8F2hg82KexAk+sghBb+tde1viQ6xmEt3XQbRJ5pWiSxQFBYQ3tTXwRJu7IztT6Z4h9mRklvkrhuX/HRZMf1vUh6+Da2CfNpimwvYV1f4jX7NRQ2KLr447ihKinSr7HLMVGn+Ge7GT8mIbOjcdvWmOMt0OiuRaZfAiLpLhvnVbFKKlMpwhWJwT1tyMf6dzzfHEfDdjsK+EtpkylWf6CIycAdViUxQ3E15ndzrPerCD1OhaPqooxzTLpkJnzYAXWd2qO2Ut1JgN2XFEvwc8RP5cBnLZLBPKKJdR65xeRbTjR4Zm62oeT4lPid3Ou7q07RNwuaNtB+Bh2up0m8moX+JoWTBvciKI8FvByGhD5LlQz6hSDd89bqTQ3uaRAr1u2A2v6K6w0ecmyZJVqI8NjHmKwxUetL7KcV8y4teVF4evqwYtCju/qip3r9hkgyiL1MyXoVi333XOM7+XiVgUJhuOWaDYrMTVpzgmHweYI/mz4uBmj7oeJqiqV0uKzgCe+OoLIcvKyYEa+wCMn5zgI8sTRyfuNCHMwdVCfP+1mp+B6sYgo7RVhQSCkWuyKAM8KynV6mgA2bH+pJ65DfscZNLEeZZcdO9x4pjMFkW8I7N89VcLaEdicJ8xXwPoVeMG6Mx2oqCkI0IR6uOOIRnRnnuF3CW2cHGefau6ldo3uk5keKwXaBdWcOCM/LjvnzbHhL9FMajjQBrb0dH/t/evcVGcZ1xAB/j9Q1jB7zYYMcUO2ugGGRbNhinrHEUEwKJqbFxIm6xA0WR7DhBJpAEIkh6iW3VVYKci0NSFxCJ1UiJBL1I7UP70qBSVW2RojSt6r70oTqXyRyzrKKUNFLOrNewl9ndM+M1DO3/94LYXc/szn77zfnOnDlnmebTSx3uPj9AxbctHldtK2qVZBaFhraF8e7YM6PjzcmyJfLe/ie7mX7K4aZG9dnP7DxH5uw+6ALCL9WqFBeEMqs1wgqvk3M5Wg1hDvtzZFL0Wz2u2lbUtPsMetZ50RL7Q1h8n/PO5R6mR1XzR4njQUtnCOn7P8uKme/yNWqr0D3OjUUWMesJkv4cTfMTZ7kkT6fcKimqXm3RzKUtqO502sK++LWkxwjf5ziuN0R1BRzR2VsOW/gdPLDbraE4R23FFbSqTvGl7dSwGBwqs+KzMhRPCfZ7R7HA6ITlE8ptRXPsAFvv7NMv/8UaETsb0xFCdWc9lZc5i15NONPPdGcBlbVH+aTwv5IV32ZriPLcL49M0fgLdLKtuNZ80E+cDGIeJYmW6NuuHoqVxODOzqk+StfFPdhP2WFHW7vfiF3B9TFOOxY72VQZYds0t4binGTFT/WqHx1XfzmjbJ9FBU0yQ/HA+20P18qr4zRBa+o7NtJCOzeIk4//Y2aQ+P7svQ7roPkn4m4pKAlQ7qjH1Z++Ybh3RlZc9ohqQzHcw8A5i42cws/JT0MXbdcLYbuN5WMsUfPARlbUCicofcr+xy8XlFkESv0Oq3U3FconSuN6V9ezKSc/kt2CunkU9xxkxVLG+m39gSxdyMm4tuKboVDMaeZ2V7OTRQNJdJXNRlvRXKbHYLYHsuQKSp+1eqKJOVkL7bkXafwtXyWBKbr/z3Y35RmntM+9oTgHWXE1ZXU2J9hoZ3w8um1Z/CV5Myfc3aM449ONvg5m8LJET+6yE4patYyex+19lJIRxpqtP34LnbK9rLBX/hosbhp/RzaGn7GdXxkly9wbiunPijWC267S8psZi1723cyK4QdaObOTF9uY5ZcX9hdbJeRSeXbktm64yh7hvCHBmiy55lpo9qZk8rRQ2mBRoXxoTvcyZO8g76f0RK3m3lC89nKas2IBYaLM9l95Y3u6Zdny8sy8GkOyLblPcbTf0j6WdHS4vayoZTXLFPsD9df/jDDekHAITu2lKXt50dPPEtyRvXWATglbebFRHphGzcWhmO6smOOLXuVUuUXNjaiG1MLr0xV0OBZl61NtcEJp8kjUTtsLRa3QTyl7oUg5I1PanGSdqkerZCyqZ6b547KB0Gr93HIzxWYUKf+m/skM0a65ORTTPTJnjDG/oy6vRnlej4i2rRFZUdNOmnOxKlzsOnKOcZJ0Ph6bWVF+h7LwZT6lVObtpAbtT9pMrj4hA0i1jt5JqFGV8Cy8yZyDcUQxx5bJs45o/9DNofjFVHpHce9WGgRh5aNfUrru5jLpedfJPyImvvLKEyXtTHHcs44Szutak77mX7YvN+SvM2eEU+id3ihPziTVGaGWmOvynVHY76kd5iuTfJqCAZmDicrwodwXuEGrGl0didoX1879No2b+1TGgtP5TbMEjcgXniB5LzK75v9NFtJsVZJgzDoTkElpIsWkjLazohZaIZJSkXzyT+9Gwbg4kHp6k+w6Jt+mOJPiDrLLfsGrWEvSn3VRe2gKxr4Ul6O8R3UZs3tGNXe7do08/cySu01Ry+FMP3R3zBOWD04vnrPkG998reQ3LZw6XwZqvqxO2iIr6OgT/ckWYTDWkWDxsOWrA/LZwNlUOznNHIxxyB3h5nd+uDxR7XS5gwgeqBtW6sNqu2ieWgOD9yQ+Eu8LeRJg402pNlXZIN8YIx1JbjB4uIPIQOSlmtt99tkUn174Znrpmxlxa+NYPXh15uHpf4MHLjL67mzO7rLkmLlemDdzteWm+uE9wuCEdFwo1yKfytG8F9bKdCz09tTXvXctCjgZlLDXL+R3LsThmoLodJZZXH5hlZA/ovN/eEe5L+LegUsyOjh79eFcLWb6zazcJYdl+qcvLRIPqPQB7j3wQ2JwJrY/VrMg5odQn1tztkfmaspe7Cx3fSRqxnmSNnoweHV2yyg36lf+83r+TCiS+PKwaRshhsEFN7b3DXcNPdHbNTzYI/8vA5EM3KsyAGPFlS+drcS812e2EIgu9396TO67t7a3q2mwRwidM4OQHcN2eiLuqhkhsvkmf1fc6Bk82tTV+4T8LG2DPdSQezCXy2jZqbqtykdbQn+iE/HdikHznfUOdbWNPW2ENiX3UdexSbsDfFz9vf2bM0I2b64Oy0jkwWkbI9x4ZsuDGWNjTX+a1bv56HdPff73cCj+nKyy6qm4Z8u2gAwHWSCQUComoQC5ssc/rBZh/37jj584fHcLdvoHrsov98a+wzvXAzs2H3GwtXMXzwdCf6/f3Nyil75FguP+alvby3xIRmP4oES8M3M11PN1vu/f4Yvz3nae9/jBBJ1Cnppju3zrguFWQ3DCv3b16Mpb866KR49VfNB8sx0TPNCwdmOZ07tK6x9q+vX9nRMNQT28LmCwoaHT2YdZnP3KsVd7+v03NqVf7d+2IaOmIBOhNFslQXIwySzm8xZ6K8uk3lFv4bxb+86erC/e1Gruu+x464LZ73xpUaF3dMhkbm52E7fnLPS2Hg9p3ZS9FUGUpqw4yQ/m4DDA7Vf8BqnIx2EAV4QiQTsH3BGK25EVwQ2hOEkq5uEwwO2XHSQVRTgMcPuVPE+6UUGDC3gmyQaULeACKydRQYM7QvGQQFYEV1TQ3bwUbUVwRQXNUbaAK8qWbu5DKIIbTtCHeCfaiuACeZOc3IXDAC4IRZkVEYrgjgoabUVABQ2ArAgubCviagu4wcpDBBU0uCIUMTIHXNJWXCFQtoAblARJKUZxgwt4nue4oQDc4K9f/fern+AwgBtiMftXOAgAAAAAAAAAAAAAAAAAAAAAAAAAAAAAAAAAAAAAAAAAAAAAAAAAAAAAAAAAAAAAAAAAAAAAAAAAAAAAAAAAAAAAAAAAAAAAAAAAAAAAAAAAAAAAAAAAAAAAAAAAAAAAAAAAAHCrfQ3s9OwRrsExhAAAAABJRU5ErkJggg==;" parent="1" vertex="1">
          <mxGeometry x="991" y="304.45" width="123" height="56.77" as="geometry" />
        </mxCell>
        <mxCell id="cDf-g9UQeOTYhBCLNVcn-176" style="edgeStyle=orthogonalEdgeStyle;rounded=0;html=1;labelBackgroundColor=none;startFill=1;startSize=4;endArrow=blockThin;endFill=1;endSize=4;jettySize=auto;orthogonalLoop=1;strokeColor=#4284F3;strokeWidth=2;fontSize=12;fontColor=#000000;align=center;dashed=0;verticalAlign=middle;fontFamily=Helvetica;" parent="1" target="cDf-g9UQeOTYhBCLNVcn-170" edge="1">
          <mxGeometry relative="1" as="geometry">
            <mxPoint x="1040" y="490" as="sourcePoint" />
            <mxPoint x="1310" y="260" as="targetPoint" />
            <Array as="points">
              <mxPoint x="1040" y="488" />
            </Array>
          </mxGeometry>
        </mxCell>
        <mxCell id="cDf-g9UQeOTYhBCLNVcn-177" style="edgeStyle=orthogonalEdgeStyle;rounded=0;html=1;labelBackgroundColor=none;startFill=1;startSize=4;endArrow=blockThin;endFill=1;endSize=4;jettySize=auto;orthogonalLoop=1;strokeColor=#4284F3;strokeWidth=2;fontSize=12;fontColor=#000000;align=center;dashed=0;exitX=0;exitY=0.467;exitDx=0;exitDy=0;exitPerimeter=0;" parent="1" source="cDf-g9UQeOTYhBCLNVcn-170" edge="1">
          <mxGeometry relative="1" as="geometry">
            <mxPoint x="1250" y="198.78260869565224" as="sourcePoint" />
            <mxPoint x="910" y="487" as="targetPoint" />
            <Array as="points">
              <mxPoint x="910" y="590" />
              <mxPoint x="910" y="487" />
            </Array>
          </mxGeometry>
        </mxCell>
        <mxCell id="cDf-g9UQeOTYhBCLNVcn-178" value="&lt;font face=&quot;Comic Sans MS&quot; style=&quot;font-size: 12px;&quot;&gt;Data&amp;nbsp;&lt;/font&gt;&lt;font face=&quot;Comic Sans MS&quot;&gt;&lt;span style=&quot;font-size: 12px;&quot;&gt;management&lt;/span&gt;&lt;/font&gt;" style="text;strokeColor=none;fillColor=none;html=1;fontSize=24;fontStyle=1;verticalAlign=middle;align=center;" parent="1" vertex="1">
          <mxGeometry x="924" y="506" width="100" height="40" as="geometry" />
        </mxCell>
        <mxCell id="cDf-g9UQeOTYhBCLNVcn-179" style="edgeStyle=orthogonalEdgeStyle;rounded=0;html=1;labelBackgroundColor=none;startFill=1;startSize=4;endArrow=blockThin;endFill=1;endSize=4;jettySize=auto;orthogonalLoop=1;strokeColor=#4284F3;strokeWidth=2;fontSize=12;fontColor=#000000;align=center;dashed=0;exitX=0.009;exitY=0.357;exitDx=0;exitDy=0;exitPerimeter=0;entryX=1.005;entryY=0.551;entryDx=0;entryDy=0;entryPerimeter=0;" parent="1" target="rMcf9g8HV1eWvbZJhlMh-199" edge="1">
          <mxGeometry relative="1" as="geometry">
            <mxPoint x="873.9999999999999" y="413" as="sourcePoint" />
            <mxPoint x="729.5599999999998" y="413.93000000000006" as="targetPoint" />
          </mxGeometry>
        </mxCell>
        <mxCell id="cDf-g9UQeOTYhBCLNVcn-180" style="edgeStyle=orthogonalEdgeStyle;rounded=0;html=1;labelBackgroundColor=none;startFill=1;startSize=4;endArrow=blockThin;endFill=1;endSize=4;jettySize=auto;orthogonalLoop=1;strokeColor=#4284F3;strokeWidth=2;fontSize=12;fontColor=#000000;align=center;dashed=0;exitX=0.998;exitY=0.391;exitDx=0;exitDy=0;exitPerimeter=0;" parent="1" source="rMcf9g8HV1eWvbZJhlMh-199" target="cDf-g9UQeOTYhBCLNVcn-172" edge="1">
          <mxGeometry relative="1" as="geometry">
            <mxPoint x="800" y="340" as="sourcePoint" />
            <mxPoint x="873.5199999999995" y="351.49" as="targetPoint" />
            <Array as="points">
              <mxPoint x="830" y="340" />
              <mxPoint x="830" y="340" />
            </Array>
          </mxGeometry>
        </mxCell>
        <mxCell id="cDf-g9UQeOTYhBCLNVcn-181" value="&lt;font face=&quot;Comic Sans MS&quot; style=&quot;font-size: 12px;&quot;&gt;Restful API&lt;/font&gt;" style="text;strokeColor=none;fillColor=none;html=1;fontSize=24;fontStyle=1;verticalAlign=middle;align=center;" parent="1" vertex="1">
          <mxGeometry x="786" y="353" width="100" height="40" as="geometry" />
        </mxCell>
        <mxCell id="cDf-g9UQeOTYhBCLNVcn-182" value="&lt;font face=&quot;Comic Sans MS&quot; style=&quot;font-size: 12px;&quot;&gt;Ubuntu 20.04&lt;/font&gt;" style="text;strokeColor=none;fillColor=none;html=1;fontSize=24;fontStyle=1;verticalAlign=middle;align=center;" parent="1" vertex="1">
          <mxGeometry x="762" y="115" width="100" height="40" as="geometry" />
        </mxCell>
        <mxCell id="cDf-g9UQeOTYhBCLNVcn-184" style="edgeStyle=orthogonalEdgeStyle;rounded=0;html=1;labelBackgroundColor=none;startFill=1;startSize=4;endArrow=blockThin;endFill=1;endSize=4;jettySize=auto;orthogonalLoop=1;strokeColor=#4284F3;strokeWidth=2;fontSize=12;fontColor=#000000;align=center;dashed=0;verticalAlign=middle;fontFamily=Helvetica;" parent="1" source="cDf-g9UQeOTYhBCLNVcn-171" edge="1">
          <mxGeometry relative="1" as="geometry">
            <mxPoint x="947" y="206" as="sourcePoint" />
            <mxPoint x="947" y="276" as="targetPoint" />
            <Array as="points">
              <mxPoint x="947" y="220" />
              <mxPoint x="947" y="220" />
            </Array>
          </mxGeometry>
        </mxCell>
        <mxCell id="cDf-g9UQeOTYhBCLNVcn-185" value="" style="verticalLabelPosition=bottom;sketch=0;aspect=fixed;html=1;verticalAlign=top;strokeColor=none;align=center;outlineConnect=0;shape=mxgraph.citrix.web_server;" parent="1" vertex="1">
          <mxGeometry x="958.75" y="370" width="62.5" height="73.53" as="geometry" />
        </mxCell>
        <mxCell id="cDf-g9UQeOTYhBCLNVcn-186" value="&lt;font face=&quot;Comic Sans MS&quot; style=&quot;font-size: 18px; color: rgb(0, 0, 0);&quot;&gt;&lt;b&gt;1. Client&lt;/b&gt;&lt;/font&gt;" style="rounded=1;absoluteArcSize=1;arcSize=2;html=1;strokeColor=#82b366;shadow=0;dashed=0;fontSize=12;align=center;verticalAlign=top;spacing=10;spacingTop=-4;fillColor=#d5e8d4;" parent="1" vertex="1">
          <mxGeometry x="119" y="70" width="280" height="40" as="geometry" />
        </mxCell>
        <mxCell id="cDf-g9UQeOTYhBCLNVcn-187" value="&lt;font face=&quot;Comic Sans MS&quot; style=&quot;font-size: 18px; color: rgb(0, 0, 0);&quot;&gt;&lt;b&gt;2. Frontend&lt;/b&gt;&lt;/font&gt;" style="rounded=1;absoluteArcSize=1;arcSize=2;html=1;strokeColor=#82b366;shadow=0;dashed=0;fontSize=12;align=center;verticalAlign=top;spacing=10;spacingTop=-4;fillColor=#d5e8d4;" parent="1" vertex="1">
          <mxGeometry x="542" y="70" width="280" height="40" as="geometry" />
        </mxCell>
        <mxCell id="cDf-g9UQeOTYhBCLNVcn-188" value="&lt;font face=&quot;Comic Sans MS&quot; style=&quot;font-size: 18px; color: rgb(0, 0, 0);&quot;&gt;&lt;b&gt;3. Backend&lt;/b&gt;&lt;/font&gt;" style="rounded=1;absoluteArcSize=1;arcSize=2;html=1;strokeColor=#82b366;shadow=0;dashed=0;fontSize=12;align=center;verticalAlign=top;spacing=10;spacingTop=-4;fillColor=#d5e8d4;" parent="1" vertex="1">
          <mxGeometry x="854.25" y="70" width="280" height="40" as="geometry" />
        </mxCell>
        <mxCell id="cDf-g9UQeOTYhBCLNVcn-194" value="&lt;font face=&quot;Comic Sans MS&quot; style=&quot;font-size: 12px;&quot;&gt;Chat processing&lt;/font&gt;" style="text;strokeColor=none;fillColor=none;html=1;fontSize=24;fontStyle=1;verticalAlign=middle;align=center;" parent="1" vertex="1">
          <mxGeometry x="947.25" y="227" width="100" height="40" as="geometry" />
        </mxCell>
        <mxCell id="cDf-g9UQeOTYhBCLNVcn-199" value="&lt;font face=&quot;Comic Sans MS&quot; style=&quot;font-size: 12px;&quot;&gt;Http request&lt;/font&gt;" style="text;strokeColor=none;fillColor=none;html=1;fontSize=24;fontStyle=1;verticalAlign=middle;align=center;" parent="1" vertex="1">
          <mxGeometry x="430" y="354" width="100" height="40" as="geometry" />
        </mxCell>
        <mxCell id="cDf-g9UQeOTYhBCLNVcn-203" value="" style="shape=image;imageAspect=0;aspect=fixed;verticalLabelPosition=bottom;verticalAlign=top;clipPath=inset(12% 11.33% 12.67% 10% round 50%);image=https://webzz-production.s3-ap-northeast-1.amazonaws.com/users/avatars/F42B1Z9EV4WEFLY7GGYY.png;" parent="1" vertex="1">
          <mxGeometry x="974.25" y="200" width="40" height="38.31" as="geometry" />
        </mxCell>
        <mxCell id="cDf-g9UQeOTYhBCLNVcn-205" value="&lt;font face=&quot;Comic Sans MS&quot;&gt;&lt;span style=&quot;font-size: 12px;&quot;&gt;Data processing and transformation&lt;/span&gt;&lt;/font&gt;" style="text;strokeColor=none;fillColor=none;html=1;fontSize=24;fontStyle=1;verticalAlign=middle;align=center;" parent="1" vertex="1">
          <mxGeometry x="947.25" y="434" width="100" height="40" as="geometry" />
        </mxCell>
      </root>
    </mxGraphModel>
  </diagram>
</mxfile>
